<svg xmlns="http://www.w3.org/2000/svg" xmlns:xlink="http://www.w3.org/1999/xlink" xml:space="preserve" id="online-shopping-from-mobile" x="0" y="0" enable-background="new 0 0 1500 1500" version="1.1" viewBox="0 0 1500 1500">
  <path fill="none" stroke="#396dd2" stroke-linecap="round" stroke-miterlimit="10" stroke-width="2" d="M1042.7,593.1c0,0,29,50.2,10.2,188"></path>
  <path fill="#d7d4ff" d="M420.5,1204l322.6-61.8c16.9-3.2,28-19.6,24.8-36.5l-147-766.8c-3.2-16.9-19.6-28-36.5-24.8l-322.6,61.8   c-16.9,3.2-28,19.6-24.8,36.5l147,766.8C387.2,1196.1,403.6,1207.2,420.5,1204z"></path>
  <rect width="390.9" height="773" x="307" y="372.5" fill="#ff2d55" transform="rotate(-10.848 502.514 759.089)"></rect>
  <path fill="#396dd2" d="M446.8,1199l322.6-61.8c16.9-3.2,28-19.6,24.8-36.5l-147-766.8c-3.2-16.9-19.6-28-36.5-24.8l-322.6,61.8   c-16.9,3.2-28,19.6-24.8,36.5l147,766.8C413.5,1191.1,429.8,1202.2,446.8,1199z"></path>
  <path fill="#1d3769" d="M786.9,1063.1L646,327.6c-2.6-13.5-15.7-22.4-29.2-19.8L281.9,372c-13.5,2.6-22.4,15.7-19.8,29.2l141,735.5   L786.9,1063.1z"></path>
  <path fill="#fff" d="M634.4,1109.5L634.4,1109.5L634.4,1109.5 M632.8,1109.8c1.1,1.9,3.1,6.8,4.5,14.1s1.4,12.6,1,14.8l-60.4,11.6    c-1.1-1.9-3.1-6.8-4.5-14.1c-1.4-7.3-1.4-12.6-1-14.8L632.8,1109.8 M572.6,1120.5L572.6,1120.5L572.6,1120.5 M633.8,1105.6    c-0.1,0-0.1,0-0.2,0l-63.6,12.2c-2.3,0.4-2.5,9-0.6,19.2c1.9,9.9,5.2,17.6,7.4,17.6c0.1,0,0.1,0,0.2,0l63.6-12.2    c2.3-0.4,2.5-9,0.6-19.2C639.4,1113.3,636.1,1105.6,633.8,1105.6L633.8,1105.6z"></path>
  <defs>
    <polygon id="SVGID_1_" points="1266.6 975.7 403 1135.4 272.7 455.1 1122.6 193.8"></polygon>
  </defs>
  <clipPath id="SVGID_00000142154597119088181290000003377491228492853638_">
    <use xlink:href="#SVGID_1_" overflow="visible"></use>
  </clipPath>
  <g clip-path="url(#SVGID_00000142154597119088181290000003377491228492853638_)">
    <path stroke="#231f20" stroke-miterlimit="10" d="M698.6,850.6c0,0,9.8-69.3-53-206.4l-53.8-22.8l-44.3,141.5L698.6,850.6z"></path>
    <path fill="none" stroke="#396dd2" stroke-linecap="round" stroke-miterlimit="10" stroke-width="2" d="M931.7,649.9c0,0,43.6,61.4,49.2,129.9"></path>
    <path fill="#e1a299" d="M401.9,751.7l294.9-204.4c0,0,99.5-154.6,227.6-153.8c128.1,0.8,171.5,75.1,168.3,124.9s-31.8,65.7-50,73.3     c0,0,16.3,27.7-21.2,65.3s-164.8,40-221.9,5.7l-328,387.5L401.9,751.7z"></path>
    <path fill="#fff" d="M591.7,619.7c0,0,22.8,183.5,106.9,229.2l-369.3,387.4L239,850.6L591.7,619.7z"></path>
  </g>
  <path fill="#ff2d55" d="M709.8,824c0,0,7.3,45.3,52.6,0c0,0,168.9,91,261.9,84l-28.1,362.6c0,0-80.8,12.2-129.2,35.5l-278.4-84.4   L709.8,824z"></path>
  <polygon stroke="#231f20" stroke-miterlimit="10" points="1014.6 1033.7 824.9 1001.5 824.9 1164.2 999.5 1228.6"></polygon>
  <path fill="none" stroke="#396dd2" stroke-linecap="round" stroke-miterlimit="10" stroke-width="2" d="M850.3,540.7c0,0-60.9,107.5-19.9,277.8"></path>
  <path fill="#396dd2" d="M789.4,793.4c0,0,58.7,46.5,63.6-61.2c0,0,164,68.9,259.4-9c0,0,57.9,161.1,127.7,337.3   c0,0-56.3,38.1-106.9,74.2l-308.4,29.4L789.4,793.4z"></path>
  <path fill="#0fd6e1" d="M789.4,793.4l35.5,370.8l0,0h0l84-49.2l22.8-12.6L853,732.2C848.1,839.9,789.4,793.4,789.4,793.4z"></path>
  <path fill="none" stroke="#396dd2" stroke-linecap="round" stroke-miterlimit="10" stroke-width="2" d="M730.2,851.7c0,0,19-148.9,124.9-311"></path>
  <path fill="#0fd6e1" d="M709.8,824l-121.2,397.7l278.4,84.4c48.3-23.3,129.2-35.5,129.2-35.5l-286.4-101.6L762.5,824   C717.2,869.3,709.8,824,709.8,824z"></path>
  <path fill="#396dd2" d="M996.3,1270.7l-286.4-101.6l-121.2,52.6l278.4,84.4C915.4,1282.9,996.3,1270.7,996.3,1270.7z"></path>
  <path fill="none" stroke="#000" stroke-miterlimit="10" d="M1042.7,593.1c0,0-49-6.5-72.8-15.7c-23.9-9.2-73.4-33.2-89.3,5.1c-15.5,37.4,23.3,65.9,86.3,78.1"></path>
  <path fill="none" stroke="#000" stroke-miterlimit="10" d="M842,579.9c5.6,45.1,49.6,55.1,60.1,53.1"></path>
  <path fill="none" stroke="#000" stroke-miterlimit="10" d="M855.2,540.7c0,0-17.4,4.9-13.2,39.2"></path>
  <path fill="none" stroke="#000" stroke-miterlimit="10" d="M820,488.1c0,0,22,55.7,60.6,82.6"></path>
  <path fill="none" stroke="#396dd2" stroke-linecap="round" stroke-miterlimit="10" stroke-width="2" d="M951.4,788.5C850.3,639.2,850.3,540.7,850.3,540.7"></path>
  <path fill="none" stroke="#000" stroke-miterlimit="10" d="M910.9 436.1c0 0 48.9 63.9 39.1 134.5M985.8 424.5c0 0 42.3 71.7 14.4 161M1049.1 448.3c0 0 34.1 82.1-14.6 142.9M916.2 561.5c0 0 3.7 16.1-5.3 37.7-9 21.6 54.7 46.9 58.9-21.8M839.6 591.3c0 0-39.2 45.5-72.5 19.8"></path>
  <path fill="#ff2d55" d="M824.9,1164.2l308.4-29.4c50.6-36.2,106.9-74.2,106.9-74.2l-312.6,22.1L824.9,1164.2z"></path>
  <path fill="none" stroke="#000" stroke-miterlimit="10" d="M859.4,551.7c0,0-2.3,12.1,4.7,23.9"></path>
  <circle cx="951.4" cy="788.5" r="10.2" fill="#396dd2"></circle>
  <circle cx="1052.9" cy="781.2" r="10.2" fill="#396dd2"></circle>
  <line x1="486.6" x2="467" y1="800.5" y2="922.6" fill="none" stroke="#396dd2" stroke-linecap="round" stroke-miterlimit="10" stroke-width="3"></line>
  <path fill="none" stroke="#1d3769" stroke-miterlimit="10" d="M524.3,660.6c0,0-2.2,176.8,118.3,247.1"></path>
  <circle cx="467" cy="372.3" r="9.8" fill="none" stroke="#d7d4ff" stroke-miterlimit="10"></circle>
</svg>
