<svg xmlns="http://www.w3.org/2000/svg" width="1009.274" height="963.556" enable-background="new 0 0 1920 1080" viewBox="455.364 58.222 1009.274 963.556" id="online-shopping-discount">
  <path fill="#6b98df" d="M1377.23,540.02c0,136.78-62.71,258.93-161,339.24c-70.52,57.62-159.31,93.71-256.41,98.21     c-6.53,0.33-13.14,0.5-19.76,0.5h-0.83c-69.36,0-134.92-16.12-193.2-44.85c-11.7-5.75-23.11-11.99-34.18-18.77     c-55.39-33.69-102.76-79.36-138.39-133.39c-6.78-10.29-13.14-20.83-19.06-31.71c-6.2-11.37-11.9-23.02-17.07-34.93     c-23.23-53.41-36.09-112.35-36.09-174.31c0-61.96,12.86-120.91,36.09-174.31c9.55-22.03,20.87-43.15,33.81-63.12     c10.66-16.53,22.45-32.28,35.18-47.16c0.04-0.08,0.12-0.17,0.17-0.21c80.32-93.75,199.61-153.19,332.75-153.19     c133.1,0,252.31,59.36,332.59,153.03c0.12,0.12,0.25,0.25,0.33,0.37c12.4,14.47,23.89,29.8,34.31,45.84     c0.08,0.12,0.16,0.25,0.25,0.37C1351.31,370.21,1377.23,452.1,1377.23,540.02z"></path>
  <path fill="#ffae01" d="M1204.58,357.27l-53.82,128.63l88.55,154.88c3.38,5.91,11.12,7.56,16.6,3.55l158.17-115.81      c4.88-3.55,6.12-10.24,2.89-15.31l-98.08-153.91L1204.58,357.27z M1237.09,409.66c-8.14,6.19-19.78,4.61-25.99-3.57      c-6.19-8.14-4.61-19.78,3.53-25.97c8.14-6.19,19.81-4.64,26,3.51C1246.85,391.81,1245.24,403.46,1237.09,409.66z"></path>
  <path d="M1252.3 315.5c-9.2-5.17-19.47-6.21-28.92-2.98-19.39 6.64-29.19 29.63-21.78 51.22 6.67 19.37 24.87 31.18 42.54 28.59-.02-.3.11-.7.03-1.07-.31-1.42-.62-1.96-.94-2.87-15.88 2.39-31.85-8.33-37.86-25.93-5.53-16.07-.63-32.97 10.92-41.75 2.5-1.9 5.31-3.41 8.39-4.48 8.37-2.84 17.49-1.87 25.69 2.75 8.28 4.66 14.61 12.43 17.9 21.94 2.02 5.84 2.61 11.81 2.02 17.48l3.98.18c.6-6.14-.08-12.58-2.24-18.94C1268.41 329.22 1261.41 320.63 1252.3 315.5zM1259.08 510.44c-2.97 2.26-6.17 3.42-9.6 3.49-3.44.07-6.79-.79-10.05-2.6-3.26-1.8-6.14-4.34-8.64-7.63-2.59-3.41-4.32-6.93-5.19-10.56-.86-3.63-.81-7.1.15-10.43.96-3.32 2.93-6.11 5.89-8.37 3.03-2.3 6.26-3.47 9.69-3.48 3.43-.01 6.77.88 10.04 2.68 3.27 1.81 6.17 4.38 8.72 7.73 2.5 3.29 4.16 6.78 4.98 10.49.83 3.71.76 7.19-.19 10.46C1263.92 505.49 1261.99 508.23 1259.08 510.44zM1253.61 503.24c2.21-1.68 3.07-3.95 2.58-6.83-.49-2.87-1.88-5.82-4.19-8.85-2.4-3.16-4.92-5.32-7.57-6.51-2.64-1.18-5.04-.95-7.18.68-2.15 1.63-2.99 3.9-2.54 6.79.46 2.89 1.84 5.86 4.14 8.89 2.35 3.1 4.86 5.25 7.53 6.46C1249.05 505.08 1251.46 504.87 1253.61 503.24zM1283.23 541.41c-.89.67-2.07 1.01-3.58 1-1.5-.01-2.68-.58-3.55-1.72-.58-.76-.95-1.77-1.11-3.04l-5.8-87.84c-.01-1.98.61-3.46 1.87-4.42.95-.72 2.14-1.08 3.59-1.08 1.45 0 2.62.6 3.53 1.8.53.7.9 1.71 1.12 3.04l5.8 87.84C1285.13 538.98 1284.5 540.45 1283.23 541.41zM1323.43 511.89c-2.84 2.16-5.98 3.28-9.42 3.35-3.44.07-6.81-.77-10.14-2.53-3.33-1.75-6.24-4.27-8.74-7.56-2.59-3.41-4.31-6.94-5.14-10.6-.83-3.65-.77-7.14.19-10.46.96-3.32 2.93-6.11 5.89-8.37 2.97-2.26 6.17-3.39 9.59-3.41 3.43-.01 6.77.88 10.04 2.68 3.27 1.81 6.17 4.38 8.72 7.73 2.5 3.29 4.16 6.78 4.98 10.49.83 3.71.76 7.19-.19 10.46C1328.27 506.94 1326.34 509.68 1323.43 511.89zM1318.05 504.61c2.15-1.63 2.98-3.88 2.49-6.75-.49-2.87-1.88-5.82-4.19-8.85-2.4-3.16-4.92-5.33-7.57-6.51-2.64-1.18-5.04-.95-7.18.68-2.15 1.63-2.99 3.9-2.54 6.79.45 2.89 1.84 5.86 4.14 8.89 2.35 3.09 4.88 5.24 7.58 6.42C1313.48 506.47 1315.9 506.25 1318.05 504.61z"></path>
  <path fill="#e09daf" d="M1216.23,879.27c-70.52,57.62-159.31,93.71-256.41,98.21c-6.53,0.33-13.14,0.5-19.76,0.5        c-47.78-67.05-124.01-175.84-146.95-208.62c-0.08-0.08-0.08-0.12-0.12-0.17c-0.79-1.12-1.45-2.11-2.11-2.98        c-2.93-4.22-4.55-6.53-4.55-6.53l35.43-28.11l0.79-0.62l27.07-21.54l249.01-197.59l5.13-4.09c0,0,5.99-18.64,17.11-34.97        c8.56-12.52,20.13-23.69,34.31-23.97c3.89-0.08,7.48,2.15,9.51,5.5c0.99,1.57,2.07,3.68,3.18,6.32        c0.33,0.74,0.66,1.53,1.03,2.36c3.18,8.18,6.57,20.79,8.64,39.97c0.79,7.28,1.65,18.93,2.56,33.32        c0.12,0.83,0.17,1.61,0.21,2.48c4.92,75.07,11.41,220.98,14.05,237.6C1196.34,788.9,1204.03,833.96,1216.23,879.27z"></path>
  <path d="M1010.68 859.27c-.02 0-.04 0-.06 0-.65-.03-1.15-.58-1.12-1.23 2.96-63.07 24.75-126.15 61.34-177.6.38-.54 1.12-.65 1.64-.28.53.38.66 1.11.28 1.64-36.35 51.09-57.98 113.72-60.91 176.35C1011.83 858.77 1011.31 859.27 1010.68 859.27zM1180.31 538.72c-3.16-.38-6.31-1.46-9.23-3.2-4.57-2.78-8.53-7.16-11.73-13.05-5.75-10.41-7.72-22.61-5.65-34.29 1.84-10.41 6.83-20.06 14.18-27.55.33.71.66 1.51 1.04 2.35-6.69 7.02-11.21 15.97-12.91 25.57-1.98 11.21-.05 22.8 5.37 32.73 3.06 5.56 6.73 9.66 10.93 12.2 2.5 1.51 5.18 2.45 7.82 2.78C1180.21 537.08 1180.26 537.88 1180.31 538.72z"></path>
  <path fill="#ff8bad" d="M808.14,463.06c0,0-38.48-1.8-40.28,28.86c-1.8,30.66,46.3,60.73,46.3,60.73L808.14,463.06z"></path>
  <path fill="#ff8bad" d="M808.7,541.88c0,0-38.27-4.38-42.13,26.09c-3.86,30.47,42.12,63.7,42.12,63.7L808.7,541.88z"></path>
  <path d="M786.31,759.68l40.21-570.57c0.23-3.32,2.87-5.84,5.97-5.71l294.46,12.16c3.21,0.13,5.71,3.05,5.56,6.49l-24.85,577.32      c-0.15,3.44-2.88,6.08-6.09,5.89l-309.83-18.91C788.52,766.15,786.07,763.15,786.31,759.68z"></path>
  <g>
    <path fill="none" stroke="#ffd5c6" stroke-miterlimit="10" stroke-width="2.355" d="M964.27,744.25c0,10.63-8.61,19.24-19.24,19.24c-10.63,0-19.24-8.61-19.24-19.24       c0-10.63,8.61-19.24,19.24-19.24C955.65,725.01,964.27,733.63,964.27,744.25z"></path>
    <polygon fill="#fff" points="807.54 706.57 846.02 229.17 1109.37 239.99 1090.13 725.82"></polygon>
    <path fill="none" stroke="#ffd5c6" stroke-miterlimit="10" stroke-width="2.355" d="M1015.69,220.31l-54.46-2.33c-3.3-0.14-5.89-2.96-5.75-6.26l0,0c0.14-3.3,2.96-5.89,6.26-5.75l54.46,2.33        c3.3,0.14,5.89,2.96,5.75,6.26l0,0C1021.82,217.86,1019,220.45,1015.69,220.31z"></path>
  </g>
  <g>
    <path fill="#ff8bad" d="M792.51,619.39c0,0,37.88,10.82,37.28,31.87c-0.6,21.04-24.65,45.09-24.65,45.09s19.84,8.42,18.04,30.06       c-1.8,21.65-21.04,51.71-46.9,42.09c-25.85-9.62-35.47-48.7-27.06-62.53c8.42-13.83,22.85-16.84,22.85-16.84       s-32.47-27.06-19.24-51.71S792.51,619.39,792.51,619.39z"></path>
    <path fill="none" stroke="#000" stroke-linecap="round" stroke-linejoin="round" stroke-miterlimit="10" stroke-width="2.355" d="M769.06,690.94c0,0,30.84-5.59,44.89,8.82c15.63,16.03,7.62,56.92-11.62,66.54       c-19.24,9.62-50.11-2-56.12-35.07C740.2,698.16,769.06,690.94,769.06,690.94z"></path>
    <path fill="none" stroke="#000" stroke-linecap="round" stroke-linejoin="round" stroke-miterlimit="10" stroke-width="2.355" d="M783.1 689.35c11.84-14.42 21.65-30.5 29.04-47.63-9.02-5.61-20.91-8.75-31.35-6.81-4.72.88-9.38 2.61-13.01 5.74-7.34 6.33-9.08 17.6-5.8 26.71C765.25 676.49 774.73 684.48 783.1 689.35zM774.48 756.98c14.78-10.75 26.05-26.26 31.71-43.63-6.58-5.91-16.94-8.18-25.78-8.16-5.78.01-12.16.77-16.05 5.04-2.94 3.22-3.82 7.82-3.98 12.18C759.96 733.75 767.42 748.08 774.48 756.98z"></path>
  </g>
  <g>
    <path fill="#ffefe8" d="M960.27,343.06v383.52c0,5.02-6.07,9.1-13.53,9.1H574.26c-7.46,0-13.53-4.08-13.53-9.1V343.06H960.27z"></path>
    <rect width="401.92" height="52.96" x="560.22" y="339.31" fill="#5888e8"></rect>
    <path fill="#ffd5c6" d="M861.92,365.29c0,6.02-4.88,10.9-10.91,10.9c-6.02,0-10.91-4.88-10.91-10.9        c0-6.02,4.88-10.91,10.91-10.91C857.04,354.39,861.92,359.27,861.92,365.29z"></path>
    <path fill="#ff8bad" d="M896.19,365.29c0,6.02-4.88,10.9-10.9,10.9c-6.02,0-10.91-4.88-10.91-10.9c0-6.02,4.88-10.91,10.91-10.91        C891.31,354.39,896.19,359.27,896.19,365.29z"></path>
    <path fill="#ffd364" d="M930.47,365.29c0,6.02-4.88,10.9-10.9,10.9s-10.91-4.88-10.91-10.9c0-6.02,4.88-10.91,10.91-10.91        S930.47,359.27,930.47,365.29z"></path>
    <g>
      <path fill="#5888e8" d="M868.25,626.34c-0.1,0-0.2,0-0.3-0.02c-0.31-0.04-0.6-0.14-0.86-0.28c-8.18-1.51-116.52-1.14-188.17-0.52        c-0.01,0-0.01,0-0.02,0c-1.05,0-1.98-0.69-2.29-1.69l-39.18-127.32c-0.22-0.73-0.09-1.52,0.36-2.13        c0.45-0.61,1.17-0.97,1.93-0.97h260.35c0.74,0,1.43,0.34,1.89,0.92c0.46,0.58,0.61,1.34,0.44,2.05l-31.83,128.14        C870.3,625.61,869.33,626.34,868.25,626.34z M865.85,624.12C865.85,624.12,865.85,624.12,865.85,624.12        S865.85,624.12,865.85,624.12z M865.85,624.11C865.85,624.11,865.85,624.11,865.85,624.11        C865.85,624.11,865.85,624.11,865.85,624.11z M865.85,623.95c0,0.05,0,0.1,0,0.16C865.85,624.06,865.85,624.01,865.85,623.95z         M865.85,623.95C865.85,623.95,865.85,623.95,865.85,623.95C865.85,623.95,865.85,623.95,865.85,623.95z M870.64,623.95h0.04        H870.64z M790.59,620.15c52.07,0,69.67,0.62,75.82,1.23l30.6-123.17H642.96l37.7,122.51        C728.35,620.31,763.98,620.15,790.59,620.15z"></path>
      <path fill="#5888e8" d="M849.2,670.6H693.58c-0.89,0-1.68-0.57-1.95-1.42l-14.69-45.41c-0.35-1.08,0.24-2.23,1.32-2.58        c1.07-0.35,2.23,0.24,2.58,1.32l14.23,43.99H849.2c1.13,0,2.05,0.92,2.05,2.05S850.33,670.6,849.2,670.6z"></path>
      <path fill="#5888e8" d="M796.42 684.73c0 8.86 7.19 16.05 16.05 16.05 8.86 0 16.05-7.19 16.05-16.05 0-8.86-7.19-16.05-16.05-16.05C803.61 668.68 796.42 675.87 796.42 684.73zM716.44 684.73c0 8.86 7.19 16.05 16.05 16.05 8.86 0 16.05-7.19 16.05-16.05 0-8.86-7.19-16.05-16.05-16.05C723.62 668.68 716.44 675.87 716.44 684.73zM641.35 502.02c-1.07 0-2.05-.73-2.32-1.81l-9.23-36.6-39-14.37c-1.24-.46-1.88-1.84-1.42-3.08.46-1.24 1.85-1.88 3.08-1.42l40.19 14.81c.74.27 1.3.9 1.5 1.66l9.54 37.83c.33 1.28-.46 2.59-1.74 2.91C641.74 501.99 641.54 502.02 641.35 502.02zM831.25 624.44c-.14 0-.28-.01-.41-.04-1.31-.22-2.18-1.47-1.95-2.77l21.77-125.14c.22-1.31 1.48-2.18 2.77-1.95 1.31.23 2.18 1.47 1.95 2.77L833.6 622.45C833.4 623.62 832.39 624.44 831.25 624.44zM782.82 623.9c-.14 0-.28-.01-.43-.04-1.3-.23-2.17-1.48-1.94-2.78l22.31-124.6c.23-1.3 1.48-2.17 2.78-1.94 1.3.23 2.17 1.48 1.94 2.78l-22.31 124.6C784.97 623.08 783.96 623.9 782.82 623.9zM730.59 623.35c-.13 0-.26-.01-.4-.03-1.3-.21-2.19-1.45-1.97-2.76l20.68-124.6c.21-1.31 1.43-2.19 2.76-1.97 1.3.22 2.19 1.45 1.97 2.76l-20.68 124.6C732.75 622.52 731.74 623.35 730.59 623.35zM681.08 623.35c-.09 0-.19 0-.29-.02-1.31-.16-2.25-1.35-2.1-2.66l14.69-124.06c.16-1.31 1.33-2.25 2.66-2.1 1.31.15 2.25 1.35 2.1 2.66l-14.69 124.06C683.31 622.46 682.27 623.35 681.08 623.35z"></path>
      <path fill="#5888e8" d="M891.09 533.58H650.6c-1.32 0-2.4-1.07-2.4-2.4 0-1.32 1.07-2.4 2.4-2.4h240.49c1.32 0 2.4 1.07 2.4 2.4C893.49 532.5 892.42 533.58 891.09 533.58zM882.39 570.58H661.48c-1.32 0-2.4-1.07-2.4-2.4 0-1.32 1.07-2.4 2.4-2.4h220.91c1.32 0 2.4 1.07 2.4 2.4C884.79 569.5 883.71 570.58 882.39 570.58z"></path>
      <g>
        <path fill="#5888e8" d="M873.14,604.85H673.45c-1.32,0-2.4-1.07-2.4-2.4s1.07-2.4,2.4-2.4h199.68c1.32,0,2.4,1.07,2.4,2.4        S874.46,604.85,873.14,604.85z"></path>
      </g>
    </g>
  </g>
  <g>
    <path fill="#ef7b7b" d="M1128.51,169.75c-48.57,0-87.95,39.38-87.95,87.95c0,22.7,8.67,43.32,22.79,58.92l-23.84,31.49      l37.45-19.27c14.5,10.52,32.27,16.8,51.56,16.8c48.57,0,87.95-39.38,87.95-87.95C1216.46,209.12,1177.08,169.75,1128.51,169.75z      "></path>
    <path fill="#ffefe8" d="M1173.9,223.02c-19.78-14.44-37.53,7.91-43.94,17.61c-6.41-9.69-24.16-32.04-43.94-17.61      c-24.83,18.12,43.49,89.85,43.49,89.85s0-0.13,0.01-0.31C1129.71,312.35,1198.69,241.11,1173.9,223.02z"></path>
  </g>
  <g>
    <path fill="#fff" d="M746.48 262.23c.36-2.1.31-4.31.53-6.4.33-3.1.55-6.21.82-9.31.35-3.96.7-7.92 1.05-11.88.1-1.13 1.71-1.24 1.96-.13l6.02 26.5c.86 3.77 4.09 6.53 7.95 6.8l27.22 1.85c1.12.08 1.27 1.65.19 1.95l-26.41 7.2c-3.46.94-6 3.9-6.4 7.47l-3.34 29.63c-.13 1.13-1.74 1.19-1.96.08l-5.2-26.79c-.74-3.82-3.92-6.7-7.79-7.05l-30.16-3.46c-.64-.07-.71-.98-.08-1.15 4.72-1.23 9.44-2.47 14.16-3.7 3.29-.86 6.2-1.18 10.13-2.39 3.77-1.16 7.72-1.73 9.98-5.42C745.87 264.84 746.26 263.55 746.48 262.23zM1244.62 708.3c.36-2.1.31-4.31.53-6.4.33-3.1.55-6.21.82-9.31.35-3.96.7-7.92 1.05-11.88.1-1.13 1.71-1.24 1.96-.13l6.02 26.5c.86 3.77 4.09 6.53 7.95 6.8l27.22 1.85c1.12.08 1.27 1.65.19 1.95l-26.41 7.2c-3.46.94-6 3.9-6.4 7.47l-3.34 29.63c-.13 1.13-1.74 1.19-1.96.08l-5.2-26.79c-.74-3.82-3.92-6.7-7.79-7.05l-30.16-3.45c-.64-.07-.71-.98-.08-1.15 4.72-1.23 9.44-2.47 14.16-3.7 3.29-.86 6.2-1.18 10.13-2.39 3.77-1.16 7.72-1.73 9.98-5.42C1244.01 710.91 1244.4 709.63 1244.62 708.3zM779.85 837.51c.36-2.1.31-4.31.53-6.4.33-3.1.55-6.21.82-9.31.35-3.96.7-7.92 1.05-11.88.1-1.13 1.71-1.24 1.96-.13l6.02 26.5c.86 3.77 4.09 6.53 7.95 6.8l27.22 1.85c1.12.08 1.27 1.65.19 1.95l-26.41 7.2c-3.46.94-6 3.9-6.4 7.47l-3.34 29.63c-.13 1.13-1.74 1.19-1.96.08l-5.2-26.79c-.74-3.82-3.92-6.7-7.79-7.05l-30.16-3.45c-.64-.07-.71-.98-.08-1.15 4.72-1.23 9.44-2.47 14.16-3.7 3.29-.86 6.2-1.18 10.13-2.39 3.77-1.16 7.72-1.73 9.98-5.42C779.24 840.12 779.63 838.83 779.85 837.51zM653.23 314.68c0 7.38-5.99 13.37-13.37 13.37-7.38 0-13.37-5.99-13.37-13.37 0-7.38 5.98-13.37 13.37-13.37C647.25 301.32 653.23 307.3 653.23 314.68zM929.04 147.23c0 7.38-5.99 13.37-13.37 13.37-7.38 0-13.37-5.98-13.37-13.37s5.99-13.37 13.37-13.37C923.06 133.86 929.04 139.85 929.04 147.23zM1343.46 608.08c0 7.38-5.99 13.37-13.37 13.37s-13.37-5.99-13.37-13.37 5.98-13.37 13.37-13.37S1343.46 600.7 1343.46 608.08zM670.82 806.5c0 7.38-5.98 13.37-13.37 13.37-7.38 0-13.37-5.98-13.37-13.37 0-7.38 5.99-13.37 13.37-13.37C664.84 793.13 670.82 799.11 670.82 806.5zM880.49 930.33c0 7.38-5.99 13.37-13.37 13.37-7.38 0-13.37-5.99-13.37-13.37 0-7.38 5.98-13.37 13.37-13.37C874.51 916.96 880.49 922.94 880.49 930.33z"></path>
  </g>
</svg>
