<?xml version="1.0" encoding="utf-8"?>
<!-- Generator: Adobe Illustrator 27.5.0, SVG Export Plug-In . SVG Version: 6.00 Build 0)  -->
<svg version="1.1" id="Layer_1" xmlns="http://www.w3.org/2000/svg" xmlns:xlink="http://www.w3.org/1999/xlink" x="0px" y="0px"
	 viewBox="0 0 500 500" style="enable-background:new 0 0 500 500;" xml:space="preserve">
<g>
	<path style="fill:#D9F9F4;" d="M388.672,451.125c36.326-53.293,52.837-117.1,46.363-179.176
		c-1.388-13.312-3.9-26.814-10.887-38.646c-6.987-11.833-19.106-21.879-33.858-24.349c-17.845-2.988-36.126,5.65-47.94,17.93
		c-11.814,12.28-18.415,27.761-24.794,42.901c6.912-27.237,13.848-54.622,15.679-82.498c1.831-27.876-1.669-56.521-14.829-81.866
		s-36.781-47.108-66.56-55.849c-29.779-8.741-65.506-2.73-86.699,17.849c-16.675,16.192-22.843,38.751-26.437,60.487
		c-7.808,47.22-6.274,95.653,4.511,142.405c-4.412-16.248-9.377-33.395-22.752-45.124c-13.375-11.729-38.112-14.819-49.928-1.83
		c-7.896,8.68-7.512,21.03-6.253,32.145c8.052,71.101,33.462,135.68,78.256,194.971L388.672,451.125z"/>
	<path style="fill:#FF89C0;" d="M197.234,432.154c0,0-49.43-79.611-55.826-126.004c0,0,54.483,54.784,71.017,120.074
		L197.234,432.154z"/>
	<path style="fill:#FF89C0;" d="M367.455,450.475c0,0,42.369-54.406,79.31-68.755c0,0-31.366,43.153-64.86,68.755H367.455z"/>
	<path style="fill:#6DF1CC;" d="M374.174,451.745c9.43-19.192,26.506-34.494,46.614-41.768c3.944-1.427,8.184-2.567,12.298-1.751
		c4.114,0.816,7.999,4.122,8.195,8.312c0.204,4.359-3.35,7.869-6.623,10.754c-8.525,7.514-17.049,15.028-25.574,22.542
		L374.174,451.745z"/>
	<g>
		<g>
			<path style="fill:#FFFFFF;" d="M387.745,449.826c2.549-3.392,5.382-6.551,8.329-9.594c2.944-3.048,6.057-5.93,9.264-8.707
				c3.235-2.743,6.601-5.341,10.111-7.731c3.523-2.37,7.212-4.513,11.08-6.247c-3.458,2.459-6.848,4.929-10.162,7.509
				c-3.283,2.619-6.551,5.247-9.732,7.99C400.241,438.494,394.045,444.165,387.745,449.826z"/>
		</g>
		<g>
			<polygon style="fill:#FFFFFF;" points="414.432,425.076 416.118,416.353 415.423,425.21 			"/>
		</g>
		<g>
			<polygon style="fill:#FFFFFF;" points="408.926,429.349 421.412,430.628 408.864,430.348 			"/>
		</g>
		<g>
			<polygon style="fill:#FFFFFF;" points="399.868,437.259 400.368,427.233 400.868,437.259 			"/>
		</g>
		<g>
			<polygon style="fill:#FFFFFF;" points="395.342,441.519 407.656,442.019 395.342,442.519 			"/>
		</g>
		<g>
			<polygon style="fill:#FFFFFF;" points="391.174,445.803 389.471,435.898 392.15,445.585 			"/>
		</g>
	</g>
	<path style="fill:#FF89C0;" d="M319.736,444.809c0,0,14.261-85.982,56.242-138.768c0,0-13.6,89.241-38.826,141.568L319.736,444.809
		z"/>
	<path style="fill:#FF89C0;" d="M261.679,439.82c0,0-5.71-96.038,26.545-163.135c0,0,7.221,99.383-7.115,161.883L261.679,439.82z"/>
	<path style="fill:#6DF1CC;" d="M271.765,448.795c0.26-37.365-4.636-74.763-14.506-110.802
		c-4.677-17.078-10.631-34.171-21.284-48.315c-10.652-14.144-26.697-25.1-44.381-25.998c-9.455-0.48-19.772,2.457-25.21,10.207
		c-4.395,6.265-4.846,14.452-4.321,22.087c1.888,27.46,14.147,52.971,25.739,77.936c11.592,24.964,23.702,48.393,23.566,75.917
		L271.765,448.795z"/>
	<g>
		<g>
			<path style="fill:#FFFFFF;" d="M188.371,283.549c1.936,2.512,3.861,5.038,5.766,7.579l5.484,7.794l5.158,8.019l4.891,8.19
				c6.33,11.038,11.783,22.572,16.562,34.368c4.629,11.856,8.576,23.988,11.557,36.358l2.065,9.313l1.755,9.372l1.363,9.432
				c0.359,3.156,0.693,6.314,1.009,9.47c-0.531-3.131-1.044-6.26-1.533-9.39l-1.802-9.333l-2.025-9.279l-2.323-9.205
				c-3.272-12.223-7.178-24.276-11.922-36c-4.594-11.784-10.036-23.225-16.044-34.361l-4.632-8.287l-4.898-8.138l-5.098-8.023
				C191.91,288.817,190.135,286.19,188.371,283.549z"/>
		</g>
		<g>
			<polygon style="fill:#FFFFFF;" points="203.027,305.924 175.382,299.57 203.234,304.945 			"/>
		</g>
		<g>
			<polygon style="fill:#FFFFFF;" points="209.135,316.239 221.915,297.206 209.977,316.778 			"/>
		</g>
		<g>
			<polygon style="fill:#FFFFFF;" points="216.146,329.747 187.246,327.471 216.207,328.749 			"/>
		</g>
		<g>
			<polygon style="fill:#FFFFFF;" points="222.848,344.44 236.988,329.248 223.596,345.104 			"/>
		</g>
		<g>
			<polygon style="fill:#FFFFFF;" points="229.633,362.213 201.711,356.728 229.808,361.229 			"/>
		</g>
		<g>
			<polygon style="fill:#FFFFFF;" points="233.317,373.743 250,352.522 234.115,374.346 			"/>
		</g>
		<g>
			<polygon style="fill:#FFFFFF;" points="238.75,394.409 212.425,383.614 239.113,393.477 			"/>
		</g>
		<g>
			<polygon style="fill:#FFFFFF;" points="241.101,406.271 255.226,390.416 241.863,406.918 			"/>
		</g>
	</g>
	<path style="fill:#6DF1CC;" d="M281.601,435.078c-7.154-35.636-5.993-72.915,3.366-108.036c3.251-12.199,7.736-24.57,16.61-33.55
		s23.139-13.675,34.522-8.215c10.703,5.133,16.04,17.544,17.333,29.344c1.764,16.095-2.267,32.199-6.266,47.889
		c-7.375,28.937-14.75,57.875-22.126,86.812l-39.996,4.998L281.601,435.078z"/>
	<g>
		<g>
			<path style="fill:#FFFFFF;" d="M324.036,306.15c-2.794,10.481-5.1,21.067-7.235,31.679c-2.1,10.618-3.985,21.278-5.485,31.994
				c-1.565,10.705-2.846,21.454-3.774,32.236c-1.03,10.778-1.548,21.594-2.05,32.433c-0.276-10.839-0.279-21.716,0.494-32.551
				c0.245-5.428,0.846-10.828,1.319-16.239c0.266-2.703,0.641-5.393,0.956-8.091l0.494-4.044l0.583-4.032
				c0.418-2.684,0.782-5.375,1.245-8.052l1.393-8.027c1.04-5.331,2.071-10.663,3.304-15.953
				C317.679,326.915,320.5,316.411,324.036,306.15z"/>
		</g>
		<g>
			<polygon style="fill:#FFFFFF;" points="316.063,335.652 337.706,318.9 316.69,336.431 			"/>
		</g>
		<g>
			<polygon style="fill:#FFFFFF;" points="312.847,352.072 296.575,330.9 313.628,351.448 			"/>
		</g>
		<g>
			<polygon style="fill:#FFFFFF;" points="309.417,373.624 332.882,359.203 309.956,374.466 			"/>
		</g>
		<g>
			<polygon style="fill:#FFFFFF;" points="308.146,383.984 291.92,368.522 308.82,383.245 			"/>
		</g>
		<g>
			<polygon style="fill:#FFFFFF;" points="306.774,397.927 329.875,385.959 307.251,398.806 			"/>
		</g>
		<g>
			<polygon style="fill:#FFFFFF;" points="305.975,409.186 286.76,395.128 306.549,408.367 			"/>
		</g>
	</g>
	<path style="fill:#6DF1CC;" d="M330.203,448.203c2.411-38.59,20.425-75.982,49.101-101.918
		c8.725-7.891,18.874-14.958,30.511-16.679c11.637-1.721,24.909,3.272,29.735,14c3.202,7.119,2.26,15.552-0.762,22.749
		c-3.022,7.197-7.934,13.411-12.787,19.525c-16.17,20.373-32.341,40.746-48.511,61.119L330.203,448.203z"/>
	<g>
		<g>
			<path style="fill:#FFFFFF;" d="M354.071,444.657c3.065-9.189,6.969-18.118,11.574-26.67c4.583-8.568,9.857-16.764,15.651-24.568
				c5.825-7.781,12.174-15.173,19.053-22.032c6.858-6.877,14.256-13.211,22.121-18.865c-7.385,6.267-14.378,12.943-21.001,19.952
				c-6.601,7.03-12.824,14.406-18.57,22.14c-5.775,7.712-11.068,15.781-15.894,24.129
				C362.204,427.105,357.86,435.743,354.071,444.657z"/>
		</g>
		<g>
			<polygon style="fill:#FFFFFF;" points="403.776,368.522 404.276,347.983 404.776,368.522 			"/>
		</g>
		<g>
			<polygon style="fill:#FFFFFF;" points="396.548,376.037 418.765,376.537 396.548,377.037 			"/>
		</g>
		<g>
			<polygon style="fill:#FFFFFF;" points="385.24,389.351 381.773,367.559 386.223,389.172 			"/>
		</g>
		<g>
			<polygon style="fill:#FFFFFF;" points="375.993,402.02 399.436,399.661 376.114,403.013 			"/>
		</g>
		<g>
			<polygon style="fill:#FFFFFF;" points="367.03,416.617 356.746,399.121 367.879,416.089 			"/>
		</g>
		<g>
			<polygon style="fill:#FFFFFF;" points="361.62,426.735 383.752,425.143 361.714,427.731 			"/>
		</g>
	</g>
	<path style="fill:#6DF1CC;" d="M95.418,382.249c-6.359-8.346-13.032-17.634-12.604-28.118c0.51-12.502,11.856-22.785,24.196-24.854
		c12.34-2.068,25.01,2.704,35.152,10.032c16.771,12.118,27.826,30.858,34.295,50.513c6.034,18.334,11.462,41.38,10.722,60.724
		c-16.99,2.538-36.527,3.435-48.286-10.749C123.621,421.376,109.929,401.294,95.418,382.249z"/>
	<g>
		<g>
			<path style="fill:#D9F9F4;" d="M108.871,351.857c6.273,6.562,12.409,13.249,18.417,20.048
				c6.026,6.783,11.926,13.677,17.766,20.622c5.804,6.976,11.532,14.019,17.074,21.21c5.534,7.19,10.943,14.52,15.645,22.293
				l-2.04-2.725c-0.672-0.912-1.326-1.835-2.039-2.718c-1.409-1.777-2.772-3.583-4.215-5.331c-2.826-3.541-5.701-7.042-8.571-10.547
				l-17.387-20.9l-17.412-20.892C120.303,365.951,114.563,358.928,108.871,351.857z"/>
		</g>
		<g>
			<polygon style="fill:#D9F9F4;" points="124.403,370.321 124.903,349.959 125.403,370.321 			"/>
		</g>
		<g>
			<polygon style="fill:#D9F9F4;" points="131.305,378.254 108.871,379.367 131.233,377.256 			"/>
		</g>
		<g>
			<polygon style="fill:#D9F9F4;" points="140.925,389.6 146.006,372.533 141.891,389.858 			"/>
		</g>
		<g>
			<polygon style="fill:#D9F9F4;" points="150.891,401.588 123.484,402.516 150.839,400.589 			"/>
		</g>
		<g>
			<polygon style="fill:#D9F9F4;" points="159.667,412.363 166.961,388.738 160.629,412.639 			"/>
		</g>
		<g>
			<polygon style="fill:#D9F9F4;" points="167.917,422.909 145.223,421.526 167.956,421.91 			"/>
		</g>
	</g>
	<path style="fill:#6DF1CC;" d="M146.006,448.945c-14.361-24.696-37.982-43.859-65.109-52.818c-3.761-1.242-7.66-2.305-11.619-2.173
		c-3.959,0.132-8.031,1.61-10.526,4.687c-4.618,5.695-2.327,14.213,1.101,20.694c6.898,13.043,17.624,24.032,30.497,31.242
		L146.006,448.945z"/>
	<g>
		<g>
			<path style="fill:#D9F9F4;" d="M74.647,409.946c5.002,2.87,9.898,5.909,14.701,9.087c4.819,3.155,9.542,6.453,14.211,9.829
				c2.326,1.698,4.628,3.432,6.927,5.169c2.26,1.79,4.557,3.53,6.762,5.392c4.45,3.663,8.792,7.491,12.738,11.703
				c-4.471-3.638-9.105-7.03-13.699-10.473c-4.615-3.416-9.246-6.812-13.903-10.174L88.46,420.309
				C83.815,416.921,79.219,413.458,74.647,409.946z"/>
		</g>
		<g>
			<polygon style="fill:#D9F9F4;" points="93.183,423.015 93.683,407.135 94.183,423.015 			"/>
		</g>
		<g>
			<polygon style="fill:#D9F9F4;" points="100.704,428.503 82.794,428.817 100.659,427.504 			"/>
		</g>
		<g>
			<polygon style="fill:#D9F9F4;" points="109.467,434.826 109.967,421.526 110.467,434.826 			"/>
		</g>
		<g>
			<polygon style="fill:#D9F9F4;" points="119.351,442.516 102.316,443.954 119.238,441.522 			"/>
		</g>
		<g>
			<polygon style="fill:#D9F9F4;" points="123.304,445.653 124.903,432.154 124.301,445.734 			"/>
		</g>
	</g>
	<g>
		<path style="fill:#3E2723;" d="M266.258,398.366c0,0,9.925,9.943,9.011,19.699l-0.313,0.076
			c-8.64,4.696-17.652,4.353-26.273-0.076l0,0c0,0-1.801-10.739,2.332-19.699H266.258z"/>
		<path style="fill:#3E2723;" d="M228.549,298.036c0,0,11.151-3.953,13.183,5.396c0,0,0.841,17.886-6.591,27.235
			c-7.433,9.35-10.481,3.659-10.481,3.659s-3.862-5.488-0.407-11.788C227.708,316.237,228.549,298.036,228.549,298.036z"/>
		<path style="fill:#5E63B6;" d="M219.172,233.311l-36.856,56.926c0,0-6.504,11.179,1.829,17.886
			c8.333,6.707,43.699,4.471,43.699,4.471s7.317-1.423,7.114-7.724c-0.203-6.301-14.363-9.773-14.363-9.773
			s21.138-13.821,24.627,5.708c3.174,17.763,5.793,97.56,5.793,97.56s8.536,3.049,15.244,0c0,0,7.813-56.742,8.822-71.764
			c0.899-13.391,4.283-32.723,0-79.572L219.172,233.311z"/>
		<path style="fill:#1A3B61;" d="M271.622,251.834c-4.186,2.055-8.596,3.677-13.131,4.834c-4.533,1.17-9.187,1.855-13.86,2.165
			c-4.677,0.241-9.38,0.102-14.018-0.528c-4.64-0.619-9.209-1.714-13.606-3.267c4.492,1.247,9.074,2.108,13.686,2.607
			c4.613,0.488,9.262,0.631,13.888,0.326c4.63-0.236,9.23-0.924,13.755-1.946C262.857,254.99,267.308,253.599,271.622,251.834z"/>
		<path style="fill:#1A3B61;" d="M263.712,257.968c-4.852,2.525-10.094,4.262-15.429,5.493c-5.356,1.134-10.842,1.773-16.307,1.527
			c5.438-0.473,10.83-1.149,16.12-2.369C253.408,261.496,258.582,259.835,263.712,257.968z"/>
		<path style="fill:#B0D5FF;" d="M276.234,263.876c0.052,0.812,0.104,1.658,0.155,2.488c-0.777-0.484-1.313-0.743-1.313-0.743
			L276.234,263.876z"/>
		<path style="fill:#B0D5FF;" d="M308.04,245.045c-1.175,6.15-6.167,12.041-11.471,16.758c-7.083,6.306-14.737,10.539-14.737,10.539
			c-0.242-1.054-0.881-2.039-1.676-2.92c0.812-4.751,1.555-9.899,1.797-14.201l2.868-4.319l4.786-7.221
			c0.605-3.973-2.453-26.519-2.453-26.519s0,0.017-0.017,0.052c-0.017,0.035-0.017,0.087-0.052,0.156l-11.696,28.868
			c-0.035,0.104-0.069,0.19-0.104,0.259c-0.138,0.346-0.207,0.536-0.207,0.536c-37.99,2.436-55.906-13.717-55.906-13.717
			l1.227-55.699c0,0-20.731-18.295-27.849-37.8c-4.388-12.007-4.285-27.331-3.576-37.334c0.449-6.254,1.14-10.435,1.14-10.435
			c7.1-1.417,11.99,0.812,11.99,0.812c-0.035,4.146,0.173,7.93,0.553,11.385c1.797,16.689,7.377,25.206,7.377,25.206
			c8.016,12.111,36.315,25.517,45.195,29.508c1.71,0.777,2.695,1.192,2.695,1.192l19.626,5.304c0,0,0.587,0.259,1.589,0.76
			c3.974,2.004,14.374,7.878,19.608,16.637C305.293,193.838,310.787,230.723,308.04,245.045z"/>
		<path style="opacity:0.5;fill:#B0D5FF;" d="M253.603,246.398c6.272,0.824,13.416,1.149,21.474,0.633c0,0,0.069-0.19,0.207-0.536
			c0.034-0.069,0.069-0.155,0.104-0.259l11.696-28.868c0.035-0.069,0.035-0.121,0.052-0.156c0.017-0.034,0.017-0.052,0.017-0.052
			s1.236,9.121,1.981,16.783c0.591-2.883,0.997-5.244,0.908-5.926c-0.278-2.118-4.215-18.706-4.215-18.706l-8.436,4.771
			c0,0-1.616,22.582-12.18,26.288c0,0,5.68-0.176,10.087-5.118C275.299,235.253,272.725,247.45,253.603,246.398z"/>
		<path style="opacity:0.5;fill:#B0D5FF;" d="M236.278,200.891c0,0-9.322-1.288-16.364-1.332l-0.743,33.754
			c0,0,3.082,2.77,9.378,5.843C226.808,231.059,236.278,200.891,236.278,200.891z"/>
		<path style="opacity:0.5;fill:#B0D5FF;" d="M257.922,166.072c0,0,7.112,15.967,16.478,10.765
			c9.365-5.202-7.651-15.173-7.651-15.173L257.922,166.072z"/>
		<path style="fill:#FFC7C7;" d="M202.099,92.866l0.915-10.162c0,0,6.86-0.152,8.994-6.707c2.134-6.555-2.287-6.25-2.287-6.25
			l0.152-4.878c0,0-9.908-3.1-13.059,2.286c-4.582,7.834-6.707,24.898-6.707,24.898l7.876,4.217L202.099,92.866z"/>
		<path style="fill:#FFC7C7;" d="M257.922,157.12v8.952c0,0,1.096,4.66,9.036,5.696c7.94,1.036,5.006-10.529,5.006-10.529
			L257.922,157.12z"/>
		<path style="fill:#FFC7C7;" d="M257.922,157.12v3.872c0.824,2.08,2.073,3.967,3.488,5.277c2.333,2.161,5.326,3.532,8.428,4.234
			c0.355,0.08,0.716,0.147,1.079,0.205c2.746-2.718,1.046-9.469,1.046-9.469L257.922,157.12z"/>
		<path style="fill:#FFC7C7;" d="M279.078,143.329c0,0-0.47,13.007,0,19.432c0.47,6.425-20.529,5.485-21.156-5.642
			c0,0-5.955,1.097-6.582-5.015c-0.627-6.112,5.171-5.015,5.171-5.015s0.47-13.32,12.223-13.164
			C280.488,134.083,279.078,143.329,279.078,143.329z"/>
		<path style="fill:#3E2723;" d="M256.511,147.09l1.41,5.937c0,0,1.494-10.569,5.152-10.975l-1.22-3.659
			c0,0,11.077-1.931,17.276,0.813c6.199,2.744,9.553-4.37,7.317-9.654c0,0,0.508,2.541-1.219,2.947
			c-1.728,0.407-14.141-13.719-28.717-1.016c0,0-9.008,0.61-7.828,9.451c1.18,8.841,2.657,11.171,2.657,11.171
			S251.676,146.844,256.511,147.09z"/>
		<path style="fill:#769FCD;" d="M255.226,158.957c0,0-11.759,8.068-16.136,31.062c-4.682,24.596-19.919,43.295-19.919,43.295
			l-14.857,22.943c0,0,4.47-15.423,9.777-27.011c6.504-14.202,6.307-51.631,6.307-51.631s-20.731-18.295-27.849-37.8
			c-4.388-12.007-4.285-27.331-3.576-37.334c1.417-0.207,7.446,0.657,13.683,1.762c1.797,16.689,7.377,25.206,7.377,25.206
			C218.048,141.56,246.346,154.967,255.226,158.957z"/>
		
			<rect x="248.04" y="162.716" transform="matrix(0.8221 -0.5693 0.5693 0.8221 -98.9389 187.0062)" style="fill:#3E2723;" width="3.509" height="178.235"/>
		<path style="fill:#29D2E4;" d="M197.615,179.568c0,0-10.364,29.913-21.381,34.945c-11.018,5.032-41.723,20.105-44.194,44.686
			c0,0,23.241-7.582,48.353-10.36c28.711-3.176,50.56-21.13,50.56-21.13L197.615,179.568z"/>
		<g>
			<g>
				<path style="fill:#FFFFFF;" d="M159.8,237.847c-0.2,0.217-0.3,0.328-0.5,0.552c1.37,0.976,2.062,1.524,3.453,2.716
					c0.041-0.037,0.061-0.056,0.102-0.093c-0.831-1.71-1.246-2.553-2.071-4.207c-0.201,0.204-0.302,0.308-0.503,0.519
					c-0.457-0.558-0.685-0.831-1.14-1.366c1.325-1.482,1.996-2.143,3.349-3.341c0.463,0.613,0.694,0.924,1.159,1.556
					c-0.164,0.136-0.246,0.205-0.409,0.345c1.086,2.89,1.631,4.355,2.724,7.316c-1.502,1.127-2.247,1.754-3.719,3.186
					c-2.364-1.559-3.532-2.194-5.825-3.045c-0.156,0.214-0.234,0.322-0.389,0.541c-0.446-0.443-0.668-0.658-1.111-1.074
					c1.475-2.208,2.225-3.185,3.744-4.942C159.117,237.033,159.344,237.301,159.8,237.847z"/>
				<path style="fill:#FFFFFF;" d="M162.735,232.412c1.633-1.421,2.459-2.031,4.125-3.118c0.47,0.693,0.706,1.044,1.178,1.752
					c-0.251,0.154-0.376,0.232-0.626,0.392c1.293,1.917,1.942,2.905,3.245,4.923c0.252-0.136,0.379-0.202,0.632-0.332
					c0.476,0.743,0.714,1.118,1.19,1.872c-1.693,0.82-2.535,1.275-4.203,2.341c-0.471-0.698-0.706-1.044-1.176-1.727
					c0.249-0.17,0.374-0.253,0.624-0.417c-1.291-1.903-1.934-2.828-3.213-4.608c-0.247,0.193-0.37,0.291-0.616,0.492
					C163.43,233.344,163.198,233.03,162.735,232.412z"/>
				<path style="fill:#FFFFFF;" d="M175.167,231.941c1.023-0.414,1.536-0.607,2.563-0.978c0.76,1.263,1.14,1.899,1.901,3.172
					c-0.084,0.147-0.195,0.311-0.333,0.492c-0.137,0.182-0.316,0.361-0.531,0.54c-0.215,0.18-0.478,0.361-0.781,0.54
					c-0.304,0.179-0.667,0.35-1.087,0.51c-0.626,0.238-1.246,0.375-1.856,0.411c-0.61,0.036-1.21-0.051-1.796-0.261
					c-0.586-0.21-1.159-0.556-1.719-1.04c-0.56-0.484-1.105-1.133-1.635-1.948c-0.526-0.809-0.878-1.542-1.06-2.215
					c-0.182-0.672-0.215-1.284-0.099-1.836c0.115-0.551,0.368-1.05,0.76-1.486c0.391-0.436,0.893-0.812,1.506-1.115
					c0.423-0.209,0.817-0.361,1.184-0.459c0.366-0.1,0.708-0.165,1.025-0.197c0.317-0.033,0.609-0.037,0.877-0.014
					c0.268,0.023,0.509,0.052,0.725,0.085c0.731,1.197,1.097,1.8,1.83,3.012c-1.026,0.384-1.538,0.584-2.56,1.018
					c-0.21-0.341-0.315-0.511-0.525-0.851c-0.189-0.305-0.386-0.501-0.592-0.583c-0.205-0.082-0.429-0.07-0.669,0.042
					c-0.241,0.111-0.377,0.266-0.412,0.457c-0.035,0.192,0.042,0.438,0.23,0.738c0.878,1.397,1.318,2.105,2.2,3.533
					c0.189,0.307,0.387,0.504,0.594,0.593c0.205,0.087,0.429,0.084,0.671-0.013c0.242-0.097,0.38-0.239,0.416-0.426
					c0.035-0.188-0.042-0.438-0.232-0.749C175.522,232.522,175.404,232.328,175.167,231.941z"/>
				<path style="fill:#FFFFFF;" d="M174.86,225.227c3.207-1.276,4.828-1.747,8.057-2.803c0.715,1.204,1.072,1.805,1.786,3.006
					c-0.738,0.246-1.107,0.366-1.846,0.608c-0.232-0.392-0.349-0.588-0.581-0.979c-0.275,0.09-0.412,0.135-0.687,0.224
					c1.323,2.23,1.985,3.347,3.308,5.573c0.301-0.099,0.451-0.149,0.751-0.25c0.482,0.809,0.723,1.214,1.205,2.02
					c-1.801,0.618-2.704,0.901-4.507,1.492c-0.482-0.812-0.724-1.218-1.206-2.029c0.301-0.099,0.451-0.149,0.751-0.248
					c-1.324-2.229-1.985-3.343-3.307-5.553c-0.274,0.095-0.411,0.143-0.686,0.239c0.232,0.387,0.348,0.581,0.58,0.968
					c-0.737,0.256-1.105,0.388-1.841,0.662C175.926,226.978,175.571,226.391,174.86,225.227z"/>
				<path style="fill:#FFFFFF;" d="M193.836,223.997c0.532,0.838,0.888,1.591,1.068,2.265c0.18,0.675,0.211,1.283,0.095,1.825
					c-0.116,0.543-0.37,1.026-0.764,1.438c-0.394,0.414-0.899,0.763-1.514,1.038c-0.616,0.275-1.229,0.424-1.841,0.453
					c-0.612,0.029-1.212-0.087-1.799-0.344c-0.587-0.257-1.164-0.664-1.731-1.22c-0.567-0.556-1.12-1.288-1.659-2.191
					c-0.534-0.896-0.893-1.695-1.077-2.393c-0.184-0.698-0.216-1.303-0.098-1.817c0.119-0.512,0.378-0.945,0.778-1.297
					c0.399-0.354,0.91-0.637,1.531-0.858c0.621-0.221,1.238-0.338,1.851-0.355c0.613-0.016,1.213,0.092,1.797,0.326
					c0.584,0.234,1.159,0.606,1.724,1.118C192.761,222.495,193.307,223.165,193.836,223.997z M191.422,228.466
					c0.241-0.102,0.379-0.25,0.415-0.438c0.035-0.19-0.042-0.438-0.231-0.744c-0.882-1.428-1.323-2.149-2.207-3.602
					c-0.19-0.312-0.388-0.515-0.595-0.611c-0.206-0.094-0.431-0.098-0.673-0.008c-0.243,0.09-0.381,0.228-0.417,0.413
					c-0.036,0.186,0.042,0.438,0.232,0.754c0.885,1.47,1.328,2.201,2.211,3.65c0.19,0.311,0.388,0.512,0.595,0.603
					C190.956,228.572,191.181,228.568,191.422,228.466z"/>
				<path style="fill:#FFFFFF;" d="M199.333,224.171c0.274-0.191,0.411-0.289,0.683-0.489c0.468,0.665,0.701,0.994,1.168,1.642
					c-1.671,1.307-2.516,1.865-4.217,2.86c-0.473-0.718-0.71-1.08-1.184-1.811c0.252-0.138,0.378-0.209,0.63-0.353
					c-1.299-1.982-1.951-2.999-3.259-5.07c-0.254,0.123-0.381,0.183-0.635,0.301c-0.477-0.761-0.716-1.144-1.194-1.914
					c1.992-0.876,2.985-1.362,4.947-2.543c0.426-0.256,0.839-0.456,1.24-0.596c0.4-0.14,0.782-0.203,1.142-0.187
					c0.361,0.016,0.708,0.12,1.039,0.312c0.331,0.193,0.644,0.489,0.937,0.895c0.312,0.431,0.493,0.876,0.543,1.341
					c0.05,0.465-0.052,0.906-0.306,1.313c0.033,0.036,0.049,0.054,0.082,0.09c0.729-0.426,1.332-0.34,1.816,0.298
					c0.217,0.286,0.325,0.428,0.542,0.71c0.191-0.176,0.286-0.266,0.477-0.447c0.46,0.59,0.69,0.88,1.148,1.449
					c-1.277,1.298-1.922,1.878-3.223,2.934c-0.667-0.915-1.001-1.382-1.671-2.332c-0.143-0.202-0.28-0.349-0.413-0.443
					c-0.132-0.093-0.272-0.137-0.417-0.132c-0.145,0.004-0.303,0.048-0.471,0.127c-0.169,0.079-0.361,0.191-0.576,0.332
					C198.629,223.151,198.863,223.494,199.333,224.171z M197.845,220.801c0.201-0.131,0.317-0.285,0.346-0.456
					s-0.039-0.377-0.201-0.616c-0.103-0.152-0.155-0.228-0.259-0.38c-0.162-0.239-0.33-0.381-0.503-0.424
					c-0.173-0.044-0.361-0.003-0.563,0.119c-0.226,0.137-0.339,0.205-0.565,0.337c0.473,0.718,0.709,1.074,1.181,1.778
					C197.508,221.019,197.62,220.947,197.845,220.801z"/>
				<path style="fill:#FFFFFF;" d="M204.407,212.813c-0.141,0.147-0.211,0.219-0.352,0.362c0.727,0.366,1.088,0.533,1.808,0.833
					c0.04-0.045,0.06-0.068,0.1-0.113c-0.25-0.832-0.375-1.249-0.625-2.085c-0.14,0.155-0.21,0.232-0.349,0.384
					c-0.456-0.546-0.685-0.825-1.143-1.392c1.216-1.239,1.819-1.915,3.009-3.411c0.451,0.491,0.675,0.73,1.123,1.196
					c-0.137,0.183-0.206,0.274-0.344,0.453c0.19,1.993,0.284,2.989,0.474,4.982c0.285,0.303,0.427,0.451,0.711,0.744
					c0.234-0.318,0.351-0.479,0.584-0.808c0.446,0.443,0.668,0.658,1.111,1.075c-1.544,2.312-2.33,3.328-3.923,5.148
					c-0.454-0.528-0.682-0.798-1.138-1.348c0.241-0.258,0.361-0.389,0.6-0.657c-0.289-0.34-0.433-0.512-0.723-0.861
					c-1.76-0.304-2.651-0.565-4.448-1.244c-0.148,0.12-0.222,0.18-0.37,0.297c-0.465-0.644-0.699-0.971-1.166-1.632
					c1.582-1.176,2.366-1.834,3.914-3.348C203.721,211.967,203.95,212.253,204.407,212.813z"/>
			</g>
		</g>
		<path style="fill:#769FCD;" d="M308.04,245.045c-1.175,6.15-6.167,12.041-11.471,16.758l-11.748-10.901l4.786-7.221
			c0.605-3.973-2.453-26.519-2.453-26.519s0,0.017-0.017,0.052c-0.017,0.035-0.017,0.087-0.052,0.156
			c-0.656,2.229-6.669,22.563-5.252,31.391c0.259,1.693,0.276,3.922,0.121,6.461l-5.718,8.655
			c-0.57-8.863-1.158-16.844-1.158-16.844s0.069-0.19,0.207-0.536c0.034-0.069,0.069-0.155,0.104-0.259
			c1.33-3.628,2.754-19.032,1.811-36.706c-0.869-16.301,1.937-43.318,1.937-43.318c3.974,2.004,14.374,7.878,19.608,16.637
			C305.293,193.838,310.787,230.723,308.04,245.045z"/>
		<path style="fill:#FFC7C7;" d="M203.636,110.972c0,0,0.008-0.012,0.01-0.015c-0.948-5.03-1.606-11.045-1.547-18.091
			c0,0-4.878-2.236-11.992-0.813c0,0-1.573,9.531-1.502,21.341C188.615,113.387,194.813,109.161,203.636,110.972z"/>
		<path style="fill:#FFC7C7;" d="M284.816,250.907l-9.736,14.721c0,0,5.829,2.896,6.744,6.707c0,0,7.667-4.236,14.751-10.539
			C293.256,254.652,284.816,250.907,284.816,250.907z"/>
		<path style="fill:#27578F;" d="M287.135,217.212c0.214-2.006,0.676-3.943,1.197-5.863c0.552-1.911,1.165-3.806,2.028-5.63
			c-0.212,2.007-0.674,3.943-1.197,5.863C288.609,213.494,287.997,215.388,287.135,217.212z"/>
		<path style="fill:#27578F;" d="M220.397,177.615c-0.438-1.882-0.619-3.778-0.739-5.678c-0.087-1.901-0.112-3.806,0.123-5.724
			c0.441,1.882,0.621,3.778,0.739,5.678C220.606,173.792,220.631,175.697,220.397,177.615z"/>
		<path style="fill:#27578F;" d="M209.721,69.746c-2.473,0.225-4.946,0.324-7.418,0.389l0.382-0.466
			c0.135,0.478,0.405,0.998,0.728,1.42c0.33,0.43,0.734,0.799,1.199,1.076c0.468,0.27,0.974,0.487,1.519,0.599
			c0.541,0.123,1.105,0.159,1.673,0.173l-0.042,0.779c-1.169-0.142-2.418-0.196-3.587,0.05c-0.579,0.132-1.163,0.306-1.661,0.634
			c-0.501,0.324-0.899,0.796-1.164,1.367c0.139-0.611,0.492-1.18,0.985-1.605c0.486-0.442,1.098-0.707,1.713-0.891
			c1.244-0.365,2.526-0.454,3.823-0.33l-0.042,0.779c-0.621,0.018-1.25,0.002-1.873-0.136c-0.624-0.12-1.23-0.36-1.792-0.681
			c-1.103-0.698-1.939-1.769-2.242-3.079l-0.111-0.479l0.492,0.013C204.775,69.422,207.248,69.521,209.721,69.746z"/>
		<path style="fill:#27578F;" d="M207.591,64.335c0.336,0.902,0.414,1.804,0.432,2.706c-0.015,0.902-0.093,1.804-0.432,2.706
			c-0.338-0.902-0.416-1.804-0.432-2.706C207.177,66.138,207.255,65.236,207.591,64.335z"/>
		<path style="fill:#27578F;" d="M203.979,63.982c0.378,0.946,0.498,1.903,0.558,2.863c0.027,0.961-0.008,1.925-0.304,2.901
			c-0.38-0.946-0.5-1.903-0.558-2.863C203.65,65.922,203.686,64.957,203.979,63.982z"/>
		<path style="fill:#27578F;" d="M200.156,64.535c0.669,0.74,1.098,1.579,1.472,2.441c0.344,0.874,0.629,1.772,0.674,2.77
			c-0.671-0.74-1.1-1.578-1.472-2.441C200.488,66.43,200.203,65.532,200.156,64.535z"/>
		<path style="fill:#1A3B61;" d="M204.944,305.261c2.57-1.786,5.19-3.444,7.794-5.135l7.857-5.028
			c-2.238,2.194-4.772,4.055-7.39,5.754C210.567,302.524,207.84,304.064,204.944,305.261z"/>
		<path style="fill:#1A3B61;" d="M236.988,290.584c1.595,0.138,3.161,0.511,4.693,0.978c1.537,0.464,3.021,1.094,4.457,1.822
			c2.845,1.48,5.48,3.533,7.281,6.187c-1.183-1.077-2.353-2.123-3.654-3.006c-1.303-0.87-2.619-1.719-4.025-2.415
			C242.958,292.702,240.024,291.557,236.988,290.584z"/>
		<path style="fill:#27578F;" d="M256.085,165.357c1.399,4.064,3.144,7.956,5.361,11.583c2.193,3.642,4.836,6.988,7.79,10.11
			c-3.415-2.622-6.276-5.972-8.529-9.663C258.479,173.682,256.832,169.598,256.085,165.357z"/>
		<path style="fill:#27578F;" d="M253.615,167.458c0.436,2.826,0.898,5.597,1.574,8.331c0.646,2.741,1.497,5.418,2.394,8.133
			c-1.514-2.432-2.548-5.147-3.233-7.931C253.694,173.201,253.378,170.313,253.615,167.458z"/>
		<path style="fill:#3E2723;" d="M270.485,149.573c0,0.541-0.439,0.98-0.98,0.98c-0.541,0-0.98-0.439-0.98-0.98
			c0-0.541,0.439-0.98,0.98-0.98C270.047,148.592,270.485,149.031,270.485,149.573z"/>
		<path style="fill:#3E2723;" d="M276.677,149.573c0,0.541-0.439,0.98-0.98,0.98s-0.98-0.439-0.98-0.98
			c0-0.541,0.439-0.98,0.98-0.98S276.677,149.031,276.677,149.573z"/>
		<path style="fill:#212121;" d="M266.852,157.296c0,0,3.653,1.343,8.808,0.996c0,0,0.341,4.594-4.189,4.549
			C266.889,162.797,266.486,159.041,266.852,157.296z"/>
		<path style="fill:#FF5252;" d="M271.471,162.841c0.653,0.006,1.194-0.092,1.66-0.25c-0.028-0.047-0.052-0.098-0.081-0.143
			c-0.65-1.007-1.516-1.868-2.513-2.531c-0.888-0.59-2.465-1.437-3.783-1.397C266.81,160.379,267.793,162.805,271.471,162.841z"/>
		<path style="fill:#FFC7C7;" d="M274.865,154.299c0.515,0.334,1.146,0.593,1.395,1.154c0.316,0.711-0.238,1.604-0.993,1.794
			c-0.755,0.19-1.569-0.204-2.053-0.814s-0.687-1.396-0.78-2.169c-0.197-1.642,0.06-3.337,0.734-4.847
			c-0.133,0.298-0.129,1.023-0.146,1.373c-0.022,0.458,0.068,0.934,0.212,1.366C273.523,153.023,274.095,153.8,274.865,154.299z"/>
		<path style="fill:none;stroke:#3E2723;stroke-width:0.75;stroke-linecap:round;stroke-miterlimit:10;" d="M265.513,147.51
			c0.306-0.914,1.004-1.69,1.881-2.09c0.877-0.4,1.92-0.419,2.811-0.052"/>
		<path style="fill:none;stroke:#3E2723;stroke-width:0.75;stroke-linecap:round;stroke-miterlimit:10;" d="M275.299,146.019
			c0.578-0.316,1.297-0.359,1.909-0.115c0.611,0.245,1.103,0.772,1.303,1.399"/>
		<path style="fill:#FFFFFF;" d="M266.852,157.296c-0.086,0.409-0.126,0.93-0.083,1.486c0.356,0.178,0.736,0.314,1.126,0.404
			c2.239,0.514,4.549,0.723,6.844,0.62c0.264-0.012,0.53-0.034,0.792-0.074c0.176-0.799,0.129-1.439,0.129-1.439
			C270.505,158.639,266.852,157.296,266.852,157.296z"/>
		<polygon style="fill:#FFC7C7;" points="275.08,265.628 261.549,265.628 256.671,273.402 255.96,274.774 257.434,277.823 
			259.415,280.719 263.988,280.719 269.781,286.359 281.214,278.432 281.824,272.335 279.994,265.628 		"/>
		<path style="fill:#27578F;" d="M263.988,280.719c-1.371-1.189-2.54-2.537-3.662-3.924c-1.096-1.407-2.143-2.853-2.986-4.46
			c1.373,1.187,2.542,2.536,3.662,3.924C262.097,277.667,263.144,279.113,263.988,280.719z"/>
		<path style="fill:#27578F;" d="M258.93,274.339c0.472-1.035,1.048-1.998,1.619-2.964c0.597-0.948,1.214-1.883,1.876-2.785
			l0.136-0.185l0.209,0.005c1.626,0.039,3.252,0.141,4.878,0.419c-1.626,0.278-3.252,0.38-4.878,0.419l0.344-0.179
			c-0.617,0.934-1.281,1.836-1.963,2.725C260.441,272.663,259.737,273.537,258.93,274.339z"/>
		<path style="fill:#27578F;" d="M261.578,277.679c1.28-1.355,2.689-2.541,4.135-3.678l0.108-0.085l0.15-0.002
			c1.092-0.015,2.185,0.011,3.277,0.072c1.092,0.08,2.185,0.158,3.277,0.353c-1.092,0.195-2.185,0.273-3.277,0.353
			c-1.092,0.061-2.185,0.087-3.277,0.072l0.257-0.087C264.745,275.767,263.226,276.807,261.578,277.679z"/>
		<path style="fill:#27578F;" d="M265.383,282.076c0.964-1.211,2.081-2.236,3.237-3.213l0.115-0.097l0.157,0
			c0.809-0.001,1.617,0.016,2.426,0.089c0.809,0.073,1.617,0.154,2.426,0.34c-0.809,0.186-1.617,0.267-2.426,0.34
			c-0.809,0.073-1.617,0.09-2.426,0.089l0.272-0.097C267.98,280.47,266.758,281.366,265.383,282.076z"/>
	</g>
	<g>
		<path style="fill:#853D84;" d="M208.356,349.193c-5.99,2.213-10.679,6.995-11.888,12.123c-0.394,1.672-0.433,3.406,0.254,4.923
			c0.687,1.517,2.173,2.79,4.138,3.153c2.745,0.508,5.721-0.781,8.177-2.222c2.456-1.441,4.876-3.141,7.748-3.669
			c1.881-0.345,3.791-0.148,5.676-0.459c3.362-0.555,6.395-2.86,7.315-5.557C232.932,348.224,215.989,346.374,208.356,349.193z"/>
		<path style="opacity:0.5;fill:#853D84;" d="M211.361,363.888c-1.474,1.133-3.331,2.082-5.133,1.625
			c-1.688-0.428-2.902-2.087-3.073-3.819c-0.171-1.733,0.582-3.472,1.758-4.756c1.176-1.284,2.74-2.156,4.36-2.792
			c3.19-1.252,6.707-1.659,10.099-1.169c1.409,0.204,2.857,0.591,3.916,1.543c1.059,0.952,1.6,2.601,0.919,3.851
			c-0.825,1.516-2.861,1.76-4.586,1.822c-1.534,0.055-2.919-0.079-4.246,0.732C213.946,361.798,212.646,362.818,211.361,363.888z"/>
		<path style="fill:#853D84;" d="M107.328,425.735c1.55,3.43,4.281,6.545,7.911,7.54c3.63,0.995,8.096-0.761,9.262-4.34
			c0.71-2.178,0.153-4.543-0.407-6.765c-0.855-3.39-1.709-6.781-2.564-10.171c-0.415-1.647-0.85-3.338-1.84-4.719
			c-1.705-2.379-5.077-3.43-7.85-2.589c-3.74,1.134-5.155,4.982-5.858,8.471C105.141,417.339,105.569,421.844,107.328,425.735z"/>
		<path style="opacity:0.5;fill:#853D84;" d="M111.627,419.275c-0.809-3.75-0.356-7.74,2.874-9.488
			c3.914-2.118,5.457,7.114,5.457,7.114s1.656,6.645,1.656,6.646c0.229,0.919-0.358,2.574-0.786,3.35
			c-1.549,2.811-4.574,0.92-6.112-0.885C113.413,424.481,112.202,421.939,111.627,419.275z"/>
		<path style="fill:#853D84;" d="M236.056,421.25c0.577-21.99-5.466-44.102-17.08-62.777c-1.39-2.236-4.44-2.731-6.503-1.095
			l-1.233,0.978c-1.513,1.199-2.085,3.242-1.391,5.044c7.559,19.606,10.433,41.006,8.287,61.91L236.056,421.25z"/>
		<path style="opacity:0.5;fill:#853D84;" d="M225.988,423.53c-1.364-33.487-14.616-55.972-14.616-55.972s-0.003,0.006-0.003,0.007
			c6.413,18.451,8.762,38.31,6.767,57.743L225.988,423.53z"/>
		<path style="fill:#853D84;" d="M159.656,439.31c-11.735-10.317-26.947-16.597-42.536-17.61c-1.34-0.087-2.461-1.049-2.787-2.351
			l0,0c-0.467-1.866,0.848-3.715,2.765-3.875c21.259-1.782,43.099,3.97,60.676,16.076L159.656,439.31z"/>
		<path style="opacity:0.5;fill:#853D84;" d="M123.484,422.41l0.001,0.008c13.317,2.098,26.04,7.986,36.17,16.893l7.305-3.129
			C148.333,422.992,123.484,422.41,123.484,422.41z"/>
		<path style="fill:#733572;" d="M345.688,437.259c1.209-21.036,13.512-41.397,29.663-55.113c1.23-1.044,1.748-2.703,1.37-4.272l0,0
			c-0.679-2.817-3.879-4.17-6.388-2.72c-21.949,12.683-38.904,33.863-46.298,58.128L345.688,437.259z"/>
		<path style="fill:#733572;" d="M385.454,378.734c0.682,3.425,0.17,7.299-2.241,9.826s-6.984,3.023-9.32,0.427
			c-1.719-1.91-2.047-5.049-4.315-6.257c-1.466-0.781-3.269-0.459-4.871-0.901c-2.703-0.745-4.417-3.745-4.148-6.536
			c0.543-5.64,8.151-9.42,13.333-9.185C379.64,366.369,384.453,373.708,385.454,378.734z"/>
		<path style="fill:#9E579D;" d="M145.941,445.694c23.385-23.384,62.078-39.143,94.477-32.513c9.822,2.01,19.649,5.512,29.602,4.308
			c6.511-0.787,12.61-3.553,19.015-4.964c14.116-3.109,29.047,0.586,41.837,7.319c12.79,6.733,23.802,16.336,34.684,25.849"/>
		<g>
			<path style="fill:#693A69;" d="M310.976,436.258c0.846,2.17,1.769,4.211,2.958,6.12c1.168,1.922,2.573,3.666,4.126,5.402
				c-2.057-1.118-3.737-2.882-4.977-4.879C311.864,440.892,311.048,438.598,310.976,436.258z"/>
		</g>
		<g>
			<path style="fill:#693A69;" d="M162.049,448.397c2.317-3.447,5.19-6.507,8.34-9.221c3.168-2.692,6.638-5.056,10.403-6.808
				c-3.36,2.433-6.642,4.889-9.754,7.568C167.908,442.592,164.972,445.454,162.049,448.397z"/>
		</g>
		<path style="fill:#9E579D;" d="M133.277,363.034c3.259-2.98,7.079-5.306,11.457-6.605c8.134-2.412,21.475,3.031,17.141,13.557
			c-2.364,5.741-9.728,7.404-13.937,11.969c-2.648,2.871-3.888,6.721-5.462,10.296c-1.574,3.575-3.805,7.212-7.427,8.674
			c-4.853,1.959-9.592-1.163-12.234-5.145c-3.211-4.84-2.595-10.288-0.667-15.52C124.501,373.874,128.213,367.664,133.277,363.034z"
			/>
		<path style="opacity:0.7;fill:#9E579D;" d="M137.243,368.977c1.676-1.573,3.587-2.954,5.768-3.677
			c2.182-0.723,4.666-0.732,6.704,0.33c2.038,1.062,3.513,3.298,3.336,5.59c-0.141,1.837-1.268,3.468-2.625,4.714
			c-1.356,1.246-2.956,2.194-4.415,3.318c-2.665,2.052-4.862,4.708-6.378,7.71c-0.773,1.53-1.418,3.211-2.738,4.304
			c-1.516,1.254-3.817,1.457-5.529,0.488c-6.065-3.434-0.754-14.14,1.919-18.113C134.426,371.946,135.753,370.376,137.243,368.977z"
			/>
		<path style="fill:#9E579D;" d="M393.907,393.625c1.816-1.698,4.677-2.602,7.057-1.657c3.049,1.211,4.112,4.739,4.321,7.822
			c0.435,6.437-1.222,12.971-4.696,18.519c-1.54,2.459-3.489,4.777-6.107,6.238c-2.618,1.461-5.997,1.947-8.776,0.733
			s-4.625-4.354-3.686-7.068c0.872-2.522,3.62-3.951,5.598-5.845C393.519,406.714,388.158,399.001,393.907,393.625z"/>
		<path style="opacity:0.5;fill:#9E579D;" d="M391.604,401.875c0.416-1.751,1.605-3.563,3.614-3.876
			c1.56-0.243,3.213,0.534,4.219,1.661c1.006,1.128,1.462,2.549,1.699,3.944c0.915,5.394-1.276,11.007-5.704,14.615
			c-1.33,1.084-2.93,2.021-4.769,2.166c-1.839,0.145-3.922-0.71-4.572-2.259c-0.532-1.268-0.013-2.668,0.828-3.745
			c1.537-1.968,4.207-3.448,4.347-6.093c0.042-0.782-0.228-1.563-0.217-2.349C391.066,404.605,391.296,403.17,391.604,401.875z"/>
		<path style="fill:#9E579D;" d="M329.728,435.898c10.446-15.344,29.844-24.076,48.256-21.724c2.879,0.368,5.748,0.985,8.649,0.892
			c2.901-0.092,5.928-1.003,7.839-3.187c1.911-2.185,3.275-7.324,0.514-8.219c-16.685-5.407-34.9-6.001-51.901-1.692
			c-17.002,4.309-32.735,13.508-44.829,26.21L329.728,435.898z"/>
		<path style="fill:#9E579D;" d="M341.705,357.949c1.735,2.401,3.079,5.172,3.312,8.125c0.233,2.953-0.78,6.097-3.07,7.975
			s-5.912,2.163-8.194,0.274c-2.875-2.38-3.078-7.293-6.419-8.956c-1.893-0.942-4.161-0.473-6.243-0.84
			c-3.546-0.624-6.328-4.107-6.39-7.672c-0.076-4.301,3.708-6.992,7.363-8.392C329.201,345.729,337.743,352.467,341.705,357.949z"/>
		<path style="opacity:0.5;fill:#9E579D;" d="M323.698,362.587c-1.541-0.677-2.83-1.999-3.279-3.621
			c-0.449-1.622,0.034-3.514,1.332-4.585c1.226-1.013,2.939-1.191,4.527-1.094c6.032,0.371,11.697,4.38,14.053,9.945
			c0.766,1.81,1.198,3.878,0.555,5.735c-0.643,1.857-2.636,3.333-4.543,2.861c-1.896-0.47-2.911-2.479-3.695-4.268
			c-0.714-1.629-1.681-3.529-3.443-4.238C327.486,362.631,325.516,363.385,323.698,362.587z"/>
		<path style="fill:#9E579D;" d="M215.743,418.523c-19.963-20.927-45.208-36.768-72.714-45.692c-3.021-0.98-6.29,0.539-7.523,3.466
			l0,0c-1.23,2.919-0.053,6.328,2.758,7.787c21.076,10.943,38.33,29.156,47.999,50.858
			C196.584,432.205,207.579,425.405,215.743,418.523z"/>
		<path style="opacity:0.7;fill:#693A69;" d="M277.699,450.233c-4.912-10.241-16.425-16.913-27.753-16.084
			c-4.929,0.361-9.766,2.002-14.699,1.704c-5.694-0.345-10.877-3.221-16.302-4.982c-9.253-3.003-19.54-2.702-28.602,0.836
			c-9.061,3.539-16.83,10.289-21.599,18.768L277.699,450.233z"/>
		<path style="opacity:0.5;fill:#9E579D;" d="M146.006,388.536L146.006,388.536c13.537,8.577,25.107,20.256,33.576,33.861
			l0.023,0.013c4.808-2.373,12.105-4.9,12.105-4.9C176.597,399.295,146.006,388.536,146.006,388.536z"/>
		<g>
			<path style="fill:#693A69;" d="M238.324,415.871c1.112,0.056,2.215,0.16,3.322,0.225l3.31,0.278l6.608,0.564
				c2.2,0.199,4.401,0.366,6.602,0.522c1.101,0.093,2.203,0.136,3.306,0.178l1.658,0.066c0.552-0.005,1.106,0.001,1.664,0.016
				c-2.191,0.414-4.429,0.492-6.653,0.509c-2.228,0.025-4.449-0.117-6.663-0.295c-2.213-0.199-4.421-0.445-6.613-0.8
				C242.672,416.79,240.484,416.406,238.324,415.871z"/>
		</g>
		<g>
			<path style="fill:#693A69;" d="M275.328,416.454c-1.685,1.462-3.71,2.476-5.748,3.364c-2.049,0.888-4.197,1.518-6.358,2.049
				c-2.165,0.525-4.368,0.868-6.576,1.102c-1.106,0.1-2.215,0.166-3.32,0.246c-1.112,0.002-2.219,0.036-3.327,0.006
				c2.192-0.351,4.375-0.639,6.542-1.014c2.16-0.41,4.325-0.773,6.449-1.312c2.132-0.498,4.241-1.09,6.315-1.791
				c1.034-0.359,2.062-0.74,3.063-1.187C273.389,417.505,274.374,417.017,275.328,416.454z"/>
		</g>
		<path style="fill:#9E579D;" d="M305.138,440.666c1.098-24.483,13.85-53.891,27.156-74.471c2.823-4.367-5.44-6.539-5.44-6.539
			c-22.731,17.835-39.083,43.635-45.507,71.805L305.138,440.666z"/>
		<path style="opacity:0.5;fill:#9E579D;" d="M330.872,419.844c3.121,1.548,7.786,4.563,8.915,5.299
			c10.646-8.446,24.685-12.695,38.198-10.969C358.851,405.11,330.872,419.844,330.872,419.844z"/>
		<path style="opacity:0.7;fill:#693A69;" d="M221.127,429.607c2.581,0.882,5.161,1.764,7.741,2.647
			c1.138,0.389,2.309,0.783,3.511,0.735s2.46-0.638,2.954-1.735c0.398-0.885,0.229-1.948-0.247-2.793
			c-0.476-0.845-1.223-1.504-2.004-2.079c-3.73-2.746-8.591-3.903-13.158-3.133c-1.062,0.179-2.236,0.558-2.698,1.53
			c-0.399,0.839-0.108,1.876,0.474,2.6c0.583,0.724,1.409,1.202,2.216,1.663"/>
		<path style="opacity:0.7;fill:#693A69;" d="M274.12,441.229c0.917,0.595,1.991,1.17,3.052,0.906
			c1.055-0.262,1.769-1.332,1.882-2.413c0.113-1.081-0.271-2.156-0.786-3.113c-1.933-3.586-5.915-5.971-9.99-5.982
			c-3.067-0.008-4.948,2.899-2.026,4.688C269.072,437.042,271.339,439.422,274.12,441.229z"/>
		<path style="opacity:0.7;fill:#693A69;" d="M337.193,431.087c-3.154-2.304-6.545-4.452-10.362-5.277
			c-3.817-0.824-8.163-0.109-10.901,2.677c-3.029,3.082-3.423,8.165-1.58,12.074c1.842,3.909,5.567,6.695,9.614,8.209
			c2.78,1.04,5.729,1.546,8.675,1.911c7.782,0.966,16.363,1.424,24.107-0.051c-0.867-3.428-5.719-7.277-8.164-9.744
			C345.053,437.325,341.241,434.044,337.193,431.087z"/>
		<path style="opacity:0.7;fill:#693A69;" d="M319.16,424.227c0.489-0.006,1.013,0.024,1.428-0.235
			c0.63-0.393,0.727-1.336,0.365-1.984c-0.362-0.648-1.053-1.044-1.75-1.3c-2.239-0.824-4.876-0.468-6.816,0.921
			c-1.735,1.242-2.882,3.289-3.049,5.415c-0.097,1.244,0.704,4.625,2.654,3.464c1.024-0.609,1.029-2.969,1.74-3.927
			C314.908,424.996,317.255,424.25,319.16,424.227z"/>
		<path style="opacity:0.7;fill:#693A69;" d="M287.448,439.663c2.862-2.596,6.988-3.926,10.724-2.938
			c4.401,1.165,7.417,5.097,10.088,8.784c0.946,1.306,1.927,3.013,1.14,4.421c-0.735,1.315-2.531,1.474-4.038,1.473
			c-5.367-0.004-10.734-0.008-16.101-0.012c-1.741-0.001-4.662,0.609-5.939-0.94c-1.118-1.355-0.487-3.383,0.086-4.819
			C284.33,443.324,285.701,441.41,287.448,439.663z"/>
		<g>
			<path style="fill:#693A69;" d="M315.807,413.771c-1.226,1.177-2.581,2.114-3.951,3.024c-0.695,0.44-1.386,0.882-2.099,1.292
				c-0.71,0.419-1.426,0.813-2.169,1.225c0.464-0.721,1.081-1.316,1.715-1.859c0.635-0.549,1.314-1.035,2.008-1.495
				C312.715,415.065,314.18,414.27,315.807,413.771z"/>
		</g>
		<g>
			<path style="fill:#693A69;" d="M210.092,412.869c1.367,0.821,2.499,1.892,3.546,3.039c0.509,0.587,1.006,1.187,1.437,1.842
				c0.435,0.649,0.834,1.334,1.102,2.087c-1.206-1.033-2.254-2.123-3.285-3.264C211.883,415.418,210.896,414.242,210.092,412.869z"
				/>
		</g>
		<g>
			<path style="fill:#693A69;" d="M281.091,443.387c0.803-2.402,2.432-4.507,4.414-6.114c1.995-1.589,4.404-2.725,6.923-2.989
				c-2.297,1.031-4.407,2.238-6.297,3.768C284.227,439.565,282.592,441.366,281.091,443.387z"/>
		</g>
		<g>
			<path style="fill:#693A69;" d="M236.214,432.388c2.142,0.393,4.279,0.158,6.378-0.231c2.102-0.4,4.214-0.91,6.416-1.122
				c2.201-0.187,4.431-0.053,6.572,0.455c1.069,0.255,2.119,0.58,3.136,0.982c1.005,0.433,1.991,0.905,2.902,1.499
				c-1.013-0.391-2.022-0.766-3.062-1.035c-1.027-0.3-2.071-0.534-3.123-0.691c-2.102-0.315-4.231-0.415-6.336-0.215
				c-2.108,0.176-4.219,0.656-6.394,0.884c-1.086,0.112-2.185,0.185-3.284,0.134C238.324,432.966,237.226,432.793,236.214,432.388z"
				/>
		</g>
		<g>
			<path style="fill:#9E579D;" d="M156.687,381.292c3.95,0.885,7.771,2.239,11.471,3.859c1.861,0.792,3.658,1.716,5.462,2.63
				c1.782,0.956,3.523,1.985,5.257,3.026c3.434,2.137,6.701,4.541,9.78,7.158c3.076,2.618,5.965,5.462,8.487,8.629
				c-3.366-2.246-6.618-4.539-9.906-6.766c-3.285-2.228-6.605-4.375-9.952-6.479l-2.514-1.573c-0.847-0.51-1.706-0.999-2.544-1.527
				l-2.552-1.519c-0.866-0.479-1.719-0.985-2.57-1.497C163.668,385.251,160.181,383.332,156.687,381.292z"/>
		</g>
		<path style="opacity:0.5;fill:#9E579D;" d="M325.41,377.755c-13.12,12.502-22.742,34.011-22.742,34.011
			c3.629-0.169,7.809,0.735,7.809,0.735s0.005-0.006,0.006-0.007c3.735-12.045,9.066-24.063,14.927-34.734L325.41,377.755z"/>
		<g>
			<path style="fill:#853D84;" d="M220.929,368.522c1.283,1.52,2.351,3.18,3.305,4.898c0.954,1.719,1.795,3.5,2.509,5.331
				c0.72,1.828,1.306,3.709,1.772,5.619c0.464,1.91,0.803,3.854,0.888,5.842c-0.891-1.778-1.639-3.57-2.373-5.362
				c-0.732-1.791-1.454-3.576-2.15-5.372c-0.702-1.793-1.384-3.594-2.059-5.407C222.148,372.257,221.482,370.432,220.929,368.522z"
				/>
		</g>
		<path style="opacity:0.5;fill:#9E579D;" d="M250.409,419.113c0.478,0.015,0.971,0.028,1.409,0.22
			c0.439,0.192,0.815,0.611,0.801,1.09c-0.012,0.414-0.312,0.776-0.675,0.976s-0.782,0.266-1.192,0.322
			c-4.585,0.629-9.277,0.467-13.807-0.478c-1.065-0.222-2.18-0.519-2.944-1.294c-1.264-1.283-0.662-3.603,1.346-3.408
			c0.541,0.052,1.053,0.26,1.563,0.446C241.161,418.54,245.913,418.968,250.409,419.113z"/>
		<path style="opacity:0.5;fill:#9E579D;" d="M185.816,422.5c1.922-0.457,3.355-0.264,3.697,1.108
			c0.15,0.601-0.128,1.244-0.558,1.689s-0.995,0.732-1.549,1.009c-5.397,2.71-10.795,5.42-16.192,8.13
			c-0.453,0.227-0.948,0.461-1.447,0.367c-1.134-0.215-1.134-1.401-0.899-2.297c0.348-1.33,1.674-1.958,2.768-2.672
			C173.088,428.886,180.992,423.647,185.816,422.5z"/>
		<g>
			<path style="fill:#9E579D;" d="M337.706,407.135c3.35-1.786,6.936-3.054,10.581-4.065c3.647-1.021,7.39-1.704,11.168-2.106
				c3.779-0.398,7.612-0.404,11.403-0.046c3.791,0.371,7.55,1.248,11.048,2.691c-3.794-0.227-7.459-0.423-11.147-0.352
				c-3.681,0.123-7.342,0.302-11.003,0.691c-3.66,0.378-7.313,0.865-10.982,1.402L337.706,407.135z"/>
		</g>
	</g>
	<path style="fill:#212121;" d="M428.588,453.959H71.412l0,0c0-4.565,3.7-8.265,8.265-8.265h340.647
		C424.888,445.694,428.588,449.394,428.588,453.959L428.588,453.959z"/>
</g>
<g>
	<path style="fill:#783F3F;" d="M254,150.341c0.38,0.155,0.688,0.444,0.946,0.762c0.263,0.319,0.446,0.696,0.586,1.082
		c0.119,0.394,0.202,0.799,0.197,1.207c0.006,0.407-0.047,0.81-0.169,1.195c-0.143-0.795-0.266-1.534-0.502-2.244
		C254.818,151.637,254.494,150.972,254,150.341z"/>
</g>
</svg>
