<svg xmlns="http://www.w3.org/2000/svg" enable-background="new 0 0 1500 1500" viewBox="0 0 1500 1500" id="online-shopping-app">
  <path fill="#ffc000" d="M48.3 632.4c-10.4 0-20.7-3.9-28.6-11.8-7.7-7.7-11.9-17.8-11.9-28.6s4.2-21 11.9-28.6c15.8-15.8 41.5-15.8 57.3 0 7.7 7.7 11.9 17.8 11.9 28.6 0 10.8-4.2 21-11.9 28.6C69 628.5 58.7 632.4 48.3 632.4zM48.3 570.1c-5.6 0-11.2 2.1-15.4 6.4-4.1 4.1-6.4 9.6-6.4 15.4 0 5.8 2.3 11.3 6.4 15.4 8.5 8.5 22.4 8.5 30.9 0 4.1-4.1 6.4-9.6 6.4-15.4 0-5.8-2.3-11.3-6.4-15.4C59.5 572.2 53.9 570.1 48.3 570.1zM162.6 746.7c-10.4 0-20.7-3.9-28.6-11.8-15.8-15.8-15.8-41.5 0-57.3 15.8-15.8 41.5-15.8 57.3 0l0 0c15.8 15.8 15.8 41.5 0 57.3C183.4 742.8 173 746.7 162.6 746.7zM162.6 684.4c-5.6 0-11.2 2.1-15.4 6.4-8.5 8.5-8.5 22.4 0 30.9 8.5 8.5 22.4 8.5 30.9 0s8.5-22.4 0-30.9C173.8 686.6 168.2 684.4 162.6 684.4z"></path>
  <rect width="233.2" height="18.7" x="-7.9" y="643" fill="#ffc000" transform="rotate(-44.984 108.697 652.323)"></rect>
  <circle cx="1009.1" cy="269.3" r="50.2" fill="#ffc000"></circle>
  <path fill="none" stroke="#0059e2" stroke-miterlimit="10" stroke-width="1.924" d="M1230.7 786.8c0 0-54.6-70.5-91.2-59.1-36.6 11.4-11.4 64.9 85.3 61.3M1239.5 786.8c0 0 54.6-70.5 91.2-59.1 36.6 11.4 11.4 64.9-85.3 61.3"></path>
  <line x1="1188.3" x2="1232.6" y1="713.9" y2="786.2" fill="none" stroke="#0059e2" stroke-miterlimit="10" stroke-width="1.924"></line>
  <line x1="1281.9" x2="1237.6" y1="713.9" y2="786.2" fill="none" stroke="#0059e2" stroke-miterlimit="10" stroke-width="1.924"></line>
  <rect width="295.2" height="446.1" x="1087.5" y="780.2" fill="#0074e1"></rect>
  <rect width="329.5" height="79.4" x="1070.3" y="780.2" fill="#0074e1"></rect>
  <rect width="48.7" height="446.1" x="1210.8" y="780.2" fill="#fff"></rect>
  <polygon points="1087.5 859.6 1382.7 859.6 1382.7 928.7 1087.5 879.7" opacity=".2"></polygon>
  <g>
    <path fill="#999" d="M1082.3,1309.2c9.1,0,16.6,7.5,16.6,16.6c0,9.1-7.5,16.6-16.6,16.6c-9.1,0-16.6-7.5-16.6-16.6
				C1065.6,1316.7,1073.1,1309.2,1082.3,1309.2 M1082.3,1295.5c-16.7,0-30.3,13.6-30.3,30.3c0,16.7,13.6,30.3,30.3,30.3
				c16.7,0,30.3-13.6,30.3-30.3C1112.5,1309.1,1099,1295.5,1082.3,1295.5L1082.3,1295.5z"></path>
    <path fill="#2e3744" d="M1115.2,1282.1l-26,47.4c-3.7,6.8-14,4.1-14-3.6v-43.8L1115.2,1282.1L1115.2,1282.1z"></path>
    <path fill="#999" d="M1356.6,1309.2c9.1,0,16.6,7.5,16.6,16.6c0,9.1-7.5,16.6-16.6,16.6c-9.1,0-16.6-7.5-16.6-16.6
				C1340,1316.7,1347.4,1309.2,1356.6,1309.2 M1356.6,1295.5c-16.7,0-30.3,13.6-30.3,30.3c0,16.7,13.6,30.3,30.3,30.3
				c16.7,0,30.3-13.6,30.3-30.3C1386.9,1309.1,1373.3,1295.5,1356.6,1295.5L1356.6,1295.5z"></path>
    <path fill="#2e3744" d="m1389.5 1282.1-26 47.4c-3.7 6.8-14 4.1-14-3.6v-43.8L1389.5 1282.1 1389.5 1282.1zM1400.9 1236.4h-335.3c-3.2 0-6-2.2-6.7-5.3l-68.5-307.1c-.5-2 0-4.1 1.3-5.8 1.3-1.6 3.3-2.6 5.3-2.6h472.2c2.1 0 4.1 1 5.3 2.6 1.3 1.6 1.8 3.7 1.3 5.8l-68.5 307.1C1406.9 1234.2 1404.1 1236.4 1400.9 1236.4zM1071.1 1222.7h324.3l65.4-293.5h-455.2L1071.1 1222.7z"></path>
    <g>
      <path fill="#2e3744" d="M997.6,931.2c-3.1,0-6-2.2-6.7-5.3l-14.8-66.5c-5.7-25.4-27.8-43.2-53.9-43.2h-81.2c-3.8,0-6.8-3.1-6.8-6.8
				s3.1-6.8,6.8-6.8h81.2c32.5,0,60.1,22.1,67.2,53.9l14.8,66.5c0.8,3.7-1.5,7.3-5.2,8.2C998.6,931.1,998.1,931.2,997.6,931.2z"></path>
    </g>
    <g>
      <path fill="#2e3744" d="M1416.9,1288.9h-355.7c-18.3,0-33.1-14.9-33.1-33.1s14.9-33.1,33.1-33.1h339.7c3.8,0,6.8,3.1,6.8,6.8
				c0,3.8-3.1,6.8-6.8,6.8h-339.7c-10.7,0-19.5,8.7-19.5,19.4c0,10.7,8.7,19.5,19.5,19.5h355.7c3.8,0,6.8,3.1,6.8,6.8
				C1423.7,1285.9,1420.7,1288.9,1416.9,1288.9z"></path>
    </g>
    <g>
      <path fill="#2e3744" d="M1064.2 1231.2c-.9 0-1.7-.7-1.7-1.7V922.4c0-.9.7-1.7 1.7-1.7.9 0 1.7.7 1.7 1.7v307.1C1065.8 1230.5 1065.1 1231.2 1064.2 1231.2zM1148.8 1231.2c-.9 0-1.7-.7-1.7-1.7V922.4c0-.9.7-1.7 1.7-1.7.9 0 1.7.7 1.7 1.7v307.1C1150.5 1230.5 1149.7 1231.2 1148.8 1231.2zM1233.4 1231.2c-.9 0-1.7-.7-1.7-1.7V922.4c0-.9.7-1.7 1.7-1.7.9 0 1.7.7 1.7 1.7v307.1C1235.1 1230.5 1234.3 1231.2 1233.4 1231.2zM1318 1231.2c-.9 0-1.7-.7-1.7-1.7V922.4c0-.9.7-1.7 1.7-1.7.9 0 1.7.7 1.7 1.7v307.1C1319.7 1230.5 1319 1231.2 1318 1231.2zM1402.6 1231.2c-.9 0-1.7-.7-1.7-1.7V922.4c0-.9.7-1.7 1.7-1.7.9 0 1.7.7 1.7 1.7v307.1C1404.3 1230.5 1403.6 1231.2 1402.6 1231.2z"></path>
      <g>
        <path fill="#2e3744" d="M1457.8 974.9H1009c-.9 0-1.7-.7-1.7-1.7 0-.9.7-1.7 1.7-1.7h448.8c.9 0 1.7.7 1.7 1.7C1459.5 974.2 1458.7 974.9 1457.8 974.9zM1442 1059.6h-417.3c-.9 0-1.7-.7-1.7-1.7 0-.9.7-1.7 1.7-1.7H1442c.9 0 1.7.7 1.7 1.7C1443.7 1058.8 1443 1059.6 1442 1059.6zM1424.5 1144.2h-382.2c-.9 0-1.7-.7-1.7-1.7 0-.9.7-1.7 1.7-1.7h382.2c.9 0 1.7.7 1.7 1.7C1426.2 1143.4 1425.4 1144.2 1424.5 1144.2z"></path>
      </g>
    </g>
  </g>
  <g>
    <path d="M1366.9,348.2h-245.5c-14.6,0-26.4,11.8-26.4,26.4v216c0,14.6,11.8,26.4,26.4,26.4h81.4
		c11.3,0,21.5,6.7,26.1,17l15.2,34.1l15.2-34.1c4.6-10.3,14.8-17,26.1-17h81.4c14.6,0,26.4-11.8,26.4-26.4v-216
		C1393.3,360,1381.5,348.2,1366.9,348.2z" opacity=".2"></path>
    <path fill="#006ad3" d="M1357.5,348.2H1112c-14.6,0-26.4,11.8-26.4,26.4v216c0,14.6,11.8,26.4,26.4,26.4h81.4c11.3,0,21.5,6.7,26.1,17
		l15.2,34.1l15.2-34.1c4.6-10.3,14.8-17,26.1-17h81.4c14.6,0,26.4-11.8,26.4-26.4v-216C1383.9,360,1372.1,348.2,1357.5,348.2z"></path>
    <path fill="#ff4b85" d="M1193.1,387.2h96.2v60.1c0,14.1,8.5,26.7,21.6,32l19.4,7.8c13.5,5.5,22.3,18.5,22.3,33v31.1h-97.8l-12-15.1
				l-14.8,15.1h-34.8L1193.1,387.2L1193.1,387.2z"></path>
    <polygon fill="#fff" points="1193.1 527.1 1193.1 551.3 1227.9 551.3 1242.7 536.2 1254.7 551.3 1352.5 551.3 1352.5 527.1"></polygon>
    <path fill="none" stroke="#fff" stroke-miterlimit="10" stroke-width="1.755" d="M1237.5 527.1c0-24.6-19.8-46.2-44.4-46.4M1314.3 480.7c0 0-18.5 9.6-18.5 46.4"></path>
    <line x1="1269.2" x2="1269.2" y1="387.2" y2="464" fill="none" stroke="#fff" stroke-miterlimit="10" stroke-width="1.755"></line>
    <g>
      <path fill="#ff7f72" d="M1125.8,411.4h96.2v60.1c0,14.1,8.5,26.7,21.6,32l19.4,7.8c13.5,5.5,22.3,18.5,22.3,33v31.1h-97.8l-12-15.1
				l-14.8,15.1h-34.8L1125.8,411.4L1125.8,411.4z"></path>
      <polygon fill="#fff" points="1125.8 551.3 1125.8 575.5 1160.6 575.5 1175.4 560.4 1187.4 575.5 1285.2 575.5 1285.2 551.3"></polygon>
      <path fill="none" stroke="#fff" stroke-miterlimit="10" stroke-width="1.755" d="M1170.2 551.3c0-24.6-19.8-46.2-44.4-46.4M1247 504.9c0 0-18.5 9.6-18.5 46.4"></path>
      <line x1="1201.9" x2="1201.9" y1="411.4" y2="488.2" fill="none" stroke="#fff" stroke-miterlimit="10" stroke-width="1.755"></line>
    </g>
  </g>
  <g>
    <path fill="#006ad3" d="M399.1,1352.3h63.2L328.8,197.3h-63.2c-18,0-31,14.6-28.9,32.7l125.9,1089.8
			C364.8,1337.7,381.1,1352.3,399.1,1352.3z"></path>
    <path fill="#2e3744" d="M943.7,1352.3H469.3c-18.8,0-35.8-15.3-38-34.1L305.6,231.3c-2.2-18.8,11.3-34.1,30.2-34.1h474.5
			c18.8,0,35.8,15.3,38,34.1l125.6,1086.9C976.1,1337.1,962.6,1352.3,943.7,1352.3z"></path>
    <linearGradient id="a" x1="339.793" x2="939.72" y1="727.193" y2="727.193" gradientTransform="matrix(1 0 0 -1 0 1502)" gradientUnits="userSpaceOnUse">
      <stop offset="0" stop-color="#9fc7ff"></stop>
      <stop offset=".922" stop-color="#95c2ff"></stop>
    </linearGradient>
    <polygon fill="url(#a)" points="939.7 1290.2 458.9 1290.2 339.8 259.4 820.6 259.4"></polygon>
    <polygon fill="#fff" points="426.6 1010.3 907.8 1010.3 939.7 1290.2 458.9 1290.2"></polygon>
    <path fill="none" stroke="#fff" stroke-miterlimit="10" stroke-width="1.755" d="M323.9,702.4L323.9,702.4c-8.5,0-16.1-6.9-17.1-15.3l-28.6-247.4c-1-8.5,5.1-15.3,13.6-15.3l0,0
				c8.5,0,16.1,6.9,17.1,15.3l28.6,247.4C338.5,695.5,332.4,702.4,323.9,702.4z"></path>
    <path fill="none" stroke="#fff" stroke-miterlimit="10" stroke-width="1.755" d="M299.6,439.4c0.4,3.4-2,6-5.3,6c-3.4,0-6.4-2.7-6.7-6c-0.4-3.4,2-6,5.3-6
				C296.2,433.4,299.2,436.1,299.6,439.4z"></path>
    <path fill="#006ad3" d="M604.2 233.7H518c-3.4 0-6.4-2.7-6.7-6l0 0c-.4-3.4 2-6 5.3-6h86.2c3.4 0 6.4 2.7 6.7 6l0 0C610 230.9 607.6 233.7 604.2 233.7zM641.8 227.6c.7 5.7-3.4 10.3-9.1 10.3-5.7 0-10.9-4.6-11.5-10.3-.7-5.7 3.4-10.3 9.1-10.3C636 217.3 641.2 221.9 641.8 227.6z"></path>
    <g>
      <path fill="none" stroke="#0059e2" stroke-miterlimit="10" stroke-width="2.07" d="M799.9,1234.7h-214c-30.9,0-58.8-25-62.4-55.9l0,0c-3.6-30.9,18.6-55.9,49.5-55.9h214
				c30.9,0,58.8,25,62.4,55.9l0,0C853,1209.7,830.8,1234.7,799.9,1234.7z"></path>
      <path fill="#006ad3" d="M657.5 1189.7c1 8.7-5.6 13.9-19.2 13.9h-27.4L605 1153h25.9c13.3 0 20.4 5.4 21.4 13.2.6 4.8-1.4 8.7-5.5 11C652.7 1179.3 656.7 1183.6 657.5 1189.7zM620.4 1163.3l1.1 9.8h9.9c4.8 0 7-1.7 6.7-4.9-.4-3.2-3-4.8-7.8-4.8L620.4 1163.3 620.4 1163.3zM642.8 1188.2c-.4-3.5-3.2-5.1-8.1-5.1h-12l1.2 10.3h12C640.8 1193.3 643.2 1191.6 642.8 1188.2zM662.8 1181.1l-3.2-28.1h14.3l3.2 27.7c1 8.7 5 12.2 11 12.2 5.9 0 9.1-3.5 8.2-12.2L693 1153h14.1l3.2 28.1c1.7 15.1-6.1 23.6-21.1 23.6C674.3 1204.6 664.5 1196.2 662.8 1181.1zM746.3 1185.5l2.1 18.2h-14.3l-2.1-18.4-23.1-32.2H724l14.3 20.1 9.7-20.1h13.9L746.3 1185.5z"></path>
    </g>
    <path fill="none" stroke="#002d7d" stroke-miterlimit="10" stroke-width="2.404" d="M523,522.6h226.1l-82.3-133.8c-14.1-22.8-47.3-22.8-61.4,0L523,522.6z"></path>
    <g>
      <path fill="none" stroke="#fff" stroke-miterlimit="10" stroke-width="1.445" d="M553.8,714.7c0,0,2.3-59.1,38.7-59.1c36.4,0,47.2,59.1,47.2,59.1"></path>
      <polygon fill="#fff" points="731.3 1010.3 462.3 1010.3 496.4 700.9 697.2 700.9"></polygon>
      <polygon fill="#ff4f4b" points="670.9 700.9 636.8 1010.3 731.3 1010.3 697.2 700.9"></polygon>
      <path fill="none" stroke="#fff" stroke-miterlimit="10" stroke-width="1.445" d="M626.6,714.7c0,0-2.3-59.1-38.7-59.1c-36.4,0-47.2,59.1-47.2,59.1"></path>
      <g>
        <path fill="none" stroke="#fff" stroke-miterlimit="10" stroke-width="1.71" d="M762.8 846.3c0 0-31.5-40.7-52.6-34.1-21.1 6.6-6.6 37.5 49.2 35.4M767.9 846.3c0 0 31.5-40.7 52.6-34.1 21.1 6.6 6.6 37.5-49.2 35.4"></path>
        <line x1="738.3" x2="763.9" y1="804.3" y2="846" fill="none" stroke="#fff" stroke-miterlimit="10" stroke-width="1.71"></line>
        <line x1="792.3" x2="766.8" y1="804.3" y2="846" fill="none" stroke="#fff" stroke-miterlimit="10" stroke-width="1.71"></line>
        <rect width="170.3" height="167.7" x="680.2" y="842.6" fill="#ffc000"></rect>
        <rect width="190.1" height="45.8" x="670.3" y="842.6" fill="#ffc000"></rect>
        <rect width="28.1" height="167.7" x="751.3" y="842.6" fill="#fff"></rect>
        <polygon points="680.2 888.4 850.4 888.4 850.4 928.2 680.2 899.9" opacity=".2"></polygon>
      </g>
    </g>
    <path fill="#fff" d="M776.7,606H495.4c-5.6,0-10.1-4.6-10.1-10.1v-77.6c0-5.6,4.6-10.1,10.1-10.1h281.3c5.6,0,10.1,4.6,10.1,10.1
		v77.6C786.8,601.4,782.3,606,776.7,606z"></path>
    <g>
      <path fill="#ff4f4b" d="m529 578.3 4.2-9.2c4.5 3.3 11.1 5.5 17.5 5.5 7.2 0 10.2-2.4 10.2-5.7 0-9.9-30.8-3.1-30.8-22.8 0-9 7.2-16.5 22.3-16.5 6.7 0 13.5 1.6 18.4 4.7l-3.8 9.3c-4.9-2.8-10-4.2-14.7-4.2-7.2 0-10.1 2.7-10.1 6 0 9.8 30.8 3 30.8 22.5 0 8.9-7.3 16.4-22.5 16.4C542.2 584.4 533.7 581.9 529 578.3zM621.9 572.1h-24.6l-4.7 11.3h-12.5l23.6-52.9h12.1l23.7 52.9h-12.9L621.9 572.1zM618.1 562.9l-8.4-20.3-8.4 20.3H618.1zM650.7 530.5h12.3v43h26.5v10h-38.8L650.7 530.5 650.7 530.5zM743 573.7v9.8h-41v-52.9h40v9.9h-27.8v11.5h24.6v9.5h-24.6v12.3L743 573.7 743 573.7z"></path>
    </g>
    <g>
      <polygon fill="#c5332f" points="517.9 345.5 449.3 345.5 339.8 259.4 408.5 259.4"></polygon>
      <polygon fill="#e57064" points="586.6 345.5 517.9 345.5 408.5 259.4 477.1 259.4"></polygon>
      <polygon fill="#c5332f" points="655.2 345.5 586.6 345.5 477.1 259.4 545.8 259.4"></polygon>
      <polygon fill="#e57064" points="723.9 345.5 655.2 345.5 545.8 259.4 614.4 259.4"></polygon>
      <polygon fill="#c5332f" points="792.6 345.5 723.9 345.5 614.4 259.4 683.1 259.4"></polygon>
      <polygon fill="#e57064" points="861.2 345.5 792.6 345.5 683.1 259.4 751.7 259.4"></polygon>
      <polygon fill="#c5332f" points="929.9 345.5 861.2 345.5 751.7 259.4 820.4 259.4"></polygon>
      <g>
        <path fill="#ff4f4b" d="M483.6,414.2L483.6,414.2c-19,0-34.3-15.4-34.3-34.3v-34.3H518v34.3C517.9,398.8,502.6,414.2,483.6,414.2z"></path>
        <path fill="#ff8c82" d="M552.2,414.2L552.2,414.2c-19,0-34.3-15.4-34.3-34.3v-34.3h68.7v34.3C586.6,398.8,571.2,414.2,552.2,414.2z
				"></path>
        <path fill="#ff4f4b" d="M620.9,414.2L620.9,414.2c-19,0-34.3-15.4-34.3-34.3v-34.3h68.7v34.3C655.2,398.8,639.9,414.2,620.9,414.2z
				"></path>
        <path fill="#ff8c82" d="M689.6,414.2L689.6,414.2c-19,0-34.3-15.4-34.3-34.3v-34.3h68.7v34.3C723.9,398.8,708.5,414.2,689.6,414.2z
				"></path>
        <path fill="#ff4f4b" d="M772.7,414.2h-29c-10.9,0-19.8-8.9-19.8-19.8v-48.8h68.7v48.8C792.6,405.3,783.7,414.2,772.7,414.2z"></path>
        <path fill="#ff8c82" d="M826.9,414.2L826.9,414.2c-19,0-34.3-15.4-34.3-34.3v-34.3h68.7v34.3C861.2,398.8,845.8,414.2,826.9,414.2z
				"></path>
        <path fill="#ff4f4b" d="M895.6,414.2L895.6,414.2c-19,0-34.3-15.4-34.3-34.3v-34.3h68.7v34.3C929.9,398.8,914.5,414.2,895.6,414.2z
				"></path>
      </g>
      <polygon fill="#962422" points="353.7 379.9 449.3 379.9 449.3 345.5 339.8 259.4"></polygon>
    </g>
  </g>
  <g>
    <path d="M570.7,1188.2H163.2c-9.1,0-16.5-7.4-16.5-16.5V930.5c0-9.1,7.4-16.5,16.5-16.5h407.6
		c9.1,0,16.5,7.4,16.5,16.5v241.2C587.2,1180.8,579.8,1188.2,570.7,1188.2z" opacity=".2"></path>
    <path fill="#ff4b85" d="M559.6,1176.3H152.1c-9.1,0-16.5-7.4-16.5-16.5V918.6c0-9.1,7.4-16.5,16.5-16.5h407.6
		c9.1,0,16.5,7.4,16.5,16.5v241.2C576.1,1168.9,568.7,1176.3,559.6,1176.3z"></path>
    <rect width="440.5" height="58.8" x="135.6" y="1017.8" fill="#2e3744"></rect>
    <path fill="#fff" d="M258.9,959.7c0,21.2-17.1,38.3-38.3,38.3s-38.3-17.1-38.3-38.3s17.1-38.3,38.3-38.3
			C241.7,921.4,258.9,938.6,258.9,959.7z"></path>
    <path fill="#ffa4be" d="M311.9,959.7c0,21.2-17.1,38.3-38.3,38.3s-38.3-17.1-38.3-38.3s17.1-38.3,38.3-38.3
			C294.8,921.4,311.9,938.6,311.9,959.7z"></path>
    <path fill="#ff4b85" d="M235.4,959.7c0,10.8,4.6,20.6,11.8,27.5c7.2-7,11.8-16.7,11.8-27.5c0-10.8-4.6-20.6-11.8-27.5
			C239.9,939.1,235.4,948.9,235.4,959.7z"></path>
    <g>
      <path fill="none" stroke="#ffa4be" stroke-miterlimit="10" stroke-width="2.353" d="M458 1115.3H349.4c-4.9 0-8.9-4-8.9-8.9l0 0c0-4.9 4-8.9 8.9-8.9H458c4.9 0 8.9 4 8.9 8.9l0 0C467 1111.3 462.9 1115.3 458 1115.3zM530.6 1149.7H349.4c-4.9 0-8.9-4-8.9-8.9l0 0c0-4.9 4-8.9 8.9-8.9h181.2c4.9 0 8.9 4 8.9 8.9l0 0C539.5 1145.7 535.5 1149.7 530.6 1149.7z"></path>
    </g>
  </g>
</svg>
