<?xml version="1.0" encoding="utf-8"?>
<!-- Generator: Adobe Illustrator 27.5.0, SVG Export Plug-In . SVG Version: 6.00 Build 0)  -->
<svg version="1.1" xmlns="http://www.w3.org/2000/svg" xmlns:xlink="http://www.w3.org/1999/xlink" x="0px" y="0px"
	 viewBox="0 0 500 500" style="enable-background:new 0 0 500 500;" xml:space="preserve">
<g id="BACKGROUND">
</g>
<g id="OBJECTS">
	<g>
		<path style="fill:#97FFCF;" d="M87.052,467.672C64.197,419.64,48.367,361.038,47.184,307.86
			c-0.478-21.454,2.321-45.836,19.448-58.765c16.175-12.21,40.275-9.01,56.669,2.904c16.394,11.914,26.392,30.672,33.739,49.559
			c-9.288-44.947-14.494-90.736-15.534-136.62c-0.724-31.938,1.111-65.739,18.546-92.507c13.007-19.97,34.327-34.335,57.719-38.892
			c23.392-4.556,48.545,0.757,68.096,14.385c23.557,16.42,37.764,43.08,48.368,69.765c19.532,49.148,29.796,101.961,30.094,154.847
			c13.688-19.24,31.901-40.688,55.407-38.45c15.581,1.483,28.484,13.88,34.714,28.238c6.23,14.359,6.904,30.459,6.698,46.11
			c-0.749,56.781-9.283,106.461-30.239,159.238H87.052z"/>
		<path style="fill:#7779FA;" d="M69.424,464.632c-5.011-9.132,3.741-19.897,14.243-24.424c10.502-4.527,22.709-5.367,33.353-9.642
			c14.476-5.814,24.555-17.281,36.601-26.303c30.938-23.174,77.588-29.537,115.357-15.734c12.661,4.627,24.728,11.395,38.44,12.364
			c9.362,0.661,18.642-1.467,27.953-2.529c9.311-1.062,19.48-0.881,27.166,3.759c7.593,4.585,11.567,12.829,19.598,16.825
			c8.191,4.076,18.643,2.779,27.419,5.825c20.345,7.062,23.115,33.201,42.701,41.699L69.424,464.632z"/>
		<path style="fill:#15EDA3;" d="M282.508,332.252c-20.743,21.926-36.996,48.073-47.519,76.36
			c-1.051,2.824-3.942,16.746-7.493,16.127c-6.108-1.065-1.658-11.889-0.482-14.399c6.432-13.729,14.037-26.907,22.694-39.354
			C259.481,356.936,270.784,344.643,282.508,332.252z"/>
		<path style="fill:#D48CFF;" d="M74.314,436.756c-4.158-0.621-8.592-0.811-12.377,1.021c-3.784,1.831-6.594,6.249-5.344,10.263
			c0.842,2.704,3.3,4.65,5.95,5.648c2.65,0.998,5.52,1.203,8.336,1.497c16.92,1.773,31.659,7.649,46.827,14.903
			c4.575-8.455-8.41-17.329-14.335-21.535C94.772,442.449,84.752,438.315,74.314,436.756z"/>
		<path style="fill:#D48CFF;" d="M417.445,429.048c3.928,0.236,7.967,0.8,11.341,2.824c3.374,2.024,5.941,5.823,5.466,9.729
			c-0.622,5.11-5.761,8.243-10.357,10.562c-8.953,4.517-17.988,8.87-27.101,13.055c-5.777,2.653-11.702,5.272-18.019,5.985
			c-6.317,0.714-13.191-0.754-17.643-5.291c-12.038-12.267,4.31-22.955,14.26-28.008C388.31,431.345,402.97,428.178,417.445,429.048
			z"/>
		<g>
			<path style="fill:#FFFFFF;" d="M374.721,455.309c3.883-2.02,7.851-3.865,11.847-5.65c3.996-1.784,8.058-3.416,12.13-5.025
				c4.098-1.539,8.234-2.997,12.438-4.238c4.2-1.218,8.492-2.32,12.876-2.556c-1.077,0.21-2.156,0.366-3.221,0.59l-3.172,0.793
				l-3.142,0.903c-1.042,0.318-2.075,0.671-3.112,1.005c-4.133,1.386-8.251,2.829-12.309,4.437
				c-4.089,1.525-8.135,3.167-12.188,4.796L374.721,455.309z"/>
		</g>
		<path style="fill:#15EDA3;" d="M398.763,409.855c21.531-4.359,45.549,0.382,61.463,15.525
			c-14.326-11.103-33.571-15.6-51.334-11.994c-17.763,3.606-33.731,15.252-42.593,31.063c-2.713,4.84-5.249,10.481-10.408,12.523
			c-4.068,1.61-9.119,0.236-11.811-3.213c-8.871-11.364,9.29-21.931,16.78-27.115C372.289,418.733,385.088,412.623,398.763,409.855z
			"/>
		<path style="fill:#D48CFF;" d="M342.201,359.644c7.917-5.102,16.051-10.057,25-12.996c8.948-2.939,18.881-3.734,27.725-0.495
			c8.844,3.24,16.316,10.999,17.609,20.329c1.098,7.922-2.282,15.976-7.51,22.028c-5.228,6.052-12.152,10.374-19.184,14.185
			c-31.768,17.214-67.417,25.665-102.589,33.937c-4.919,1.157-10.983,1.965-14.223-1.912c-8.315-9.95,8.371-24.386,14.344-29.988
			c11.482-10.769,23.761-20.666,36.514-29.886C327.18,369.572,334.634,364.52,342.201,359.644z"/>
		<g>
			<g>
				<path style="fill:#FFFFFF;" d="M275.393,436.353c8.803-7.315,17.923-14.242,27.177-20.979
					c9.263-6.729,18.74-13.159,28.341-19.399c9.68-6.118,19.511-12.002,29.577-17.469c10.123-5.357,20.461-10.322,31.124-14.487
					c-5.207,2.379-10.481,4.587-15.554,7.234c-5.17,2.442-10.154,5.252-15.202,7.928c-9.969,5.595-19.784,11.46-29.406,17.634
					c-9.631,6.161-19.086,12.593-28.434,19.181c-4.677,3.289-9.316,6.635-13.912,10.038
					C284.48,429.401,279.924,432.859,275.393,436.353z"/>
			</g>
			<g>
				<polygon style="fill:#FFFFFF;" points="368.816,374.171 372.427,360.147 369.792,374.387 				"/>
			</g>
			<g>
				<polygon style="fill:#FFFFFF;" points="357.939,379.907 378.207,384.243 357.753,380.889 				"/>
			</g>
			<g>
				<polygon style="fill:#FFFFFF;" points="345.45,387.245 346.306,369.712 346.45,387.266 				"/>
			</g>
			<g>
				<polygon style="fill:#FFFFFF;" points="336.251,392.846 355.417,401.569 335.859,393.766 				"/>
			</g>
			<g>
				<polygon style="fill:#FFFFFF;" points="324.144,400.656 324.193,384.243 325.144,400.628 				"/>
			</g>
			<g>
				<polygon style="fill:#FFFFFF;" points="314.507,407.021 336.055,411.072 314.345,408.008 				"/>
			</g>
			<g>
				<polygon style="fill:#FFFFFF;" points="304.637,414.021 304.356,396.72 305.636,413.976 				"/>
			</g>
			<g>
				<polygon style="fill:#FFFFFF;" points="299.046,417.937 314.426,420.978 298.883,418.924 				"/>
			</g>
		</g>
		<path style="fill:#D48CFF;" d="M279.895,340.74c4.219-5.181,8.746-10.292,14.518-13.656c5.773-3.364,13.052-4.761,19.209-2.168
			c7.145,3.009,11.395,10.941,11.62,18.69c0.225,7.749-2.991,15.249-7.328,21.674c-16.086,23.83-47.31,35.854-58.72,62.244
			c-2.145,4.961-3.501,10.289-6.269,14.93c-4.489,7.527-14.633,12.424-21.232,4.25c-5.024-6.223-0.147-14.422,2.035-20.935
			c6.587-19.661,14.992-38.523,25.809-56.241C265.664,359.49,272.467,349.861,279.895,340.74z"/>
		<g>
			<g>
				<path style="fill:#FFFFFF;" d="M307.122,341.896c-3.099,3.197-6.153,6.435-9.121,9.751c-3.001,3.285-5.945,6.621-8.821,10.014
					c-5.762,6.775-11.385,13.671-16.659,20.829c-5.291,7.143-10.293,14.497-14.873,22.115c-1.142,1.905-2.189,3.865-3.289,5.796
					c-0.533,0.974-1.111,1.927-1.609,2.919l-1.468,2.992l-1.487,2.985l-0.738,1.496l-0.641,1.539l-2.587,6.155
					c2.873-8.44,6.78-16.497,11.154-24.27c4.461-7.73,9.49-15.111,14.735-22.323c5.357-7.13,10.983-14.055,16.883-20.736
					C294.519,354.495,300.63,347.997,307.122,341.896z"/>
			</g>
			<g>
				<polygon style="fill:#FFFFFF;" points="293.542,355.624 292.826,340.541 294.539,355.543 				"/>
			</g>
			<g>
				<polygon style="fill:#FFFFFF;" points="288.537,361.332 306.295,362.945 288.475,362.33 				"/>
			</g>
			<g>
				<polygon style="fill:#FFFFFF;" points="279.679,371.866 277.929,357.368 280.667,371.712 				"/>
			</g>
			<g>
				<polygon style="fill:#FFFFFF;" points="272.708,380.807 292.983,378.506 272.845,381.798 				"/>
			</g>
			<g>
				<polygon style="fill:#FFFFFF;" points="267.164,388.633 262.759,378.184 268.068,388.204 				"/>
			</g>
			<g>
				<polygon style="fill:#FFFFFF;" points="259.231,400.556 274.146,398.576 259.396,401.542 				"/>
			</g>
			<g>
				<polygon style="fill:#FFFFFF;" points="253.347,411.06 245.831,399.825 254.157,410.474 				"/>
			</g>
			<g>
				<polygon style="fill:#FFFFFF;" points="249.186,418.724 262.759,415.118 249.477,419.681 				"/>
			</g>
		</g>
		<path style="fill:#D48CFF;" d="M161.176,345.095c-2.522-9.273-5.448-18.764-4.034-28.225c1.414-9.461,8.488-19.002,18.945-20.603
			c7.996-1.225,16.2,2.507,21.473,8.054s8.043,12.663,9.947,19.759c4.757,17.728,4.763,36.292,2.063,54.366
			c-2.701,18.075-8.056,35.741-13.94,53.192c-1.236,3.666-2.553,7.424-5.224,10.407c-4.054,4.526-13.28,6.423-17.603,0.979
			c-3.02-3.803-0.559-9.768,0.008-13.927c2.321-17.014-1.671-36.053-4.652-52.862C166.304,365.775,163.975,355.383,161.176,345.095z
			"/>
		<g>
			<g>
				<path style="fill:#FFFFFF;" d="M181.969,315.651c3.112,8.913,5.385,18.11,7.191,27.382c1.785,9.282,2.919,18.684,3.567,28.114
					c0.108,2.361,0.324,4.718,0.337,7.083l0.089,7.091c0.03,2.363-0.136,4.726-0.194,7.088l-0.127,3.543
					c-0.056,1.18-0.208,2.355-0.308,3.532l-0.671,7.058l-1.077,7.006l-0.565,3.497l-0.788,3.455l-1.594,6.897l1.334-6.949
					l0.676-3.468l0.452-3.506l0.934-7.002l0.532-7.044c0.076-1.174,0.205-2.345,0.238-3.522l0.1-3.529
					c0.043-2.353,0.193-4.704,0.148-7.058l-0.134-7.059c-0.027-2.354-0.261-4.7-0.378-7.05c-0.563-9.396-1.706-18.758-3.324-28.039
					l-1.31-6.944c-0.508-2.3-0.969-4.612-1.516-6.903C184.541,324.726,183.339,320.166,181.969,315.651z"/>
			</g>
			<g>
				<polygon style="fill:#FFFFFF;" points="186.926,335.606 197.578,320.132 187.765,336.151 				"/>
			</g>
			<g>
				<polygon style="fill:#FFFFFF;" points="189.314,347.659 171.085,339.831 189.686,346.731 				"/>
			</g>
			<g>
				<polygon style="fill:#FFFFFF;" points="191.427,364.84 203.221,351.608 192.192,365.484 				"/>
			</g>
			<g>
				<polygon style="fill:#FFFFFF;" points="192.51,377.368 176.562,369.371 192.934,376.462 				"/>
			</g>
			<g>
				<polygon style="fill:#FFFFFF;" points="192.41,390.04 203.221,382.044 193.034,390.821 				"/>
			</g>
			<g>
				<polygon style="fill:#FFFFFF;" points="191.598,403.234 180.293,393.306 192.232,402.461 				"/>
			</g>
			<g>
				<polygon style="fill:#FFFFFF;" points="190.46,412.664 201.247,408.413 190.866,413.578 				"/>
			</g>
			<g>
				<polygon style="fill:#FFFFFF;" points="188.891,421.305 181.756,412.274 189.648,420.652 				"/>
			</g>
		</g>
		<path style="fill:#D48CFF;" d="M84.035,382.042c-8.729-9.625-18.649-19.85-19.55-32.813c-0.803-11.553,6.482-22.872,16.744-28.239
			c10.262-5.367,22.904-5.175,33.667-0.9c10.763,4.275,19.743,12.311,26.576,21.66c6.834,9.349,11.667,20.004,15.834,30.809
			c6.67,17.296,11.758,35.202,15.18,53.421c1.689,8.993,2.879,18.727-1.18,26.928c-2.842,5.742-8.206,10.178-14.379,11.891
			c-5.569,1.545-13.797,1.018-18.872-2.173c-5.01-3.151-6.95-10.806-9.476-15.798c-7.541-14.903-16.354-29.162-26.308-42.574
			C96.56,396.558,90.473,389.141,84.035,382.042z"/>
		<g>
			<g>
				<path style="fill:#FFFFFF;" d="M100.541,341.896c7.476,7.214,14.101,15.282,20.206,23.693
					c6.093,8.43,11.495,17.353,16.286,26.589c4.683,9.29,8.729,18.917,11.786,28.866c3.105,9.93,5.18,20.174,6.238,30.501
					c-0.79-5.131-1.589-10.259-2.83-15.295c-0.527-2.538-1.246-5.03-1.883-7.54c-0.345-1.248-0.733-2.485-1.097-3.727
					c-0.363-1.243-0.736-2.483-1.161-3.706c-1.579-4.933-3.427-9.775-5.388-14.566c-1.996-4.779-4.209-9.463-6.554-14.078
					c-4.694-9.232-10.084-18.106-16.02-26.6c-2.961-4.252-6.076-8.399-9.341-12.426
					C107.538,349.561,104.149,345.628,100.541,341.896z"/>
			</g>
			<g>
				<polygon style="fill:#FFFFFF;" points="116.951,361.633 120.056,343.207 117.941,361.773 				"/>
			</g>
			<g>
				<polygon style="fill:#FFFFFF;" points="123.451,370.688 95.264,369.371 123.48,369.688 				"/>
			</g>
			<g>
				<polygon style="fill:#FFFFFF;" points="130.126,381.37 135.937,362.945 131.087,381.646 				"/>
			</g>
			<g>
				<polygon style="fill:#FFFFFF;" points="137.793,395.36 114.673,393.306 137.86,394.362 				"/>
			</g>
			<g>
				<polygon style="fill:#FFFFFF;" points="140.432,401.262 147.07,381.302 141.388,401.555 				"/>
			</g>
			<g>
				<polygon style="fill:#FFFFFF;" points="144.889,411.57 122.51,409.11 144.976,410.574 				"/>
			</g>
			<g>
				<polygon style="fill:#FFFFFF;" points="149.188,424.515 159.371,412.042 149.982,425.123 				"/>
			</g>
			<g>
				<polygon style="fill:#FFFFFF;" points="151.681,433.609 134.116,429.275 151.894,432.632 				"/>
			</g>
		</g>
		<path style="fill:#15EDA3;" d="M139.849,465.828c-9.208-14.849-20.856-28.478-35.553-37.927
			c-14.697-9.45-32.664-14.455-49.91-11.644s-33.395,14.101-39.997,30.278c14.371-17,38.395-25.217,60.167-20.578
			c21.772,4.639,40.36,21.935,46.552,43.317C126.09,468.414,134.869,466.689,139.849,465.828z"/>
		<g>
			<g>
				<path style="fill:#FBB901;" d="M121.261,442.265c-18.515-22.165-40.007-41.425-63.877-57.243l0.585-0.882
					c23.956,15.875,45.523,35.204,64.105,57.448L121.261,442.265z"/>
			</g>
			<g>
				<path style="fill:#FBB901;" d="M60.236,385.971c0,0-5.26-6.533-20.103-8.493C40.133,377.478,49.281,383.64,60.236,385.971z"/>
			</g>
			<g>
				<path style="fill:#FBB901;" d="M63.118,388.277c0,0-8.153,1.43-12.934,5.09C50.184,393.367,58.668,392.853,63.118,388.277z"/>
			</g>
			<g>
				<path style="fill:#FBB901;" d="M63.118,388.277c0,0-2.107-6.987-1.92-15.498C61.198,372.778,64.664,379.799,63.118,388.277z"/>
			</g>
			<g>
				<path style="fill:#FBB901;" d="M71.2,394.103c0,0-8.446-0.522-15.79,3.834C55.41,397.937,64.834,398.235,71.2,394.103z"/>
			</g>
			<g>
				<path style="fill:#FBB901;" d="M71.442,394.103c0,0-1.739-9.124-1.592-16.019C69.85,378.084,73.181,384.743,71.442,394.103z"/>
			</g>
			<g>
				<path style="fill:#FBB901;" d="M76.595,398.23c0,0-11.972,1.698-17.885,5.526C58.71,403.756,68.841,402.6,76.595,398.23z"/>
			</g>
			<g>
				<path style="fill:#FBB901;" d="M76.595,398.23c0,0-1.5-8.571,0-16.506C76.595,381.725,78.176,389.81,76.595,398.23z"/>
			</g>
			<g>
				<path style="fill:#FBB901;" d="M81.819,402.419c0,0-0.644-8.714,1.099-14.938C82.918,387.482,84.455,394.206,81.819,402.419z"/>
			</g>
			<g>
				<path style="fill:#FBB901;" d="M81.819,402.419c0,0-7.116,0.248-13.215,4.48C68.604,406.899,77.235,405.657,81.819,402.419z"/>
			</g>
			<g>
				<path style="fill:#FBB901;" d="M87.15,406.899c0,0-0.747-7.962,1.867-14.655C89.018,392.245,90.138,398.933,87.15,406.899z"/>
			</g>
			<g>
				<path style="fill:#FBB901;" d="M87.15,406.899c0,0-8.402,0.784-13.35,4.702C73.801,411.601,81.082,411.256,87.15,406.899z"/>
			</g>
			<g>
				<path style="fill:#FBB901;" d="M93.229,412.274c0,0-0.685-6.371,1.11-15.613C94.339,396.661,95.428,406.339,93.229,412.274z"/>
			</g>
			<g>
				<path style="fill:#FBB901;" d="M93.229,412.274c0,0-6.639,0.475-14.107,2.539C79.122,414.813,87.399,414.968,93.229,412.274z"/>
			</g>
			<g>
				<path style="fill:#FBB901;" d="M99.432,418.074c0,0-1.535-7.267,0-15.227C99.432,402.848,101.819,413.162,99.432,418.074z"/>
			</g>
			<g>
				<path style="fill:#FBB901;" d="M99.432,418.074c0,0-7.988-1.249-13.775,0.898C85.657,418.973,93.23,420.63,99.432,418.074z"/>
			</g>
			<g>
				<path style="fill:#FBB901;" d="M104.188,422.753c0,0-0.887-8.914,0.98-14.142C105.168,408.611,106.196,416.358,104.188,422.753z
					"/>
			</g>
			<g>
				<path style="fill:#FBB901;" d="M104.188,422.753c0,0-8.262-1.179-14.237,0.648C89.951,423.401,96.58,424.946,104.188,422.753z"
					/>
			</g>
			<g>
				<path style="fill:#FBB901;" d="M109.739,428.487c0,0-1.72-8.273-0.464-13.519C109.275,414.968,111.137,422.691,109.739,428.487z
					"/>
			</g>
			<g>
				<path style="fill:#FBB901;" d="M109.739,428.487c0,0-9.24-1.035-14.747,0C94.992,428.487,102.828,430.533,109.739,428.487z"/>
			</g>
			<g>
				<path style="fill:#FBB901;" d="M114.357,433.499c0,0-1.079-6.968-0.28-12.521C114.077,420.978,115.799,427.581,114.357,433.499z
					"/>
			</g>
			<g>
				<path style="fill:#FBB901;" d="M114.357,433.499c0,0-7.976-0.97-13.391,0C100.967,433.499,107.77,435.05,114.357,433.499z"/>
			</g>
			<g>
				<path style="fill:#FBB901;" d="M118.154,437.797c0,0-0.57-5.941,0.83-12.849C118.984,424.948,119.938,432.909,118.154,437.797z"
					/>
			</g>
			<g>
				<path style="fill:#FBB901;" d="M118.154,437.797c0,0-7.012-1.061-12.333,0C105.821,437.797,113.31,439.07,118.154,437.797z"/>
			</g>
		</g>
		<g>
			<g>
				<path style="fill:#FBB901;" d="M202.127,434.526c7.957-24.032,19.276-46.655,33.643-67.238l-0.761-0.531
					c-14.418,20.657-25.777,43.359-33.763,67.478L202.127,434.526z"/>
			</g>
			<g>
				<path style="fill:#FBB901;" d="M233.75,368.981c0,0,2.185-7.02,13.655-13.398C247.405,355.583,241.931,363.553,233.75,368.981z"
					/>
			</g>
			<g>
				<path style="fill:#FBB901;" d="M232.143,371.789c0,0,7.108-1.46,12.184-0.015C244.327,371.774,237.245,374.087,232.143,371.789z
					"/>
			</g>
			<g>
				<path style="fill:#FBB901;" d="M232.143,371.789c0,0-0.533-6.375-3.425-13.254C228.718,358.535,228.153,365.375,232.143,371.789
					z"/>
			</g>
			<g>
				<path style="fill:#FBB901;" d="M227.431,379.141c0,0,6.717-3.146,14.107-1.959C241.538,377.182,233.952,380.46,227.431,379.141z
					"/>
			</g>
			<g>
				<path style="fill:#FBB901;" d="M227.233,379.219c0,0-1.52-7.999-3.86-13.572C223.373,365.647,222.801,372.148,227.233,379.219z"
					/>
			</g>
			<g>
				<path style="fill:#FBB901;" d="M224.361,384.243c0,0,10.307-2.47,16.361-1.254C240.722,382.989,232.09,385.309,224.361,384.243z
					"/>
			</g>
			<g>
				<path style="fill:#FBB901;" d="M224.361,384.243c0,0-1.537-7.47-5.315-13.456C219.046,370.787,220.361,377.888,224.361,384.243z
					"/>
			</g>
			<g>
				<path style="fill:#FBB901;" d="M221.451,389.341c0,0-2.281-7.312-5.706-11.824C215.745,377.517,216.658,383.493,221.451,389.341
					z"/>
			</g>
			<g>
				<path style="fill:#FBB901;" d="M221.451,389.341c0,0,5.881-2.09,12.216-0.603C233.668,388.738,226.231,390.504,221.451,389.341z
					"/>
			</g>
			<g>
				<path style="fill:#FBB901;" d="M218.548,394.71c0,0-1.955-6.732-6.241-11.346C212.306,383.364,213.547,389.177,218.548,394.71z"
					/>
			</g>
			<g>
				<path style="fill:#FBB901;" d="M218.548,394.71c0,0,7.102-2.067,12.397-0.466C230.945,394.244,224.897,396.307,218.548,394.71z"
					/>
			</g>
			<g>
				<path style="fill:#FBB901;" d="M215.323,401.049c0,0-1.493-5.414-5.932-12.371C209.39,388.678,211.619,396.919,215.323,401.049z
					"/>
			</g>
			<g>
				<path style="fill:#FBB901;" d="M215.323,401.049c0,0,5.565-1.75,12.318-2.473C227.641,398.576,220.943,401.368,215.323,401.049z
					"/>
			</g>
			<g>
				<path style="fill:#FBB901;" d="M212.133,407.776c0,0-1.089-6.419-4.903-12.414C207.23,395.362,208.606,404.539,212.133,407.776z
					"/>
			</g>
			<g>
				<path style="fill:#FBB901;" d="M212.133,407.776c0,0,6.11-3.59,11.52-3.703C223.653,404.072,218.013,407.862,212.133,407.776z"
					/>
			</g>
			<g>
				<path style="fill:#FBB901;" d="M209.763,413.121c0,0-2.147-7.553-5.353-11.214C204.41,401.907,206.066,408.554,209.763,413.121z
					"/>
			</g>
			<g>
				<path style="fill:#FBB901;" d="M209.763,413.121c0,0,6.356-3.622,11.816-4.056C221.578,409.065,216.671,412.459,209.763,413.121
					z"/>
			</g>
			<g>
				<path style="fill:#FBB901;" d="M207.083,419.584c0,0-1.262-7.299-3.975-11.171C203.108,408.413,204.078,415.308,207.083,419.584
					z"/>
			</g>
			<g>
				<path style="fill:#FBB901;" d="M207.083,419.584c0,0,7.2-3.819,12.023-4.749C219.106,414.835,213.376,419.026,207.083,419.584z"
					/>
			</g>
			<g>
				<path style="fill:#FBB901;" d="M204.933,425.157c0,0-1.364-6.028-3.804-10.298C201.129,414.859,201.852,420.796,204.933,425.157
					z"/>
			</g>
			<g>
				<path style="fill:#FBB901;" d="M204.933,425.157c0,0,6.19-3.36,10.917-4.312C215.849,420.845,210.802,424.3,204.933,425.157z"/>
			</g>
			<g>
				<path style="fill:#FBB901;" d="M203.221,429.883c0,0-1.448-5.027-4.814-10.208C198.407,419.675,200.193,426.473,203.221,429.883
					z"/>
			</g>
			<g>
				<path style="fill:#FBB901;" d="M203.221,429.883c0,0,5.375-3.122,10.054-3.971C213.276,425.912,207.58,429.361,203.221,429.883z
					"/>
			</g>
		</g>
		<g>
			<path style="fill:#EDF2F7;" d="M384.535,319.353c0,0,5.928,11.882,22.94,17.114l-18.434,42.039c0,0-23.835-11.086-35.914-24.23
				l17.725-40.923L384.535,319.353z"/>
			<path style="fill:#B4C3D0;" d="M367.539,358.115l-0.891,2.032c0,0-0.929,2.006-2.629,1.383c-1.7-0.623-10.891-7.254-10.891-7.254
				l5.507-1.19c0,0,4.25,1.757,4.59,1.984C363.565,355.296,367.539,358.115,367.539,358.115z"/>
			<path style="fill:#FFFFFF;" d="M385.214,317.805c0.726-1.655,0.048-3.599-1.561-4.422c-12.622-6.457-32.984-7.396-32.984-7.396
				l-20.482,46.71c0,0,39.373,0.852,36.461,7.448L385.214,317.805z"/>
			
				<line style="fill:none;stroke:#2D373C;stroke-width:3;stroke-linecap:round;stroke-miterlimit:10;" x1="295.258" y1="432.355" x2="353.127" y2="300.383"/>
		</g>
		<g>
			<path style="fill:#119596;" d="M232.592,329.076c0,0-2.21,13.773-1.53,20.403c0.68,6.63-3.23,7.65-3.23,7.65
				s-11.221-22.043-11.731-35.928l11.731-3.004L232.592,329.076z"/>
			<g>
				<path style="fill:#263238;" d="M226.876,318.197c0.002,1.272-0.005,2.53,0.044,3.783c0.058,1.253,0.128,2.501,0.265,3.744
					c0.12,1.244,0.307,2.48,0.506,3.719c0.207,1.237,0.471,2.467,0.728,3.713c-0.553-1.148-0.963-2.358-1.292-3.59
					c-0.337-1.231-0.549-2.495-0.688-3.764c-0.122-1.271-0.173-2.551-0.094-3.825C226.416,320.702,226.571,319.434,226.876,318.197z
					"/>
			</g>
			<g>
				<path style="fill:#263238;" d="M225.671,318.771c-0.616,1.301-1.208,2.534-1.68,3.83c-0.491,1.29-0.851,2.609-1.239,3.995
					c-0.206-1.432,0.04-2.901,0.536-4.257C223.803,320.99,224.579,319.72,225.671,318.771z"/>
			</g>
			<path style="fill:#15B7B9;" d="M216.271,323.127c0,0-2.89,15.131-2.72,20.911c0.17,5.78,1.36,9.691-3.06,13.091
				c0,0-14.621-26.692-16.151-41.823c0,0,6.631-3.71,15.131-5.935L216.271,323.127z"/>
			<path style="fill:#3E2723;" d="M274.397,106.023c0,0,4.665,3.655,2.588,10.849l-1.845,3.517c0,0-5.036-0.935-5.376-2.72
				c-0.34-1.785-1.19-7.597-1.36-8.601c-0.17-1.005,3.04-3.045,3.04-3.045H274.397z"/>
			<path style="fill:#0C7F80;" d="M275.859,229.785c0,0-44.161,10.886-41.673,34.461c0,0-25.133-10.375-42.379-1.674l-4.324-33.902
				l20.855-24.042l25.848-5.667l43.743-3.854v15.868L275.859,229.785z"/>
			<path style="fill:#FFC7C7;" d="M350.465,87.212c0,0-1.898,3.574-4.759,8.709c0,0-0.01,0.029-0.039,0.077
				c-5.742,10.318-15.299,26.86-21.041,33.363c-8.613,9.759-35.135,29.701-35.135,29.701s-4.653,26.166-15.183,47.833
				c-1.985,4.085-4.171,8.006-6.58,11.561c0,0-23.854-1.223-40.732-6.715c-2.389-0.771-4.634-1.628-6.647-2.582
				c0,0,8.844-30.376,3.632-41.474c-5.212-11.108-34.461-24.085-34.461-24.085s-10.328-3.748-13.593-15.829
				c-1.965-7.274-3.594-17.447-4.634-24.933c-0.8-5.79-1.262-9.961-1.262-9.961s5.212-2.727,9.297-1.137
				c0,0,0.385,3.777,2.062,9.056c4.191,13.247,16.464,35.983,50.973,32.659l13.382-1.079l17.447-1.416l16.021,3.834
				c0,0,16.85,0.241,35.665-20.607c9.143-10.154,16.358-18.073,21.358-23.546c5.27-5.771,8.073-8.805,8.073-8.805
				S348.422,82.443,350.465,87.212z"/>
			<path style="fill:#D1F3FF;" d="M300.786,126.589c-12.383,8.326-21.574,8.205-21.574,8.205l-4.933-1.18
				c0.204,13.083-7.911,20.465-7.911,20.465c-3.299-3.167-6.299-8.645-8.23-12.669c-1.476-3.076-2.155-6.469-1.998-9.878l0,0
				l-10.397,0.844l-13.382,1.079c-3.1,0.299-6.014,0.379-8.766,0.283l-5.965,9.86c0,0-3.161,4.964-7.211,11.347
				c6.049,3.966,11.566,8.489,13.56,12.74c5.212,11.098-3.632,41.474-3.632,41.474c2.014,0.954,4.258,1.811,6.647,2.582
				c16.879,5.491,40.732,6.715,40.732,6.715c2.409-3.555,4.595-7.476,6.58-11.561c10.53-21.667,15.183-47.833,15.183-47.833
				s18.853-14.176,29.93-24.473L300.786,126.589z"/>
			<path style="fill:#C2E2ED;" d="M267.73,218.452c2.408-3.554,4.594-7.474,6.578-11.557c2.547-5.24,4.747-10.742,6.623-16.075
				l-5.45,4.288C275.481,195.109,267.848,209.668,267.73,218.452z"/>
			<path style="fill:#C2E2ED;" d="M245.744,145.716c0,0-10.658,4.283-12.018,4.43c-1.36,0.147-4.307,16.401-5.894,17.761
				c-0.354,0.303-1.283,2.107-2.515,4.723c1.81,13.245-4.968,36.529-4.968,36.529c2.014,0.954,4.258,1.811,6.647,2.582
				c2.19,0.713,4.499,1.352,6.856,1.927c0.461-1.383,1.089-2.727,1.914-4.025C249.594,187.909,245.744,145.716,245.744,145.716z"/>
			<g>
				<path style="fill:#263238;" d="M274.288,134.673c0.592,1.671,1.009,3.4,1.315,5.15c0.314,1.749,0.472,3.526,0.529,5.303
					c0.039,1.778-0.023,3.56-0.243,5.324c-0.212,1.764-0.536,3.513-1.039,5.213c0.197-1.76,0.374-3.51,0.464-5.262
					c0.082-1.753,0.124-3.504,0.068-5.254c-0.038-1.751-0.173-3.498-0.348-5.243C274.85,138.157,274.58,136.419,274.288,134.673z"/>
			</g>
			<g>
				<path style="fill:#263238;" d="M254.311,132.063c-0.213,2.037-0.299,4.072-0.205,6.096c0.103,2.023,0.34,4.035,0.763,6.011
					c0.406,1.98,0.995,3.918,1.713,5.812c0.725,1.892,1.621,3.721,2.632,5.503c-1.271-1.61-2.314-3.401-3.165-5.28
					c-0.858-1.877-1.483-3.86-1.914-5.881c-0.414-2.025-0.638-4.092-0.604-6.155C253.556,136.107,253.793,134.048,254.311,132.063z"
					/>
			</g>
			<g>
				<path style="fill:#263238;" d="M252.314,131.833c-0.229,1.422-0.475,2.828-0.672,4.24c-0.188,1.413-0.374,2.822-0.499,4.239
					c-0.143,1.415-0.226,2.834-0.306,4.257c-0.072,1.424-0.095,2.851-0.139,4.29c-0.267-1.416-0.39-2.855-0.438-4.295
					c-0.056-1.442,0.009-2.886,0.137-4.323c0.146-1.435,0.354-2.866,0.68-4.271C251.394,134.564,251.785,133.174,252.314,131.833z"
					/>
			</g>
			<path style="fill:#F2AFAF;" d="M279.062,119.853c0,1.756-1.423,3.179-3.179,3.179c-1.756,0-3.179-1.423-3.179-3.179
				c0-1.756,1.423-3.179,3.179-3.179C277.639,116.674,279.062,118.097,279.062,119.853z"/>
			<path style="fill:#FFC7C7;" d="M256.026,128.462l0.114,3.071c0,0,4.727,8.965,8.781,8.814c4.054-0.151,4.555-7.882,4.555-7.882
				L256.026,128.462z"/>
			<path style="fill:#FFC7C7;" d="M256.026,128.462l0.114,3.071c0,0,4.727,8.965,8.781,8.814c4.054-0.151,4.555-7.882,4.555-7.882
				L256.026,128.462z"/>
			<path style="fill:#FFC7C7;" d="M275.474,112.907c0,0,1.332,11.292,1.509,15.554c0.178,4.262-12.965,13.853-20.957,0
				c0,0-5.15-0.242-5.328-5.626c-0.177-5.385,3.723-4.273,3.723-4.273l-1.208-6.469c0,0,2.527-8.05,10.36-8.065
				C275.296,104.004,275.474,112.907,275.474,112.907z"/>
			<path style="fill:#264E86;" d="M220.352,209.163c0,0-2.806,21.047,17.681,42.39c22.52,23.46,25.502,30.262,25.502,30.262
				l-54.064,27.557c0,0,1.7,10.034,6.8,13.756l11.561-4.93c0,0,1.7,7.816,4.76,10.879l63.584-22.629c0,0,16.321-5.59,9.181-26.332
				c-7.14-20.741-37.627-61.657-37.627-61.657L220.352,209.163z"/>
			<path style="opacity:0.5;fill:#264E86;" d="M234.528,211.944l-14.176-2.781c0,0-2.806,21.047,17.681,42.39
				c22.52,23.46,25.502,30.262,25.502,30.262C262.112,266.605,224.672,233.754,234.528,211.944z"/>
			<g>
				<path style="fill:#FFFFFF;" d="M227.832,318.197l32.774-12.352c5.445-2.1,10.904-4.164,16.317-6.336
					c2.704-1.088,5.413-2.177,8.061-3.369c0.67-0.286,1.328-0.589,1.967-0.916c0.649-0.314,1.306-0.622,1.867-1.026
					c1.212-0.705,2.169-1.751,2.864-2.92c0.717-1.172,1.028-2.561,1.078-3.949c0.052-1.394-0.158-2.807-0.538-4.174
					c-0.19-0.684-0.419-1.359-0.692-2.015c-0.134-0.328-0.28-0.654-0.435-0.967c-0.131-0.273-0.373-0.606-0.554-0.906l-2.344-3.695
					l-9.355-14.795l-9.298-14.835l-2.307-3.721c-0.747-1.243-1.611-2.45-2.158-3.832c-1.143-2.736-1.102-5.872-0.098-8.609
					c-0.901,2.774-0.835,5.861,0.342,8.506c0.564,1.329,1.444,2.496,2.231,3.729l2.402,3.661l9.539,14.694l9.482,14.733l2.365,3.687
					c0.196,0.324,0.397,0.577,0.589,0.959c0.171,0.34,0.325,0.68,0.469,1.026c0.292,0.69,0.536,1.398,0.74,2.119
					c0.408,1.44,0.645,2.946,0.596,4.469c-0.046,1.513-0.381,3.076-1.188,4.408c-0.788,1.321-1.887,2.485-3.203,3.246
					c-0.633,0.444-1.303,0.751-1.968,1.07c-0.663,0.333-1.332,0.637-2.006,0.921c-2.681,1.19-5.397,2.265-8.114,3.342
					c-5.44,2.134-10.894,4.22-16.384,6.209C249.906,310.572,238.898,314.47,227.832,318.197z"/>
			</g>
			<path style="fill:#FFC7C7;" d="M169.953,92.875l-4.515-7.764v-7.821l7.859-2.805l1.087-1.19l3.022-0.489l0.992,0.829l3.344-0.255
				l0.752,2.38l3.261,4.08v2.465c0,0-6.299,5.61-6.661,9.436L169.953,92.875z"/>
			<g>
				<path style="fill:#263238;" d="M165.438,77.291c0.785,1.135,1.555,2.279,2.287,3.446l0.277,0.436
					c0.078,0.12,0.176,0.223,0.289,0.306c0.225,0.168,0.508,0.247,0.778,0.222c0.234-0.026,0.624-0.156,0.941-0.232l0.998-0.265
					l0.242-0.065l0.139,0.222l0.607,0.97l-0.355-0.171l1.832-0.244c0.295-0.026,0.432-0.093,0.591-0.251
					c0.069-0.076,0.122-0.165,0.155-0.263l0.137-0.434l0.078-0.246l0.251-0.011l2.119-0.089c0.256-0.031,0.502-0.181,0.642-0.408
					c0.163-0.217,0.156-0.491,0.167-0.881l0.01-0.361l0.332,0.09l2.444,0.663l0.102,0.028l0.031,0.089
					c0.297,0.87,0.864,1.686,1.61,2.296c-0.422-0.238-0.81-0.551-1.131-0.925c-0.328-0.372-0.607-0.775-0.829-1.242l0.132,0.117
					l-2.486-0.484l0.341-0.271c0.003,0.192,0.02,0.33,0.012,0.566c-0.016,0.223-0.082,0.444-0.193,0.641
					c-0.223,0.394-0.635,0.676-1.088,0.749l-1.104,0.086l-1.074,0.065l0.329-0.257l-0.136,0.448
					c-0.062,0.195-0.167,0.377-0.304,0.531c-0.251,0.31-0.728,0.489-1.047,0.497l-1.834,0.221l-0.237,0.029l-0.118-0.2l-0.583-0.985
					l0.381,0.157l-1.007,0.228c-0.356,0.065-0.62,0.177-1.074,0.201c-0.418,0.006-0.83-0.146-1.138-0.414
					c-0.155-0.133-0.285-0.294-0.382-0.47l-0.245-0.455C166.667,79.761,166.045,78.531,165.438,77.291z"/>
			</g>
			<g>
				<path style="fill:#263238;" d="M177.891,79.331c-0.609-0.046-1.246-0.258-1.733-0.734c-0.25-0.231-0.422-0.555-0.514-0.893
					c-0.109-0.342-0.079-0.695-0.042-1.033l0.028-0.254l0.306-0.021c1.101-0.074,2.234-0.264,3.268-0.628
					c0.262-0.096,0.499-0.206,0.76-0.329c0.277-0.138,0.572-0.253,0.885-0.309c0.615-0.131,1.362,0.088,1.645,0.63
					c-0.454-0.402-1.048-0.385-1.531-0.199c-0.246,0.1-0.482,0.229-0.707,0.379c-0.242,0.164-0.518,0.325-0.794,0.447
					c-0.554,0.26-1.141,0.418-1.729,0.538c-0.595,0.097-1.179,0.171-1.796,0.153l0.334-0.274c-0.118,0.519-0.083,1.049,0.237,1.494
					C176.823,78.741,177.328,79.094,177.891,79.331z"/>
			</g>
			<g>
				<path style="fill:#263238;" d="M171.091,81.541c-0.55-0.87-0.881-1.802-1.158-2.748c-0.256-0.953-0.456-1.921-0.437-2.95
					c0.551,0.87,0.882,1.801,1.158,2.748C170.909,79.544,171.109,80.512,171.091,81.541z"/>
			</g>
			<g>
				<path style="fill:#263238;" d="M174.704,81.074c-0.523-1.036-0.824-2.12-1.07-3.216c-0.224-1.1-0.392-2.212-0.337-3.372
					c0.525,1.036,0.825,2.12,1.07,3.216C174.589,78.802,174.758,79.914,174.704,81.074z"/>
			</g>
			<g>
				<path style="fill:#263238;" d="M178.397,73.636c0.261,0.489,0.296,0.961,0.275,1.43c-0.043,0.467-0.144,0.93-0.473,1.377
					c-0.263-0.489-0.298-0.961-0.275-1.43C177.969,74.546,178.07,74.083,178.397,73.636z"/>
			</g>
			<g>
				<path style="fill:none;" d="M355.426,75.293"/>
			</g>
			<path style="fill:#FFC7C7;" d="M344.305,81.836L343.78,65.9l6.687-0.453l2.097,1.303v0.623l3.91,0.51c0,0,1.36,0.737,1.303,0.963
				c-0.057,0.227,0.002,1.53,0.002,1.53l1.812,0.85c0,0,0.963,3.457-1.644,5.384c0,0-0.34,6.517-7.48,10.597L344.305,81.836z"/>
			<g>
				<path style="fill:#263238;" d="M345.707,70.207c0.319,0.593,0.754,1.122,1.273,1.422c0.518,0.309,1.109,0.28,1.655,0.049
					c0.535-0.217,1.099-0.632,1.682-0.959c0.575-0.346,1.161-0.672,1.756-0.986l-0.136,0.21c0.163-0.863,0.372-1.719,0.628-2.569
					c0.029,0.888,0.012,1.769-0.052,2.644l-0.009,0.12l-0.127,0.09c-0.55,0.386-1.107,0.761-1.676,1.115
					c-0.571,0.35-1.106,0.733-1.822,1.002c-0.348,0.124-0.742,0.18-1.13,0.137c-0.383-0.061-0.765-0.201-1.048-0.451
					C346.123,71.547,345.822,70.873,345.707,70.207z"/>
			</g>
			<g>
				<path style="fill:#263238;" d="M350.467,77.234c0.016-0.398,0.091-0.786,0.188-1.179c0.049-0.197,0.121-0.389,0.219-0.583
					c0.081-0.187,0.279-0.415,0.476-0.518c0.374-0.226,0.742-0.369,1.12-0.504c0.376-0.137,0.752-0.251,1.141-0.35l0.449-0.114
					l0.005,0.482c0.001,0.154,0.038,0.354,0.092,0.503c0.052,0.156,0.131,0.275,0.226,0.34c0.096,0.066,0.222,0.097,0.388,0.092
					c0.164-0.005,0.348-0.054,0.532-0.114l0.395-0.129l0.053,0.389c0.026,0.19,0.093,0.439,0.208,0.619
					c0.117,0.185,0.274,0.337,0.481,0.434c0.209,0.09,0.458,0.124,0.717,0.126c0.26-0.013,0.522-0.064,0.792-0.117
					c-0.231,0.147-0.481,0.268-0.754,0.351c-0.274,0.068-0.576,0.123-0.886,0.045c-0.308-0.072-0.601-0.259-0.801-0.51
					c-0.203-0.257-0.337-0.524-0.405-0.864l0.448,0.26c-0.222,0.094-0.453,0.181-0.723,0.214c-0.265,0.038-0.589-0.015-0.855-0.189
					c-0.268-0.176-0.431-0.445-0.522-0.695c-0.088-0.261-0.122-0.495-0.12-0.776l0.453,0.368l-1.113,0.279
					c-0.364,0.103-0.742,0.202-1.059,0.339c-0.275,0.087-0.461,0.413-0.651,0.745C350.772,76.51,350.628,76.873,350.467,77.234z"/>
			</g>
			<g>
				<path style="fill:#263238;" d="M352.224,69.98c0.702-0.638,1.531-1.192,2.549-1.376c0.501-0.093,1.093-0.036,1.582,0.279
					c0.474,0.329,0.798,0.806,0.934,1.342c0.137,0.536,0.084,1.131-0.146,1.616c-0.238,0.477-0.56,0.88-0.929,1.213
					c-0.741,0.659-1.607,1.115-2.516,1.404c0.777-0.547,1.496-1.153,2.1-1.815c0.582-0.671,1.002-1.477,0.767-2.224
					c-0.198-0.799-0.85-1.31-1.727-1.234C353.976,69.242,353.079,69.581,352.224,69.98z"/>
			</g>
			<g>
				<path style="fill:#263238;" d="M346.197,71.176c0.167-0.572,0.491-0.98,0.854-1.349c0.379-0.352,0.798-0.664,1.376-0.81
					c-0.165,0.573-0.49,0.981-0.854,1.349C347.192,70.717,346.774,71.028,346.197,71.176z"/>
			</g>
			<path style="fill:#3E2723;" d="M253.923,121.835l1.22,3.426l-0.17-9.292l-1.76-3.876l20.567-3.826c0,0,4.342-7.472-2.459-15.391
				c0,0,3.06,8.742-1.587,8.289c-4.647-0.453-12.128-4.647-18.985,2.38c0,0-11.322,6.02,0.465,21.717
				C251.216,125.261,251.539,116.674,253.923,121.835z"/>
			<path style="fill:#15B7B9;" d="M245.743,132.376c-0.019,0.915,1.583,39.838-8.164,62.279c-1.65,3.799-5.42,10.612-10.584,17.086
				c-11.147,13.94-24.865,34.056-19.904,58.854c0,0-41.484-17.361-41.657-40.81c0,0,28.112-22.438,40.154-43.179
				c12.042-20.742-11.079-35.521-12.437-36.455c-1.358-0.944-17.784-6.32-19.152-22.38c-1.368-16.06-2.909-24.807-2.909-24.807
				s0.067-0.048,0.202-0.125c0.809-0.482,4.075-2.148,10.096-2.042c4.191,13.247,16.464,35.983,50.973,32.659L245.743,132.376z"/>
			<path style="fill:#15B7B9;" d="M345.706,95.921c0,0-0.01,0.029-0.039,0.077c-0.713,1.667-12.332,28.334-19.904,37.178
				c-7.823,9.143-33.324,28.95-33.324,28.95c-1.358,35.366-16.58,67.659-16.58,67.659s-1.831-11.185-1.551-22.89
				c0.135-5.963,0.819-12.071,2.563-16.888c5.183-14.277,2.341-55.212,2.341-55.212s16.85,0.241,35.665-20.607
				c9.143-10.154,16.358-18.073,21.358-23.546C344,91.914,345.706,95.921,345.706,95.921z"/>
			<g>
				<path style="fill:#263238;" d="M292.436,146.175c0.273,2.279,0.398,4.565,0.487,6.852c0.098,2.288,0.098,4.577,0.055,6.867
					c-0.068,2.289-0.155,4.579-0.395,6.861c-0.229,2.281-0.516,4.563-1.048,6.796c0.04-1.149,0.137-2.284,0.155-3.427
					c0.061-1.138,0.101-2.278,0.126-3.417l0.163-6.836l0.178-6.842l0.108-3.425C292.332,148.462,292.358,147.32,292.436,146.175z"/>
			</g>
			<g>
				<path style="fill:#263238;" d="M193.32,146.175c2.106,1.571,4.008,3.398,5.808,5.317c1.795,1.925,3.451,3.989,4.903,6.198
					c1.42,2.226,2.708,4.559,3.596,7.062c0.226,0.622,0.384,1.271,0.578,1.902c0.209,0.628,0.333,1.28,0.439,1.934
					c0.267,1.297,0.28,2.629,0.296,3.934c-0.242-1.297-0.35-2.589-0.774-3.827c-0.155-0.628-0.313-1.254-0.564-1.854
					c-0.233-0.604-0.428-1.219-0.691-1.809c-1.031-2.37-2.306-4.624-3.715-6.794c-1.402-2.178-3.008-4.221-4.644-6.242
					c-0.816-1.014-1.676-1.993-2.558-2.953C195.139,148.057,194.232,147.118,193.32,146.175z"/>
			</g>
			<g>
				<path style="fill:#263238;" d="M355.426,75.591c0.648-0.795,1.11-1.591,1.48-2.449c0.177-0.431,0.336-0.872,0.469-1.332
					l0.405-1.432c0.142,0.494,0.217,1.015,0.171,1.533c-0.022,0.522-0.167,1.033-0.355,1.524
					C357.174,74.386,356.434,75.274,355.426,75.591z"/>
			</g>
			<path style="fill:#3E2723;" d="M263.839,119.28c0,0.843-0.684,1.527-1.527,1.527c-0.844,0-1.527-0.684-1.527-1.527
				c0-0.843,0.684-1.527,1.527-1.527C263.155,117.752,263.839,118.436,263.839,119.28z"/>
			<path style="fill:#263238;" d="M263.35,126.696l9.059-1.684c0,0,1.126,4.258-3.667,5.232
				C263.949,131.219,263.35,126.696,263.35,126.696z"/>
			<g>
				<path style="fill:#3E2723;" d="M258.093,117.674c-0.081-0.494,0.055-1.036,0.344-1.473c0.28-0.447,0.697-0.8,1.172-1.039
					c0.957-0.456,2.075-0.429,2.958,0.027c-0.983,0.133-1.862,0.266-2.631,0.647C259.178,116.213,258.527,116.788,258.093,117.674z"
					/>
			</g>
			<g>
				<path style="fill:#3E2723;" d="M268.979,114.501c0.494-0.828,1.523-1.286,2.519-1.24c0.996,0.049,1.977,0.605,2.387,1.479
					c-0.834-0.439-1.613-0.691-2.423-0.73C270.651,113.967,269.851,114.143,268.979,114.501z"/>
			</g>
			<path style="fill:#FFC7C7;" d="M267.776,122.527c0.268,0.407,0.585,0.768,0.957,1.041c0.457,0.335,1.142,0.52,1.665,0.222
				c0.449-0.255,0.728-0.885,0.455-1.36c-0.28-0.486-0.925-0.57-1.463-0.728c-1.55-0.454-2.697-2.025-2.658-3.64
				c-0.018,0.741-0.135,1.27,0.044,2.026C266.965,120.883,267.287,121.782,267.776,122.527z"/>
			<path style="fill:#3E2723;" d="M272.53,117.898c0,0.843-0.684,1.527-1.527,1.527c-0.843,0-1.527-0.684-1.527-1.527
				c0-0.844,0.684-1.527,1.527-1.527C271.846,116.371,272.53,117.054,272.53,117.898z"/>
			<g>
				<path style="fill:#263238;" d="M200.793,197.343c3.555,0.73,6.868,2.603,9.551,5.09c2.67,2.501,4.77,5.676,5.745,9.172
					c-1.709-3.183-3.836-6.039-6.426-8.441C207.086,200.747,204.088,198.823,200.793,197.343z"/>
			</g>
			<g>
				<path style="fill:#263238;" d="M199.236,200.969c1.29,1.227,2.327,2.624,3.303,4.061c0.95,1.454,1.839,2.949,2.471,4.614
					c-1.292-1.226-2.328-2.623-3.303-4.061C200.759,204.128,199.87,202.633,199.236,200.969z"/>
			</g>
			<g>
				<path style="fill:#263238;" d="M208.775,310.927c0.002,1.272-0.006,2.53,0.044,3.783c0.058,1.253,0.128,2.501,0.265,3.744
					c0.12,1.244,0.307,2.48,0.506,3.719c0.207,1.237,0.471,2.467,0.728,3.713c-0.553-1.148-0.963-2.358-1.292-3.59
					c-0.337-1.231-0.549-2.495-0.688-3.764c-0.122-1.271-0.173-2.551-0.094-3.825C208.315,313.433,208.469,312.164,208.775,310.927z
					"/>
			</g>
			<g>
				<path style="fill:#263238;" d="M207.57,311.502c-0.616,1.301-1.208,2.534-1.68,3.83c-0.491,1.29-0.851,2.609-1.239,3.995
					c-0.206-1.432,0.04-2.901,0.536-4.257C205.701,313.721,206.478,312.45,207.57,311.502z"/>
			</g>
			<path style="fill:#FF5252;" d="M271.848,128.401c-1.144-0.799-2.52-1.517-4.056-2.075c-0.293-0.106-0.585-0.203-0.875-0.293
				l-3.567,0.663c0,0,0.599,4.523,5.392,3.548C270.375,129.912,271.311,129.197,271.848,128.401z"/>
			<path style="fill:#FFFFFF;" d="M272.521,126.12c0.006-0.648-0.112-1.109-0.112-1.109l-9.059,1.684c0,0,0.076,0.535,0.362,1.195
				L272.521,126.12z"/>
		</g>
		<g>
			<path style="fill:#5E2040;" d="M101.207,454.107c1.005,0.893,2.165,1.668,3.48,1.947c1.315,0.279,2.806-0.013,3.73-0.989
				c1.465-1.548,1.01-4.109-0.048-5.96c-1.057-1.851-2.618-3.442-3.267-5.472c-0.792-2.481-0.232-5.564-2.091-7.387
				c-1.063-1.042-2.793-1.329-4.135-0.687c-2.878,1.376-2.969,6.432-2.607,9.11C96.754,448.257,98.492,451.694,101.207,454.107z"/>
			<path style="fill:#5E2040;" d="M101.862,444.742c19.171-16.906,46.41-24.277,71.484-19.252l-15.296,18.318
				c-17.862-3.78-36.84-2.077-53.755,4.786c-1.197,0.486-2.561-0.074-3.037-1.276l0,0
				C100.901,446.418,101.136,445.382,101.862,444.742z"/>
			<path style="fill:#7B2A53;" d="M406.052,451.623c4.322-1.859,7.68-6.295,7.387-10.991c-0.087-1.404-0.504-2.821-1.389-3.914
				c-0.885-1.094-2.281-1.82-3.682-1.695c-2.191,0.194-3.695,2.235-4.813,4.129c-1.119,1.894-2.377,4.014-4.503,4.577
				c-1.838,0.487-3.831-0.36-5.672,0.117c-1.467,0.38-2.665,1.651-2.958,3.138C388.957,454.421,402.281,453.245,406.052,451.623z"/>
			<path style="opacity:0.5;fill:#7B2A53;" d="M393.27,447.871c0.302,0.779,1.056,1.312,1.854,1.556
				c0.799,0.244,1.649,0.243,2.484,0.239c2.136-0.01,4.313-0.026,6.344-0.686s3.933-2.079,4.622-4.101
				c0.349-1.023,0.358-2.192-0.14-3.151c-0.498-0.959-1.551-1.651-2.628-1.565c-2.78,0.222-3.314,4.036-6.162,4.265
				c-1.494,0.12-3.002-0.502-4.462,0.067C393.911,444.991,392.72,446.453,393.27,447.871z"/>
			<path style="fill:#7B2A53;" d="M98.317,406.622c0.135,2.259,0.815,4.341,2.393,5.66c3.526,2.947,7.202-0.865,8.631-3.996
				c1.062-2.327,1.584-4.867,2.602-7.213c1.54-3.549,6.237-9.96-0.853-10.597c-5.188-0.465-9.202,2.725-11.16,7.347
				C98.975,400.079,98.132,403.518,98.317,406.622z"/>
			<path style="opacity:0.3;fill:#7B2A53;" d="M110.637,399.843c0.514-1.13,1.028-2.454,0.47-3.563
				c-0.477-0.948-1.646-1.401-2.7-1.281c-1.054,0.12-1.999,0.711-2.801,1.405c-2.388,2.068-3.803,5.215-3.763,8.373
				c0.022,1.803,0.703,3.839,2.38,4.503c2.048,0.811,4.152-0.955,4.402-2.96c0.107-0.861,0.069-1.704,0.31-2.55
				C109.318,402.415,110.055,401.122,110.637,399.843z"/>
			<path style="fill:#7B2A53;" d="M341.04,394.982c0.857,1.755,1.804,3.515,2.101,5.503c0.316,2.113-0.118,4.4,0.646,6.353
				c0.821,2.1,2.952,3.271,4.928,3.04c1.976-0.231,3.746-1.679,4.904-3.554c1.157-1.874,1.761-4.14,2.097-6.413
				c0.674-4.56,0.236-9.586-2.224-13.224C347.779,378.239,335.801,384.247,341.04,394.982z"/>
			<path style="opacity:0.5;fill:#7B2A53;" d="M344.666,388.799c1.178-0.275,2.448,0.007,3.478,0.641
				c1.554,0.957,2.553,2.655,2.967,4.433c0.414,1.778,0.297,3.639,0.01,5.441c-0.22,1.386-0.581,2.835-1.569,3.831
				c-0.988,0.997-2.787,1.307-3.768,0.304c-0.523-0.534-0.71-1.302-0.876-2.031c-0.592-2.591-1.122-4.809-2.349-7.135
				C341.396,392.081,342.054,389.435,344.666,388.799z"/>
			<path style="fill:#7B2A53;" d="M284.602,371.964c0.533,2.341,1.683,4.488,2.82,6.602c1.198,2.227,2.396,4.453,3.593,6.679
				c0.462,0.86,0.944,1.743,1.704,2.355c1.645,1.325,4.223,0.942,5.819-0.441c1.597-1.383,2.355-3.514,2.643-5.607
				c0.748-5.432-1.432-11.18-5.594-14.751c-1.345-1.154-2.911-2.103-4.645-2.473C285.576,363.183,283.528,367.245,284.602,371.964z"
				/>
			<path style="opacity:0.5;fill:#7B2A53;" d="M290.806,369.663c1.215-0.186,2.462,0.284,3.434,1.038s1.703,1.77,2.363,2.807
				c0.998,1.567,1.889,3.314,1.844,5.171c-0.045,1.858-1.324,3.799-3.172,3.996c-2.964,0.316-4.885-3.64-6.238-5.763
				C287.508,374.513,287.118,370.226,290.806,369.663z"/>
			<path style="fill:#A1376E;" d="M150.595,386.359c-0.407,2.25-0.318,4.916,1.446,6.371c1.474,1.215,3.707,1.13,5.406,0.254
				c1.699-0.875,2.964-2.396,4.09-3.94c1.127-1.543,2.184-3.171,3.641-4.408c2.129-1.806,5.046-2.722,6.651-5.006
				c1.482-2.109,1.426-5.176-0.133-7.229c-3.411-4.492-9.064-2.603-12.673,0.203C154.688,375.976,151.574,380.942,150.595,386.359z"
				/>
			<path style="opacity:0.5;fill:#A1376E;" d="M166.465,381.238c0.85-0.802,1.77-1.773,1.681-2.939
				c-0.081-1.056-0.999-1.874-1.98-2.272c-1.4-0.568-3.014-0.502-4.43,0.026c-1.416,0.528-2.642,1.492-3.628,2.638
				c-1.894,2.2-2.935,5.115-2.863,8.017c0.018,0.703,0.103,1.421,0.417,2.049c0.483,0.967,1.681,1.687,2.711,1.026
				c0.724-0.465,0.77-1.543,1.345-2.177C161.773,385.34,164.238,383.339,166.465,381.238z"/>
			<path style="fill:#A1376E;" d="M306.295,431.088c10.584-10.512,25.092-16.977,39.986-17.819
				c14.893-0.843,30.038,3.945,41.74,13.196c6.071,4.799,11.18,10.691,16.809,15.998c1.865,1.759,1.18,4.865-1.261,5.648l0,0
				c-1.32,0.423-2.768-0.005-3.632-1.089c-8.719-10.944-20.859-19.518-34.623-21.836c-14.513-2.444-30.686,3.041-38.868,15.274
				L306.295,431.088z"/>
			<path style="opacity:0.5;fill:#A1376E;" d="M365.314,425.186c7.574,1.275,14.652,4.453,20.943,8.87
				c-5.25-7.351-13.569-12.521-22.447-14.58c-11.172-2.591-23.048-0.685-33.662,3.659c-2.508,1.026-4.962,2.208-7.27,3.633
				c-3.354,2.071-6.452,4.715-8.638,8.016l12.205,5.677C334.628,428.227,350.801,422.742,365.314,425.186z"/>
			<path style="fill:#BA3F7E;" d="M344.44,392.362c-30.064,3.859-59.317,13.957-85.349,29.486l32.147,12.176
				c13.411-17.022,33.245-28.827,54.564-32.639c2.601-0.465,4.304-2.977,3.698-5.548l0,0
				C348.959,393.548,346.772,392.062,344.44,392.362z"/>
			<path style="fill:#A1376E;" d="M290.185,373.947c-29.985,12.333-55.695,34.856-71.797,63.005l28.815,1.968
				c6.998-25.303,10.177-39.183,46.115-58.371c1.652-0.882,2.377-2.871,1.67-4.606l0,0
				C294.22,374.059,292.066,373.173,290.185,373.947z"/>
			<path style="opacity:0.5;fill:#A1376E;" d="M279.309,388.839l0.002-0.008c0,0-22.535,8.983-35.229,31.085h8.931
				C257.422,408.409,263.943,399.079,279.309,388.839z"/>
			<path style="fill:#A1376E;" d="M106.927,399.422c36.337,0.708,72.423,11.731,102.94,31.472l-32.137,11.197
				c-15.8-21.27-40.906-34.624-71.055-36.792c-2.111-0.152-3.389-2.397-2.418-4.278l0,0
				C104.772,400.025,105.807,399.4,106.927,399.422z"/>
			<path style="opacity:0.5;fill:#A1376E;" d="M106.676,405.299c30.149,2.168,55.255,15.522,71.055,36.792l14.648-5.103
				c0.192-0.398,0.303-0.635,0.303-0.635c-45.805-35.924-85.898-31.275-86.654-31.184
				C106.234,405.231,106.447,405.282,106.676,405.299z"/>
			<path style="fill:#BA3F7E;" d="M389.165,462.723c-0.727-15.157-13.798-27.322-28.079-32.453
				c-14.281-5.131-29.826-4.884-44.971-5.824c-22.394-1.391-44.527-5.497-66.848-7.775c-22.321-2.279-45.198-2.682-66.848,3.209
				c-21.074,5.734-43.949,26.855-58.826,42.844H389.165z"/>
			<path style="fill:#BA3F7E;" d="M198.43,427.397c0,0-10.311-31.096-37.524-41.007c-2.39-0.871-2.66-4.258-0.968-6.157l0,0
				c1.138-1.277,2.951-1.697,4.536-1.053c8.679,3.526,40.214,16.72,55.937,43.457L198.43,427.397z"/>
			<path style="fill:#8A2F5E;" d="M131.233,466.4c5.232-4.641,10.465-9.283,15.697-13.924c9.55-8.471,19.326-17.087,31.081-22.067
				c11.755-4.979,26.051-5.767,36.77,1.166c8.097,5.237,13.458,14.315,22.241,18.295c4.749,2.152,10.068,2.598,15.268,2.991
				c5.199,0.393,10.515,0.791,15.3,2.862c4.785,2.071,9.026,6.175,9.786,11.333L131.233,466.4z"/>
			<path style="opacity:0.5;fill:#BA3F7E;" d="M158.999,382.044c-0.162,0.644-0.182,1.313-0.055,1.937l1.035,1.856
				c0.264,0.23,0.568,0.423,0.927,0.553c17.185,6.259,27.623,20.96,32.987,30.949l0.003,0.001l10.754-1.44
				C204.651,415.901,186.309,389.544,158.999,382.044z"/>
			<path style="opacity:0.5;fill:#BA3F7E;" d="M333.444,404.538c-16.838,2.302-44.938,17.119-44.938,17.119l12.896,1.528
				l0.039-0.009c9.234-8.306,20.198-14.689,31.98-18.62L333.444,404.538z"/>
			<g>
				<path style="fill:#263238;" d="M213.464,412.77c1.543,1.337,2.875,2.873,4.103,4.489c0.604,0.816,1.178,1.659,1.683,2.546
					c0.508,0.879,0.959,1.827,1.162,2.832c-0.477-0.9-1.072-1.7-1.654-2.515l-1.792-2.414
					C215.77,416.094,214.558,414.49,213.464,412.77z"/>
			</g>
			<g>
				<path style="fill:#263238;" d="M268.747,416.414c-1.499,1.119-3.091,2.051-4.701,2.951c-1.617,0.892-3.26,1.707-4.955,2.483
					c1.378-1.278,2.986-2.23,4.593-3.14C265.311,417.827,266.974,417.012,268.747,416.414z"/>
			</g>
			<path style="fill:#8A2F5E;" d="M232.985,443.346c1.35,1.071,2.767,2.053,4.284,2.883c1.069,0.585,2.226,1.102,3.445,1.1
				c2.292-0.003,4.713-2.184,4.151-4.605c-0.365-1.574-1.841-2.596-3.203-3.465c-3.839-2.448-7.677-4.895-11.516-7.342
				c-1.43-0.912-3.682-2.1-5.149-0.599c-2.686,2.749,1.407,6.019,3.274,7.819C229.784,440.597,231.335,442.038,232.985,443.346z"/>
			<path style="fill:#8A2F5E;" d="M290.531,465.646c-6.187-3.068-11.383-8.099-14.648-14.185c-1.315-2.45-2.332-5.372-1.338-7.97
				c1.303-3.405,5.591-4.76,9.193-4.193s6.802,2.534,10.167,3.937c7.126,2.972,15.279,3.408,22.681,1.214
				c5.672-1.682,10.838-4.827,16.547-6.378c9.042-2.456,19.166-0.55,26.697,5.026c7.53,5.576,12.307,14.703,12.597,24.068
				L290.531,465.646z"/>
			<path style="fill:#8A2F5E;" d="M316.389,441.481c1.229-0.354,2.388-0.866,3.328-1.649c0.956-0.795,1.642-2.004,1.533-3.242
				c-0.169-1.906-2.146-3.215-4.051-3.394c-1.905-0.178-3.776,0.465-5.632,0.926c-4.499,1.119-9.255,1.189-13.786,0.205
				c-1.169-0.254-2.459-0.562-3.507,0.015c-1.099,0.606-1.525,2.079-1.165,3.281c1.081,3.607,6.453,4.124,9.54,4.549
				c3.009,0.414,6.07,0.452,9.088,0.112C313.202,442.119,314.85,441.924,316.389,441.481z"/>
			<g>
				<path style="fill:#BA3F7E;" d="M179.024,388.418c3.07,1.043,5.966,2.526,8.758,4.156c2.795,1.632,5.468,3.468,8.033,5.44
					c2.531,2.014,5.011,4.101,7.274,6.415c2.303,2.268,4.421,4.723,6.337,7.326c-2.522-2.033-4.917-4.148-7.388-6.173l-1.839-1.529
					l-1.863-1.497c-1.228-1.013-2.486-1.99-3.744-2.963c-2.499-1.971-5.074-3.842-7.654-5.716
					C184.338,392.025,181.72,390.201,179.024,388.418z"/>
			</g>
			<g>
				<path style="fill:#BA3F7E;" d="M326.254,398.722c-3.997,1.399-7.99,2.736-11.979,4.075c-3.981,1.36-7.969,2.681-11.918,4.104
					c-1.975,0.705-3.96,1.391-5.914,2.151c-1.98,0.698-3.914,1.503-5.878,2.244c-3.891,1.57-7.743,3.215-11.575,5.026
					c3.405-2.526,7.135-4.6,10.948-6.455c3.821-1.851,7.771-3.402,11.751-4.85c3.998-1.398,8.045-2.648,12.141-3.709
					C317.924,400.244,322.057,399.318,326.254,398.722z"/>
			</g>
			<g>
				<path style="fill:#263238;" d="M269.997,443.016c0.579,1.412,1.14,2.819,1.747,4.204c0.616,1.381,1.235,2.757,1.912,4.105
					c0.661,1.356,1.378,2.684,2.103,4.011c0.731,1.324,1.509,2.623,2.279,3.942c-1.022-1.136-1.93-2.368-2.772-3.643
					c-0.85-1.272-1.596-2.61-2.281-3.978c-0.67-1.375-1.281-2.781-1.775-4.228C270.708,445.987,270.28,444.518,269.997,443.016z"/>
			</g>
			<g>
				<path style="fill:#263238;" d="M346.306,434.618c2.707,0.155,5.392,0.763,7.951,1.707c2.563,0.943,4.98,2.267,7.222,3.829
					c2.207,1.611,4.244,3.468,5.97,5.584c1.724,2.114,3.173,4.455,4.198,6.965c-1.305-2.372-2.852-4.59-4.637-6.591
					c-1.784-2-3.771-3.818-5.966-5.349c-2.16-1.58-4.527-2.866-6.997-3.904C351.574,435.822,348.973,435.081,346.306,434.618z"/>
			</g>
			<path style="fill:#BA3F7E;" d="M246.886,418.357c0.86,0.143,1.754,0.315,2.445,0.845c0.692,0.53,1.102,1.533,0.691,2.301
				c-0.494,0.923-1.765,1-2.811,0.957c-6.108-0.254-12.215-0.508-18.323-0.762c-1.657-0.069-3.947-0.408-4.107-2.492
				c-0.106-1.375,1.006-1.747,2.174-1.883c3.978-0.462,8.25-0.188,12.229,0.109C241.764,417.625,244.335,417.933,246.886,418.357z"
				/>
			<g>
				<path style="fill:#263238;" d="M166.359,432.858c2.223-1.649,4.613-3.074,7.095-4.315c2.483-1.244,5.08-2.254,7.721-3.117
					c2.659-0.805,5.367-1.46,8.115-1.862c2.747-0.402,5.522-0.601,8.288-0.519c-2.756,0.23-5.492,0.571-8.193,1.088
					c-2.7,0.516-5.375,1.156-7.986,2.008c-2.629,0.794-5.189,1.801-7.699,2.921C171.19,430.184,168.75,431.469,166.359,432.858z"/>
			</g>
			<path style="opacity:0.3;fill:#8A2F5E;" d="M255.185,466.174c-0.331-3.821-4.531-6.171-8.354-6.473
				c-3.824-0.302-7.665,0.729-11.484,0.376c-4.457-0.413-8.534-2.679-12.16-5.303c-3.627-2.624-6.968-5.657-10.807-7.958
				c-10.104-6.054-22.977-6.404-34.14-2.644c-11.162,3.76-20.751,11.272-28.68,19.981L255.185,466.174z"/>
			<path style="opacity:0.3;fill:#8A2F5E;" d="M362.533,464.4c-1.11-5.652-4.118-10.914-8.425-14.739
				c-4.307-3.824-9.888-6.189-15.632-6.622c-3.07-0.231-6.229,0.09-9.042,1.341c-2.812,1.252-5.25,3.5-6.351,6.375
				c-1.855,4.842,0.292,10.222,2.573,14.878L362.533,464.4z"/>
		</g>
		<path style="fill:#90A4AE;" d="M479.153,472.62H33.604l0,0c0-5.466,5.722-9.897,12.782-9.897h419.986
			C473.431,462.723,479.153,467.154,479.153,472.62L479.153,472.62z"/>
	</g>
</g>
</svg>
