<?xml version="1.0" encoding="utf-8"?>
<!-- Generator: Adobe Illustrator 27.5.0, SVG Export Plug-In . SVG Version: 6.00 Build 0)  -->
<svg version="1.1" xmlns="http://www.w3.org/2000/svg" xmlns:xlink="http://www.w3.org/1999/xlink" x="0px" y="0px"
	 viewBox="0 0 2500 2500" style="enable-background:new 0 0 2500 2500;" xml:space="preserve">
<g id="Background">
	<!-- <rect style="fill:#FFFFFF;" width="2500" height="2500"/> -->
</g>
<g id="Illustration">
	<g>
		<path style="fill:#F9EFE4;" d="M2129.259,1130.635c-48.93-320.27-249.543-713.744-645.875-754.921
			c0,0-300.914-36.602-597.55,18.872C709.78,427.509,555.407,525.515,457.726,666.374
			c-97.682,140.859-130.311,312.618-90.711,476.368c25.719,106.357,43.099,216.433,38.329,325.722
			c-8.301,190.207-3.525,367.751,181.066,481.184c164.818,101.284,372.245,190.613,570.133,206.259
			c134.483,10.633,285.298-6.573,414.914-41.586C2232.011,1935.884,2178.189,1450.904,2129.259,1130.635z"/>
		<g>
			<linearGradient id="SVGID_1_" gradientUnits="userSpaceOnUse" x1="664.1965" y1="500.124" x2="2177.0242" y2="2465.77">
				<stop  offset="0" style="stop-color:#E4D6CA"/>
				<stop  offset="1" style="stop-color:#D4BDAC"/>
			</linearGradient>
			<path style="fill:url(#SVGID_1_);" d="M2151.496,808.967h-89.336c-7.255,0-13.137,6.34-13.137,13.595s5.882,13.595,13.137,13.595
				h53.052l-378.423,349.509l-238.325-218.337c-5.113-4.682-12.98-4.592-17.977,0.21l-456.281,438.396L826.083,1218.95
				c-5.177-4.886-13.304-4.76-18.328,0.287l-468.929,471.202c-5.119,5.142-5.098,13.461,0.045,18.579
				c2.563,2.552,5.914,3.826,9.267,3.826c3.373,0,6.745-1.291,9.312-3.871l459.904-462.133l197.917,186.789
				c5.092,4.809,13.066,4.774,18.119-0.081l456.414-438.526l238.146,218.167c5.034,4.614,12.495,4.599,17.514-0.037l392.344-362.636
				v56.553c0,7.255,6.34,13.138,13.595,13.138S2165,914.325,2165,907.069v-84.081C2165,815.733,2158.751,808.967,2151.496,808.967z"
				/>
			
				<linearGradient id="SVGID_00000182494790768310051770000009886511753267519914_" gradientUnits="userSpaceOnUse" x1="408.2543" y1="697.1072" x2="1921.0836" y2="2662.7551">
				<stop  offset="0" style="stop-color:#E4D6CA"/>
				<stop  offset="1" style="stop-color:#D4BDAC"/>
			</linearGradient>
			<circle style="fill:url(#SVGID_00000182494790768310051770000009886511753267519914_);" cx="822.321" cy="1235.112" r="50.729"/>
			
				<linearGradient id="SVGID_00000142148254411785716230000014752625152436231304_" gradientUnits="userSpaceOnUse" x1="447.6844" y1="666.7613" x2="1960.5137" y2="2632.4092">
				<stop  offset="0" style="stop-color:#E4D6CA"/>
				<stop  offset="1" style="stop-color:#D4BDAC"/>
			</linearGradient>
			
				<circle style="fill:url(#SVGID_00000142148254411785716230000014752625152436231304_);" cx="1024.641" cy="1416.411" r="50.729"/>
			
				<linearGradient id="SVGID_00000138548074316785810810000014837611705430887076_" gradientUnits="userSpaceOnUse" x1="948.41" y1="281.3862" x2="2461.2393" y2="2247.0342">
				<stop  offset="0" style="stop-color:#E4D6CA"/>
				<stop  offset="1" style="stop-color:#D4BDAC"/>
			</linearGradient>
			<circle style="fill:url(#SVGID_00000138548074316785810810000014837611705430887076_);" cx="1492.34" cy="988.125" r="50.729"/>
			
				<linearGradient id="SVGID_00000060750574649052604710000010683204531546840491_" gradientUnits="userSpaceOnUse" x1="1007.996" y1="235.5319" x2="2520.8252" y2="2201.1799">
				<stop  offset="0" style="stop-color:#E4D6CA"/>
				<stop  offset="1" style="stop-color:#D4BDAC"/>
			</linearGradient>
			
				<circle style="fill:url(#SVGID_00000060750574649052604710000010683204531546840491_);" cx="1739.505" cy="1185.996" r="50.729"/>
		</g>
		<g>
			<defs>
				<path id="SVGID_00000003791259724068573480000006145492221543148210_" d="M2134.202,1130.635
					c-48.93-320.27-194.801-748.476-591.133-789.653c0,0-355.656-1.87-652.292,53.604
					C714.724,427.509,560.351,525.515,462.67,666.374c-97.682,140.859-130.311,312.618-90.711,476.368
					c25.719,106.357,43.099,216.433,38.329,325.722c-8.301,190.207-3.525,367.751,181.066,481.184
					c164.818,101.284,372.245,190.613,570.133,206.259c134.483,10.633,285.298-6.573,414.914-41.586
					C2236.955,1935.884,2183.132,1450.904,2134.202,1130.635z"/>
			</defs>
			<clipPath id="SVGID_00000050637865585664025060000013528293369568156036_">
				<use xlink:href="#SVGID_00000003791259724068573480000006145492221543148210_"  style="overflow:visible;"/>
			</clipPath>
			<g style="clip-path:url(#SVGID_00000050637865585664025060000013528293369568156036_);">
				
					<linearGradient id="SVGID_00000145748433683566025080000016023325848234722446_" gradientUnits="userSpaceOnUse" x1="1649.1958" y1="1541.7836" x2="650.104" y2="2739.927">
					<stop  offset="0" style="stop-color:#E4D6CA"/>
					<stop  offset="1" style="stop-color:#D4BDAC"/>
				</linearGradient>
				<path style="fill:url(#SVGID_00000145748433683566025080000016023325848234722446_);" d="M1737.541,1566.352
					c-35.033,29.417-67.133,41.502-94.843,45.23c-118.749,15.978-172.911-118.699-296.898-96.247
					c-137.953,24.981-170.522,207.799-287.759,205.493c-75.318-1.481-89.065-76.737-174.586-97.967
					c-36.876-9.154-75.914-5.528-115.876,7.445c-292.869,388.906-456.453,556.595-385.009,637.644
					c22.052,25.018,49.626,22.194,331.256,9.488c464.182-20.942,420.471-14.476,459.906-19.354
					c406.535-50.282,456-172.116,745.97-159.396c41.807,1.833,65.205,5.483,82.678-12.008
					C2060.141,2028.859,1938.173,1851.491,1737.541,1566.352z"/>
				<path style="fill:#FFFFFF;" d="M883.456,1622.862c85.52,21.23,99.268,96.486,174.586,97.967
					c117.237,2.306,149.806-180.512,287.759-205.493c123.986-22.452,178.148,112.225,296.898,96.247
					c27.709-3.728,59.81-15.814,94.843-45.23c-90.782-129.019-198.271-280.963-313.255-454.673
					c-15.797-23.865-52.38-79.329-111.065-87.566c-110.125-15.455-218.432,146.164-269.861,221.76
					c-100.281,147.408-193.023,274.538-275.78,384.433C807.542,1617.334,846.58,1613.708,883.456,1622.862z"/>
				<g style="opacity:0.3;">
					
						<linearGradient id="SVGID_00000171704196688267087270000017901833446650374528_" gradientUnits="userSpaceOnUse" x1="365.8904" y1="1910.2074" x2="1385.228" y2="1910.2074">
						<stop  offset="0" style="stop-color:#A6B2C7"/>
						<stop  offset="1" style="stop-color:#7595B6"/>
					</linearGradient>
					<path style="opacity:0.3;fill:url(#SVGID_00000171704196688267087270000017901833446650374528_);" d="M1254.573,1949.185
						c4.47-111.872,76.491-155.601,68.886-294.603c-2.604-47.588-13.436-86.802-28.522-121.119
						c-97.542,53.353-135.589,189.358-236.896,187.366c-75.318-1.481-89.065-76.737-174.586-97.967
						c-36.876-9.154-75.914-5.528-115.876,7.445c-292.869,388.906-456.453,556.595-385.009,637.644
						c22.052,25.018,49.626,22.194,331.256,9.488c464.182-20.942,420.471-14.476,459.906-19.354
						c84.317-10.429,152.977-23.79,211.495-38.339C1278.406,2114.672,1251.637,2022.671,1254.573,1949.185z"/>
				</g>
				<g style="opacity:0.5;">
					
						<linearGradient id="SVGID_00000087374266317950203350000009826500538560630717_" gradientUnits="userSpaceOnUse" x1="767.5797" y1="1387.4843" x2="1294.9375" y2="1387.4843">
						<stop  offset="0" style="stop-color:#F3E9E1"/>
						<stop  offset="1" style="stop-color:#E1D1C5"/>
					</linearGradient>
					<path style="opacity:0.3;fill:url(#SVGID_00000087374266317950203350000009826500538560630717_);" d="M1211.29,1054.118
						c-70.9,48.013-132.76,140.057-167.931,191.755c-100.281,147.408-193.023,274.538-275.78,384.433
						c39.962-12.973,79-16.599,115.876-7.445c85.52,21.23,99.268,96.486,174.586,97.967
						c101.308,1.992,139.354-134.013,236.896-187.366c-48.603-110.563-141.848-170.803-146.095-292.963
						C1147.173,1192.459,1159.177,1129.851,1211.29,1054.118z"/>
				</g>
			</g>
			<g style="clip-path:url(#SVGID_00000050637865585664025060000013528293369568156036_);">
				
					<linearGradient id="SVGID_00000042728548534656382400000009896170602390817187_" gradientUnits="userSpaceOnUse" x1="1889.785" y1="465.7801" x2="1464.7341" y2="669.1787">
					<stop  offset="0" style="stop-color:#EF9F8E"/>
					<stop  offset="1" style="stop-color:#E68273"/>
				</linearGradient>
				<path style="fill:url(#SVGID_00000042728548534656382400000009896170602390817187_);" d="M1438.995,450.685
					c74.259-31.315,145.072-22.87,180.429-9.564c41.798,15.729,55.663,27.533,92.665,33.473c32.888,5.28,67.031-29.026,92.665-4.782
					c1.726,1.633,3.85,3.664,6.237,7.173c18.364,26.994-3.329,59.596,2.673,116.559c3.071,29.144,10.502,37.233,17.374,93.246
					c2.614,21.3,2.068,24.437,1.337,26.898c-11.232,37.796-100.339,30.654-163.054,14.346
					c-86.463-22.484-114.299-60.19-171.073-43.037c-26.189,7.913-46.092,23.74-58.807,35.864
					C1445.232,631.2,1433.203,540.345,1438.995,450.685z"/>
				
					<linearGradient id="SVGID_00000066518132582728720060000003079432980953133498_" gradientUnits="userSpaceOnUse" x1="1436.2241" y1="856.2922" x2="1443.6396" y2="856.2922">
					<stop  offset="0" style="stop-color:#5D535A"/>
					<stop  offset="1" style="stop-color:#464143"/>
				</linearGradient>
				<path style="fill:url(#SVGID_00000066518132582728720060000003079432980953133498_);" d="M1439.932,1292.263
					c-2.048,0-3.708-1.66-3.708-3.708V424.03c0-2.048,1.66-3.708,3.708-3.708s3.708,1.66,3.708,3.708v864.525
					C1443.64,1290.603,1441.98,1292.263,1439.932,1292.263z"/>
			</g>
			<g style="clip-path:url(#SVGID_00000050637865585664025060000013528293369568156036_);">
				
					<linearGradient id="SVGID_00000067227044360339811470000018023492147443415485_" gradientUnits="userSpaceOnUse" x1="364.5788" y1="1438.5162" x2="379.6407" y2="1484.4879" gradientTransform="matrix(0.444 0.896 -0.896 0.444 2577.3015 -242.4513)">
					<stop  offset="0" style="stop-color:#CBAF85"/>
					<stop  offset="1" style="stop-color:#BA7C44"/>
				</linearGradient>
				<path style="fill:url(#SVGID_00000067227044360339811470000018023492147443415485_);" d="M1426.655,744.905l6.255-8.72
					c0,0-1.201-4.576,0.833-7.928c2.034-3.353,2.034-3.353,2.034-3.353s2.65-2.486,7.725-0.745c1.147,0.394,2.412,0.264,3.41-0.424
					c2.996-2.069,3.797,3.63,3.797,3.63s2.167,2.537,0.223,4.74c0,0-0.253,3.247-2.673,4.914c-2.42,1.667-8.906,4.408-8.906,4.408
					l-6.99,8.41L1426.655,744.905z"/>
				
					<linearGradient id="SVGID_00000169556835537154579790000006021139020408608149_" gradientUnits="userSpaceOnUse" x1="177.3403" y1="1938.6898" x2="354.8603" y2="1528.5105" gradientTransform="matrix(0.444 0.896 -0.896 0.444 2577.3015 -242.4513)">
					<stop  offset="0" style="stop-color:#95AFC7"/>
					<stop  offset="1" style="stop-color:#7595B6"/>
				</linearGradient>
				<path style="fill:url(#SVGID_00000169556835537154579790000006021139020408608149_);" d="M1425.665,735.707
					c-44.726,17.81-73.424,10.842-86.801,5.819c-16.798-6.306-32.9-17.88-32.9-17.88c-22.741-16.345-31.642-32.608-54.06-36.133
					c-1.692-0.266-6.695-0.967-12.191-0.481c-32.334,2.862-68.327,45.648-63.698,74.107
					c8.025,49.336,145.376,100.147,220.801,45.228c24.281-17.68,36.439-42.163,42.638-58.791
					C1434.858,743.62,1430.261,739.664,1425.665,735.707z"/>
				
					<linearGradient id="SVGID_00000061447211162902396510000010910602654264451494_" gradientUnits="userSpaceOnUse" x1="258.0021" y1="1344.2372" x2="293.4719" y2="1344.2372" gradientTransform="matrix(-0.996 0.0897 0.0897 0.996 1303.2354 -108.6052)">
					<stop  offset="0" style="stop-color:#3B3138"/>
					<stop  offset="1" style="stop-color:#241F21"/>
				</linearGradient>
				<path style="fill:url(#SVGID_00000061447211162902396510000010910602654264451494_);" d="M1133.679,1248.15
					c-1.84,1.692-1.957,5.644-2.032,8.227c-0.035,1.154-0.052,1.731,0.102,2.129c1.116,2.9,6.868,2.861,15.916,3.231
					c14.298,0.586,18.594,1.446,19.578-0.736c0.921-2.045-1.799-5.136-2.104-5.477c-1.644-1.83-3.561-2.415-7.257-3.387
					c-6.839-1.798-11.442-2.73-12.835-3.012C1136.343,1247.361,1134.888,1247.04,1133.679,1248.15z"/>
				
					<linearGradient id="SVGID_00000141455244156051481880000017647933434857233073_" gradientUnits="userSpaceOnUse" x1="-183.3783" y1="1290.7976" x2="-167.8164" y2="1258.588" gradientTransform="matrix(-0.9976 0.0694 0.0694 0.9976 874.06 -20.1341)">
					<stop  offset="0" style="stop-color:#CBAF85"/>
					<stop  offset="1" style="stop-color:#BA7C44"/>
				</linearGradient>
				<path style="fill:url(#SVGID_00000141455244156051481880000017647933434857233073_);" d="M1143.707,1233.893l0.557,16.275
					c-0.445,0.761-5.386,2.85-9.103,0.634l-2.805-16.118L1143.707,1233.893z"/>
				
					<linearGradient id="SVGID_00000108288758294084983080000011509917892013414821_" gradientUnits="userSpaceOnUse" x1="-92.7335" y1="1394.7285" x2="-55.0494" y2="1394.7285" gradientTransform="matrix(-0.977 0.2133 0.2133 0.977 901.014 -95.5242)">
					<stop  offset="0" style="stop-color:#3B3138"/>
					<stop  offset="1" style="stop-color:#241F21"/>
				</linearGradient>
				<path style="fill:url(#SVGID_00000108288758294084983080000011509917892013414821_);" d="M1254.118,1245.9
					c-2.458,2.44-3.24,7.132-1.345,9.566c1.862,2.393,4.937,0.837,13.386,1.541c9.049,0.755,11.302,3.022,17.552,1.652
					c2.525-0.555,7.009-1.989,7.021-3.77c0.008-1.253-2.195-2.017-9.535-4.92c-10.418-4.12-10.361-4.312-12.594-4.805
					C1262.995,1243.924,1257.365,1242.679,1254.118,1245.9z"/>
				
					<linearGradient id="SVGID_00000073704193772272279820000004191005495729453226_" gradientUnits="userSpaceOnUse" x1="-214.3371" y1="1344.5127" x2="-198.4458" y2="1311.6213" gradientTransform="matrix(-0.9894 0.1453 0.1453 0.9894 858.8999 -47.1749)">
					<stop  offset="0" style="stop-color:#CBAF85"/>
					<stop  offset="1" style="stop-color:#BA7C44"/>
				</linearGradient>
				<path style="fill:url(#SVGID_00000073704193772272279820000004191005495729453226_);" d="M1260.715,1231.427l3.739,15.365
					c-0.387,0.793-5.153,3.252-9.028,1.326l-5.968-15.039L1260.715,1231.427z"/>
				
					<linearGradient id="SVGID_00000147930441497932428160000008241385308561447348_" gradientUnits="userSpaceOnUse" x1="1610.9955" y1="1088.991" x2="1510.4847" y2="862.4156" gradientTransform="matrix(0.9986 0.0533 -0.0533 0.9986 -270.6734 12.099)">
					<stop  offset="0" style="stop-color:#3B3138"/>
					<stop  offset="1" style="stop-color:#241F21"/>
				</linearGradient>
				<path style="fill:url(#SVGID_00000147930441497932428160000008241385308561447348_);" d="M1238.007,898.062
					c-2.063,50.858-1.646,108.188,3.36,170.717c4.947,61.8,13.513,117.859,23.482,167.284c-5.884,1.251-11.767,2.502-17.651,3.752
					c-13.983-14.507-31.394-37.099-38.721-68.102c-4.548-19.242-2.175-28.879-4.457-52.37
					c-3.633-37.403-13.969-57.449-24.126-87.996c-9.128-27.45-19.507-67.574-23.385-120.674
					C1183.675,906.469,1210.841,902.265,1238.007,898.062z"/>
				
					<linearGradient id="SVGID_00000013171809179812174090000015639766466264888496_" gradientUnits="userSpaceOnUse" x1="1595.4086" y1="1095.9049" x2="1494.8979" y2="869.33" gradientTransform="matrix(0.9986 0.0533 -0.0533 0.9986 -270.6734 12.099)">
					<stop  offset="0" style="stop-color:#5D535A"/>
					<stop  offset="1" style="stop-color:#464143"/>
				</linearGradient>
				<path style="opacity:0.3;fill:url(#SVGID_00000013171809179812174090000015639766466264888496_);" d="M1229.881,1135.745
					c-6.479-25.657-18.96-32.442-19.405-56.66c-0.314-17.131,5.842-18.531,5.433-34.928c-0.62-24.871-15.189-37.912-22.509-53.556
					c-7.731-16.523-10.693-43.062,10.142-87.206c-15.678,2.426-31.356,4.852-47.034,7.278
					c3.878,53.099,14.258,93.224,23.385,120.674c10.158,30.548,20.493,50.594,24.126,87.996c2.282,23.491-0.091,33.127,4.457,52.369
					c7.328,31.003,24.738,53.595,38.721,68.102c1.497-0.318,2.993-0.636,4.49-0.954c-15.116-18.043-20.45-34.156-21.807-47.231
					C1227.674,1170.358,1236.413,1161.614,1229.881,1135.745z"/>
				
					<linearGradient id="SVGID_00000051364453473914722850000000013103696011404691_" gradientUnits="userSpaceOnUse" x1="1260.8503" y1="1238.9155" x2="1160.3369" y2="1012.3345" gradientTransform="matrix(0.9976 -0.0694 0.0694 0.9976 -120.3582 49.5474)">
					<stop  offset="0" style="stop-color:#3B3138"/>
					<stop  offset="1" style="stop-color:#241F21"/>
				</linearGradient>
				<path style="fill:url(#SVGID_00000051364453473914722850000000013103696011404691_);" d="M1179.199,894.883
					c-7.002,64.449-13.438,130.135-19.229,197.025c-4.346,50.194-8.216,99.775-11.643,148.723
					c-5.964,0.415-11.928,0.83-17.892,1.245c-5.156-10.965-11.89-27.667-15.984-48.833c-4.973-25.707-2.703-40.693-4.073-67.134
					c-1.538-29.655-5.717-36.321-11.741-73.948c-12.227-76.365-18.34-114.547,1.05-137.059
					C1105.981,907.591,1125.458,889.455,1179.199,894.883z"/>
				
					<linearGradient id="SVGID_00000059998881493446815170000017349741632443052207_" gradientUnits="userSpaceOnUse" x1="1088.3853" y1="936.8185" x2="1242.067" y2="581.72">
					<stop  offset="0" style="stop-color:#95AFC7"/>
					<stop  offset="1" style="stop-color:#7595B6"/>
				</linearGradient>
				<path style="fill:url(#SVGID_00000059998881493446815170000017349741632443052207_);" d="M1024.74,694.471
					c32.217-10.923,81.374-23.027,141.494-20.55c34.828,1.435,64.77,7.411,88.494,14.056c3.208,17.94,6.415,35.88,9.623,53.82
					c0.737,17.987,0.975,42.354-1.046,71.143c-2.021,28.787-3.999,29.221-8.629,69.857c-7.548,66.254-4.391,83.564-17.707,91.522
					c-8.661,5.177-11.793-1.072-55.988-5.453c-29.635-2.937-44.758-4.302-59.765,0.776c-20.436,6.915-27.274,18.525-35.704,14.747
					c-8.084-3.623-9.114-17.58-10.09-41.914c-1.506-37.538-1.414-63.052-1.552-72.184c-0.637-41.903-11.248-73.897-24.838-114.873
					C1040.533,729.791,1031.58,709.05,1024.74,694.471z"/>
				<g>
					
						<linearGradient id="SVGID_00000005226811241721216460000004950910467528750987_" gradientUnits="userSpaceOnUse" x1="1475.3264" y1="33.9409" x2="1479.2827" y2="-71.44" gradientTransform="matrix(0.8944 0.4471 -0.4471 0.8944 -163.3565 23.6114)">
						<stop  offset="0" style="stop-color:#CBAF85"/>
						<stop  offset="1" style="stop-color:#BA7C44"/>
					</linearGradient>
					<path style="fill:url(#SVGID_00000005226811241721216460000004950910467528750987_);" d="M1162.254,632.41
						c-0.474,10.535-2.094,18.824-3.512,24.484c-1.623,6.485-2.631,8.129-3.875,9.44c-1.873,1.974-4.636,3.566-19.926,6.502
						c-8.32,1.597-9.374,1.485-9.599,2.29c-1.096,3.928,20.572,18.673,43.88,16.643c14.265-1.242,27.578-8.632,27.014-12.916
						c-0.568-4.312-14.833-2.776-18.636-10.724c-2.645-5.529,1.049-12.981,5.272-19.09
						C1179.485,641.788,1165.64,639.661,1162.254,632.41z"/>
					<g>
						
							<linearGradient id="SVGID_00000075855617015821605630000005438848579764520338_" gradientUnits="userSpaceOnUse" x1="-618.2284" y1="433.3554" x2="-645.0516" y2="365.2294" gradientTransform="matrix(-0.9988 -0.0496 -0.0496 0.9988 550.302 221.7428)">
							<stop  offset="0" style="stop-color:#3B3138"/>
							<stop  offset="1" style="stop-color:#241F21"/>
						</linearGradient>
						<path style="fill:url(#SVGID_00000075855617015821605630000005438848579764520338_);" d="M1188.309,637.976
							c3.578-4.26,4.198-11.998,0.61-17.102c-3.088-4.392-8.27-5.271-11.372-5.799c-8.989-1.527-20.604,1.639-25.018,9.752
							c-2.615,4.808,1.926,15.33,2.624,17.216c0.791,2.132,2.388,2.934,3.818,4.591c1.98,2.297,5.078,5.947,10.127,12.044
							c0.508-1.693,1.255-3.781,2.383-6.028c0.434-0.865,2.174-4.241,4.681-6.983
							C1181.183,640.17,1184.917,642.014,1188.309,637.976z"/>
						
							<linearGradient id="SVGID_00000041287144491684013830000005708068504806784435_" gradientUnits="userSpaceOnUse" x1="879.0551" y1="426.5754" x2="877.8215" y2="525.9636" gradientTransform="matrix(0.9999 -0.0116 0.0116 0.9999 288.3104 220.9825)">
							<stop  offset="0" style="stop-color:#CBAF85"/>
							<stop  offset="1" style="stop-color:#BA7C44"/>
						</linearGradient>
						<path style="fill:url(#SVGID_00000041287144491684013830000005708068504806784435_);" d="M1161.714,653.383
							c0,0,5.425,10.073,17.306,9.935c10.637-0.124,13.459-23.812,6.958-29.218c-2.169-1.804-6.656-2.744-10.389-1.91
							c-2.205,0.493-2.989,1.357-6.608,2.091c-3.338,0.679-4.248,0.264-5.287,1.047c-1.299,0.98-2.346,3.496-0.642,10.556
							c-1.913-2.155-4.299-3.071-6.062-2.351c-0.281,0.116-1.035,0.572-1.485,1.3
							C1153.879,647.469,1156.174,651.069,1161.714,653.383z"/>
						
							<linearGradient id="SVGID_00000065037188421200721260000014197833982373589170_" gradientUnits="userSpaceOnUse" x1="-626.4221" y1="436.618" x2="-653.273" y2="368.4216" gradientTransform="matrix(-0.9988 -0.0496 -0.0496 0.9988 550.302 221.7428)">
							<stop  offset="0" style="stop-color:#3B3138"/>
							<stop  offset="1" style="stop-color:#241F21"/>
						</linearGradient>
						<path style="fill:url(#SVGID_00000065037188421200721260000014197833982373589170_);" d="M1163.291,633.881
							c0.491,0.409-1.174,2.232-1.434,4.925c-0.507,5.227,4.461,11.801,9.843,12.623c3.182,0.486,4.164-1.395,9.482-1.671
							c3.293-0.171,5.996,0.391,7.69,0.858c1.355,5.835-0.515,11.481-4.498,13.934c-4.288,2.641-9.478,0.623-11.648-0.221
							c-1.451-0.565-6.103-2.363-8.346-6.838c-2.337-4.662,0.339-7.254-2.455-10.472c-1.41-1.623-3.333-2.396-5.081-5.486
							c-0.474-0.839-0.782-1.576-0.968-2.07C1158.766,636.709,1162.58,633.289,1163.291,633.881z"/>
						
							<linearGradient id="SVGID_00000117652413379250569310000014917124122153023890_" gradientUnits="userSpaceOnUse" x1="-652.701" y1="395.5273" x2="-651.3046" y2="407.9762" gradientTransform="matrix(-0.9988 -0.0496 -0.0496 0.9988 550.302 221.7428)">
							<stop  offset="0" style="stop-color:#FFC444"/>
							<stop  offset="1" style="stop-color:#F36F56"/>
						</linearGradient>
						<path style="fill:url(#SVGID_00000117652413379250569310000014917124122153023890_);" d="M1184.911,652.539
							c0,0-2.353,1.074-6.297,0.64c-0.192-0.021-0.407,0.024-0.437,0.122c-0.111,0.37,2.337,2.189,4.711,1.657
							c1.685-0.379,3.061-1.882,2.859-2.294C1185.661,652.491,1185.284,652.493,1184.911,652.539z"/>
					</g>
				</g>
				
					<linearGradient id="SVGID_00000080911340297128084350000015766951122384072071_" gradientUnits="userSpaceOnUse" x1="970.6215" y1="885.8516" x2="1124.3037" y2="530.7521">
					<stop  offset="0" style="stop-color:#95AFC7"/>
					<stop  offset="1" style="stop-color:#7595B6"/>
				</linearGradient>
				<path style="fill:url(#SVGID_00000080911340297128084350000015766951122384072071_);" d="M1057.692,866.596
					c0.747,8.75-1.159,14.692-4.339,18.767c-14.096,18.062-62.003,10.677-90.476-13.517c-21.076-17.908-32.235-45.715-31.823-70.632
					c0.805-48.618,45.862-96.258,112.885-112.717c9.921,29.657,19.842,59.314,29.763,88.972
					c-41.321,0.63-66.425,31.78-62.702,54.016C1013.773,848.051,1033.093,862.951,1057.692,866.596z"/>
				
					<linearGradient id="SVGID_00000126284180886808346340000009701430575903599786_" gradientUnits="userSpaceOnUse" x1="1116.6339" y1="949.0439" x2="1270.3168" y2="593.9428">
					<stop  offset="0" style="stop-color:#A6B2C7"/>
					<stop  offset="1" style="stop-color:#7595B6"/>
				</linearGradient>
				<path style="opacity:0.3;fill:url(#SVGID_00000126284180886808346340000009701430575903599786_);" d="M1219.79,952.568
					c-21.737-9.275-21.611-28.47-41.913-36.48c-28.97-11.431-60.978,15.125-65.975,7.761c-5.201-7.662,33.027-31.159,27.942-54.332
					c-4.042-18.416-30.726-15.152-45.018-40.361c-13.558-23.913-0.414-46.022-12.419-54.332c-4.305-2.981-11.9-4.157-26.299,2.18
					c10.041,31.358,17.24,59.011,17.761,93.289c0.139,9.133,0.046,34.647,1.552,72.184c0.976,24.333,2.006,38.291,10.09,41.914
					c8.43,3.777,15.269-7.832,35.704-14.747c15.007-5.078,30.131-3.713,59.765-0.776c44.195,4.38,47.327,10.629,55.988,5.453
					c5.64-3.371,8.322-8.44,10.116-18.177C1238.226,957.099,1228.827,956.424,1219.79,952.568z"/>
				
					<linearGradient id="SVGID_00000040570484062356353600000009257693134771912080_" gradientUnits="userSpaceOnUse" x1="1070.6332" y1="863.1188" x2="1077.7667" y2="884.8921">
					<stop  offset="0" style="stop-color:#CBAF85"/>
					<stop  offset="1" style="stop-color:#BA7C44"/>
				</linearGradient>
				<path style="fill:url(#SVGID_00000040570484062356353600000009257693134771912080_);" d="M1054.465,870.327l10.665-0.596
					c0,0,11.685-9.779,17.004-9.168c5.318,0.61,13.275,4.3,14.245,5.075c0.97,0.774-2.911,5.11-6.792,4.689
					c-3.881-0.422-12.541,1.672-14.09,5.091c-1.549,3.419-8.27,5.484-9.412,3.478l-14.337,2.846L1054.465,870.327z"/>
			</g>
		</g>
	</g>
</g>
</svg>
